<svg width="402" height="389" viewBox="0 0 402 389" fill="none" xmlns="http://www.w3.org/2000/svg">
<rect y="61" width="158" height="53" rx="6" fill="#3B8CC5"/>
<rect x="244" y="281" width="158" height="53" rx="6" fill="#3B8CC5"/>
<rect x="120" y="1" width="258" height="161" rx="5" fill="#F7F8FC" stroke="#89969F" stroke-width="2"/>
<rect x="1" y="209" width="258" height="161" rx="5" fill="#F7F8FC" stroke="#89969F" stroke-width="2"/>
<rect x="10" y="218" width="258" height="161" rx="5" fill="#F7F8FC" stroke="#89969F" stroke-width="2"/>
<rect x="19" y="227" width="258" height="161" rx="5" fill="#F7F8FC" stroke="#89969F" stroke-width="2"/>
<path d="M202.979 57.5566H198.892V60.6191H203.67V62H197.162V52.0469H203.622V53.4414H198.892V56.1895H202.979V57.5566ZM208.735 58.165H206.808V62H205.078V52.0469H208.578C209.727 52.0469 210.613 52.3044 211.237 52.8193C211.862 53.3343 212.174 54.0794 212.174 55.0547C212.174 55.7201 212.012 56.2783 211.688 56.7295C211.369 57.1761 210.923 57.5202 210.349 57.7617L212.584 61.9111V62H210.731L208.735 58.165ZM206.808 56.7773H208.585C209.168 56.7773 209.624 56.6315 209.952 56.3398C210.28 56.0436 210.444 55.6403 210.444 55.1299C210.444 54.5967 210.292 54.1842 209.986 53.8926C209.686 53.6009 209.234 53.4505 208.633 53.4414H206.808V56.7773ZM221.409 58.7598C221.309 59.8216 220.917 60.651 220.233 61.248C219.55 61.8405 218.641 62.1367 217.506 62.1367C216.713 62.1367 216.013 61.9499 215.407 61.5762C214.806 61.1979 214.341 60.6624 214.013 59.9697C213.685 59.277 213.514 58.4727 213.5 57.5566V56.627C213.5 55.6882 213.666 54.861 213.999 54.1455C214.332 53.43 214.808 52.8786 215.428 52.4912C216.052 52.1038 216.772 51.9102 217.588 51.9102C218.686 51.9102 219.57 52.2087 220.24 52.8057C220.91 53.4027 221.3 54.2458 221.409 55.335H219.687C219.604 54.6195 219.395 54.1045 219.058 53.79C218.725 53.471 218.235 53.3115 217.588 53.3115C216.836 53.3115 216.257 53.5872 215.852 54.1387C215.451 54.6855 215.245 55.4899 215.236 56.5518V57.4336C215.236 58.5091 215.428 59.3294 215.811 59.8945C216.198 60.4596 216.763 60.7422 217.506 60.7422C218.185 60.7422 218.695 60.5895 219.037 60.2842C219.379 59.9788 219.595 59.4707 219.687 58.7598H221.409ZM229.318 52.9697L225.34 62H223.597L227.568 53.3799H222.421V52.0469H229.318V52.9697ZM237.344 62H230.651V60.8584L233.967 57.2422C234.445 56.709 234.785 56.2646 234.985 55.9092C235.19 55.5492 235.293 55.1891 235.293 54.8291C235.293 54.3551 235.159 53.9723 234.89 53.6807C234.625 53.389 234.268 53.2432 233.816 53.2432C233.279 53.2432 232.862 53.4072 232.565 53.7354C232.269 54.0635 232.121 54.5124 232.121 55.082H230.46C230.46 54.4759 230.597 53.9313 230.87 53.4482C231.148 52.9606 231.542 52.5824 232.053 52.3135C232.568 52.0446 233.16 51.9102 233.83 51.9102C234.796 51.9102 235.557 52.154 236.113 52.6416C236.674 53.1247 236.954 53.7946 236.954 54.6514C236.954 55.1481 236.813 55.6699 236.53 56.2168C236.252 56.7591 235.794 57.3766 235.156 58.0693L232.723 60.6738H237.344V62ZM243.106 62H241.452V54.0088L239.012 54.8428V53.4414L242.895 52.0127H243.106V62ZM253.976 58.165H252.048V62H250.318V52.0469H253.818C254.967 52.0469 255.853 52.3044 256.478 52.8193C257.102 53.3343 257.414 54.0794 257.414 55.0547C257.414 55.7201 257.252 56.2783 256.929 56.7295C256.61 57.1761 256.163 57.5202 255.589 57.7617L257.824 61.9111V62H255.972L253.976 58.165ZM252.048 56.7773H253.825C254.409 56.7773 254.864 56.6315 255.192 56.3398C255.521 56.0436 255.685 55.6403 255.685 55.1299C255.685 54.5967 255.532 54.1842 255.227 53.8926C254.926 53.6009 254.475 53.4505 253.873 53.4414H252.048V56.7773ZM262.151 62.1367C261.099 62.1367 260.244 61.8063 259.588 61.1455C258.936 60.4801 258.61 59.596 258.61 58.4932V58.2881C258.61 57.5498 258.752 56.8913 259.034 56.3125C259.321 55.7292 259.722 55.2757 260.237 54.9521C260.752 54.6286 261.326 54.4668 261.96 54.4668C262.967 54.4668 263.744 54.7881 264.291 55.4307C264.842 56.0732 265.118 56.9824 265.118 58.1582V58.8281H260.285C260.335 59.4388 260.538 59.9219 260.894 60.2773C261.254 60.6328 261.705 60.8105 262.247 60.8105C263.008 60.8105 263.628 60.5029 264.106 59.8877L265.002 60.7422C264.706 61.1842 264.309 61.5283 263.812 61.7744C263.32 62.016 262.767 62.1367 262.151 62.1367ZM261.953 55.7998C261.497 55.7998 261.128 55.9593 260.846 56.2783C260.568 56.5973 260.39 57.0417 260.312 57.6113H263.478V57.4883C263.441 56.9323 263.293 56.513 263.033 56.2305C262.773 55.9434 262.413 55.7998 261.953 55.7998ZM266.123 58.2471C266.123 57.0986 266.392 56.1826 266.93 55.499C267.472 54.8109 268.19 54.4668 269.083 54.4668C269.926 54.4668 270.589 54.7607 271.072 55.3486L271.147 54.6035H272.645V61.7744C272.645 62.7451 272.341 63.5107 271.735 64.0713C271.134 64.6318 270.32 64.9121 269.295 64.9121C268.753 64.9121 268.222 64.7982 267.702 64.5703C267.187 64.347 266.795 64.0531 266.526 63.6885L267.312 62.6904C267.823 63.2965 268.452 63.5996 269.199 63.5996C269.751 63.5996 270.186 63.4492 270.505 63.1484C270.824 62.8522 270.983 62.4147 270.983 61.8359V61.3369C270.505 61.8701 269.867 62.1367 269.069 62.1367C268.203 62.1367 267.495 61.7926 266.943 61.1045C266.396 60.4163 266.123 59.4639 266.123 58.2471ZM267.777 58.3906C267.777 59.1335 267.928 59.7191 268.229 60.1475C268.534 60.5713 268.955 60.7832 269.493 60.7832C270.163 60.7832 270.66 60.4961 270.983 59.9219V56.668C270.669 56.1074 270.177 55.8271 269.507 55.8271C268.96 55.8271 268.534 56.0436 268.229 56.4766C267.928 56.9095 267.777 57.5475 267.777 58.3906ZM276.124 62H274.463V54.6035H276.124V62ZM274.36 52.6826C274.36 52.4274 274.44 52.2155 274.6 52.0469C274.764 51.8783 274.996 51.7939 275.297 51.7939C275.598 51.7939 275.83 51.8783 275.994 52.0469C276.158 52.2155 276.24 52.4274 276.24 52.6826C276.24 52.9333 276.158 53.1429 275.994 53.3115C275.83 53.4756 275.598 53.5576 275.297 53.5576C274.996 53.5576 274.764 53.4756 274.6 53.3115C274.44 53.1429 274.36 52.9333 274.36 52.6826ZM282.085 59.9902C282.085 59.694 281.962 59.4684 281.716 59.3135C281.474 59.1585 281.071 59.0218 280.506 58.9033C279.941 58.7848 279.469 58.6344 279.091 58.4521C278.261 58.0511 277.847 57.4701 277.847 56.709C277.847 56.071 278.116 55.5378 278.653 55.1094C279.191 54.681 279.875 54.4668 280.704 54.4668C281.588 54.4668 282.301 54.6855 282.844 55.123C283.391 55.5605 283.664 56.1279 283.664 56.8252H282.003C282.003 56.5062 281.884 56.2419 281.647 56.0322C281.41 55.818 281.096 55.7109 280.704 55.7109C280.34 55.7109 280.041 55.7952 279.809 55.9639C279.581 56.1325 279.467 56.3581 279.467 56.6406C279.467 56.8958 279.574 57.0941 279.788 57.2354C280.002 57.3766 280.435 57.5202 281.087 57.666C281.739 57.8073 282.249 57.9782 282.618 58.1787C282.992 58.3747 283.268 58.6117 283.445 58.8896C283.628 59.1676 283.719 59.5049 283.719 59.9014C283.719 60.5667 283.443 61.1068 282.892 61.5215C282.34 61.9316 281.618 62.1367 280.725 62.1367C280.118 62.1367 279.578 62.0273 279.104 61.8086C278.631 61.5898 278.261 61.2891 277.997 60.9062C277.733 60.5234 277.601 60.111 277.601 59.6689H279.214C279.237 60.0609 279.385 60.3639 279.658 60.5781C279.932 60.7878 280.294 60.8926 280.745 60.8926C281.183 60.8926 281.515 60.8105 281.743 60.6465C281.971 60.4779 282.085 60.2591 282.085 59.9902ZM287.253 52.8057V54.6035H288.559V55.834H287.253V59.9629C287.253 60.2454 287.308 60.4505 287.417 60.5781C287.531 60.7012 287.731 60.7627 288.019 60.7627C288.21 60.7627 288.404 60.7399 288.6 60.6943V61.9795C288.221 62.0843 287.857 62.1367 287.506 62.1367C286.23 62.1367 285.592 61.4326 285.592 60.0244V55.834H284.375V54.6035H285.592V52.8057H287.253ZM293.706 56.1211C293.487 56.0846 293.262 56.0664 293.029 56.0664C292.268 56.0664 291.756 56.3581 291.491 56.9414V62H289.83V54.6035H291.416L291.457 55.4307C291.858 54.7881 292.414 54.4668 293.125 54.4668C293.362 54.4668 293.558 54.4987 293.713 54.5625L293.706 56.1211ZM297.466 59.6211L298.97 54.6035H300.74L297.801 63.1211C297.35 64.3652 296.584 64.9873 295.504 64.9873C295.262 64.9873 294.996 64.9463 294.704 64.8643V63.5791L295.019 63.5996C295.438 63.5996 295.752 63.5221 295.962 63.3672C296.176 63.2168 296.345 62.9616 296.468 62.6016L296.707 61.9658L294.109 54.6035H295.9L297.466 59.6211ZM179.484 72.6865L183.518 74.2178V75.8789L177.796 73.3291V72.0098L183.518 69.4668V71.1279L179.484 72.6865ZM186.607 72.6865L190.641 74.2178V75.8789L184.919 73.3291V72.0098L190.641 69.4668V71.1279L186.607 72.6865ZM199.767 73.165H197.839V77H196.109V67.0469H199.609C200.758 67.0469 201.644 67.3044 202.269 67.8193C202.893 68.3343 203.205 69.0794 203.205 70.0547C203.205 70.7201 203.043 71.2783 202.72 71.7295C202.401 72.1761 201.954 72.5202 201.38 72.7617L203.615 76.9111V77H201.763L199.767 73.165ZM197.839 71.7773H199.616C200.2 71.7773 200.655 71.6315 200.983 71.3398C201.312 71.0436 201.476 70.6403 201.476 70.1299C201.476 69.5967 201.323 69.1842 201.018 68.8926C200.717 68.6009 200.266 68.4505 199.664 68.4414H197.839V71.7773ZM207.942 77.1367C206.89 77.1367 206.035 76.8063 205.379 76.1455C204.727 75.4801 204.401 74.596 204.401 73.4932V73.2881C204.401 72.5498 204.543 71.8913 204.825 71.3125C205.112 70.7292 205.513 70.2757 206.028 69.9521C206.543 69.6286 207.118 69.4668 207.751 69.4668C208.758 69.4668 209.535 69.7881 210.082 70.4307C210.633 71.0732 210.909 71.9824 210.909 73.1582V73.8281H206.076C206.126 74.4388 206.329 74.9219 206.685 75.2773C207.045 75.6328 207.496 75.8105 208.038 75.8105C208.799 75.8105 209.419 75.5029 209.897 74.8877L210.793 75.7422C210.497 76.1842 210.1 76.5283 209.604 76.7744C209.111 77.016 208.558 77.1367 207.942 77.1367ZM207.744 70.7998C207.288 70.7998 206.919 70.9593 206.637 71.2783C206.359 71.5973 206.181 72.0417 206.104 72.6113H209.269V72.4883C209.232 71.9323 209.084 71.513 208.824 71.2305C208.564 70.9434 208.204 70.7998 207.744 70.7998ZM211.914 73.2471C211.914 72.0986 212.183 71.1826 212.721 70.499C213.263 69.8109 213.981 69.4668 214.874 69.4668C215.717 69.4668 216.38 69.7607 216.863 70.3486L216.938 69.6035H218.436V76.7744C218.436 77.7451 218.132 78.5107 217.526 79.0713C216.925 79.6318 216.111 79.9121 215.086 79.9121C214.544 79.9121 214.013 79.7982 213.493 79.5703C212.978 79.347 212.586 79.0531 212.317 78.6885L213.104 77.6904C213.614 78.2965 214.243 78.5996 214.99 78.5996C215.542 78.5996 215.977 78.4492 216.296 78.1484C216.615 77.8522 216.774 77.4147 216.774 76.8359V76.3369C216.296 76.8701 215.658 77.1367 214.86 77.1367C213.994 77.1367 213.286 76.7926 212.734 76.1045C212.188 75.4163 211.914 74.4639 211.914 73.2471ZM213.568 73.3906C213.568 74.1335 213.719 74.7191 214.02 75.1475C214.325 75.5713 214.746 75.7832 215.284 75.7832C215.954 75.7832 216.451 75.4961 216.774 74.9219V71.668C216.46 71.1074 215.968 70.8271 215.298 70.8271C214.751 70.8271 214.325 71.0436 214.02 71.4766C213.719 71.9095 213.568 72.5475 213.568 73.3906ZM221.915 77H220.254V69.6035H221.915V77ZM220.151 67.6826C220.151 67.4274 220.231 67.2155 220.391 67.0469C220.555 66.8783 220.787 66.7939 221.088 66.7939C221.389 66.7939 221.621 66.8783 221.785 67.0469C221.949 67.2155 222.031 67.4274 222.031 67.6826C222.031 67.9333 221.949 68.1429 221.785 68.3115C221.621 68.4756 221.389 68.5576 221.088 68.5576C220.787 68.5576 220.555 68.4756 220.391 68.3115C220.231 68.1429 220.151 67.9333 220.151 67.6826ZM227.876 74.9902C227.876 74.694 227.753 74.4684 227.507 74.3135C227.265 74.1585 226.862 74.0218 226.297 73.9033C225.732 73.7848 225.26 73.6344 224.882 73.4521C224.052 73.0511 223.638 72.4701 223.638 71.709C223.638 71.071 223.907 70.5378 224.444 70.1094C224.982 69.681 225.666 69.4668 226.495 69.4668C227.379 69.4668 228.092 69.6855 228.635 70.123C229.182 70.5605 229.455 71.1279 229.455 71.8252H227.794C227.794 71.5062 227.675 71.2419 227.438 71.0322C227.201 70.818 226.887 70.7109 226.495 70.7109C226.131 70.7109 225.832 70.7952 225.6 70.9639C225.372 71.1325 225.258 71.3581 225.258 71.6406C225.258 71.8958 225.365 72.0941 225.579 72.2354C225.793 72.3766 226.226 72.5202 226.878 72.666C227.53 72.8073 228.04 72.9782 228.409 73.1787C228.783 73.3747 229.059 73.6117 229.236 73.8896C229.419 74.1676 229.51 74.5049 229.51 74.9014C229.51 75.5667 229.234 76.1068 228.683 76.5215C228.131 76.9316 227.409 77.1367 226.516 77.1367C225.91 77.1367 225.369 77.0273 224.896 76.8086C224.422 76.5898 224.052 76.2891 223.788 75.9062C223.524 75.5234 223.392 75.111 223.392 74.6689H225.005C225.028 75.0609 225.176 75.3639 225.449 75.5781C225.723 75.7878 226.085 75.8926 226.536 75.8926C226.974 75.8926 227.306 75.8105 227.534 75.6465C227.762 75.4779 227.876 75.2591 227.876 74.9902ZM233.044 67.8057V69.6035H234.35V70.834H233.044V74.9629C233.044 75.2454 233.099 75.4505 233.208 75.5781C233.322 75.7012 233.522 75.7627 233.81 75.7627C234.001 75.7627 234.195 75.7399 234.391 75.6943V76.9795C234.012 77.0843 233.648 77.1367 233.297 77.1367C232.021 77.1367 231.383 76.4326 231.383 75.0244V70.834H230.166V69.6035H231.383V67.8057H233.044ZM239.497 71.1211C239.278 71.0846 239.053 71.0664 238.82 71.0664C238.059 71.0664 237.547 71.3581 237.282 71.9414V77H235.621V69.6035H237.207L237.248 70.4307C237.649 69.7881 238.205 69.4668 238.916 69.4668C239.153 69.4668 239.349 69.4987 239.504 69.5625L239.497 71.1211ZM243.257 74.6211L244.761 69.6035H246.531L243.592 78.1211C243.141 79.3652 242.375 79.9873 241.295 79.9873C241.053 79.9873 240.787 79.9463 240.495 79.8643V78.5791L240.81 78.5996C241.229 78.5996 241.543 78.5221 241.753 78.3672C241.967 78.2168 242.136 77.9616 242.259 77.6016L242.498 76.9658L239.9 69.6035H241.691L243.257 74.6211ZM257.359 72.8096C257.359 74.2406 257.09 75.3206 256.553 76.0498C256.02 76.7744 255.206 77.1367 254.112 77.1367C253.037 77.1367 252.226 76.7835 251.679 76.0771C251.136 75.3662 250.858 74.3158 250.845 72.9258V71.2031C250.845 69.7721 251.111 68.6989 251.645 67.9834C252.182 67.2679 253 66.9102 254.099 66.9102C255.188 66.9102 255.999 67.2588 256.532 67.9561C257.07 68.6533 257.346 69.6969 257.359 71.0869V72.8096ZM255.698 70.9502C255.698 70.016 255.571 69.3324 255.315 68.8994C255.06 68.4619 254.655 68.2432 254.099 68.2432C253.556 68.2432 253.158 68.4505 252.902 68.8652C252.647 69.2754 252.513 69.918 252.499 70.793V73.0488C252.499 73.9785 252.629 74.6712 252.889 75.127C253.148 75.5827 253.556 75.8105 254.112 75.8105C254.646 75.8105 255.04 75.6009 255.295 75.1816C255.55 74.7578 255.685 74.097 255.698 73.1992V70.9502ZM261.591 72.0371L262.999 69.6035H264.845L262.582 73.2471L264.92 77H263.088L261.611 74.4707L260.142 77H258.296L260.634 73.2471L258.378 69.6035H260.21L261.591 72.0371ZM271.708 74.6826H267.853L267.046 77H265.248L269.008 67.0469H270.56L274.326 77H272.521L271.708 74.6826ZM268.338 73.2881H271.223L269.78 69.1592L268.338 73.2881ZM275.461 77V67.0469H278.872C279.998 67.0469 280.854 67.2725 281.442 67.7236C282.03 68.1748 282.324 68.847 282.324 69.7402C282.324 70.196 282.201 70.6061 281.955 70.9707C281.709 71.3353 281.349 71.6178 280.875 71.8184C281.413 71.9642 281.827 72.2399 282.119 72.6455C282.415 73.0465 282.563 73.5296 282.563 74.0947C282.563 75.029 282.263 75.7467 281.661 76.248C281.064 76.7493 280.207 77 279.091 77H275.461ZM277.19 72.5088V75.6191H279.111C279.654 75.6191 280.077 75.4847 280.383 75.2158C280.688 74.9469 280.841 74.5732 280.841 74.0947C280.841 73.0602 280.312 72.5316 279.255 72.5088H277.19ZM277.19 71.2373H278.886C279.424 71.2373 279.843 71.1165 280.144 70.875C280.449 70.6289 280.602 70.2826 280.602 69.8359C280.602 69.3438 280.46 68.9883 280.178 68.7695C279.9 68.5508 279.465 68.4414 278.872 68.4414H277.19V71.2373ZM291.888 73.7598C291.787 74.8216 291.396 75.651 290.712 76.248C290.028 76.8405 289.119 77.1367 287.984 77.1367C287.191 77.1367 286.492 76.9499 285.886 76.5762C285.284 76.1979 284.819 75.6624 284.491 74.9697C284.163 74.277 283.992 73.4727 283.979 72.5566V71.627C283.979 70.6882 284.145 69.861 284.478 69.1455C284.81 68.43 285.286 67.8786 285.906 67.4912C286.531 67.1038 287.251 66.9102 288.066 66.9102C289.165 66.9102 290.049 67.2087 290.719 67.8057C291.389 68.4027 291.778 69.2458 291.888 70.335H290.165C290.083 69.6195 289.873 69.1045 289.536 68.79C289.203 68.471 288.714 68.3115 288.066 68.3115C287.314 68.3115 286.736 68.5872 286.33 69.1387C285.929 69.6855 285.724 70.4899 285.715 71.5518V72.4336C285.715 73.5091 285.906 74.3294 286.289 74.8945C286.676 75.4596 287.242 75.7422 287.984 75.7422C288.663 75.7422 289.174 75.5895 289.516 75.2842C289.857 74.9788 290.074 74.4707 290.165 73.7598H291.888ZM293.439 77V67.0469H296.379C297.258 67.0469 298.038 67.2428 298.717 67.6348C299.4 68.0267 299.929 68.5827 300.303 69.3027C300.676 70.0228 300.863 70.8477 300.863 71.7773V72.2764C300.863 73.2197 300.674 74.0492 300.296 74.7646C299.922 75.4801 299.387 76.0316 298.689 76.4189C297.997 76.8063 297.201 77 296.304 77H293.439ZM295.169 68.4414V75.6191H296.297C297.204 75.6191 297.899 75.3366 298.382 74.7715C298.869 74.2018 299.118 73.3861 299.127 72.3242V71.7705C299.127 70.6904 298.892 69.8656 298.423 69.2959C297.953 68.7262 297.272 68.4414 296.379 68.4414H295.169ZM310.16 72.6523L305.936 71.1006V69.4668L311.842 72.0098V73.3291L305.936 75.8721V74.2383L310.16 72.6523ZM317.447 72.6523L313.223 71.1006V69.4668L319.129 72.0098V73.3291L313.223 75.8721V74.2383L317.447 72.6523ZM156.652 102.283C156.652 103.258 156.484 104.115 156.146 104.854C155.809 105.587 155.326 106.152 154.697 106.549C154.073 106.941 153.353 107.137 152.537 107.137C151.73 107.137 151.01 106.941 150.377 106.549C149.748 106.152 149.26 105.59 148.914 104.86C148.572 104.131 148.399 103.29 148.395 102.338V101.777C148.395 100.807 148.565 99.9499 148.907 99.207C149.254 98.4642 149.739 97.8968 150.363 97.5049C150.992 97.1084 151.712 96.9102 152.523 96.9102C153.335 96.9102 154.052 97.1061 154.677 97.498C155.306 97.8854 155.791 98.446 156.133 99.1797C156.475 99.9089 156.648 100.759 156.652 101.729V102.283ZM154.923 101.764C154.923 100.661 154.713 99.8154 154.294 99.2275C153.879 98.6396 153.289 98.3457 152.523 98.3457C151.776 98.3457 151.19 98.6396 150.767 99.2275C150.347 99.8109 150.133 100.638 150.124 101.709V102.283C150.124 103.377 150.336 104.222 150.76 104.819C151.188 105.416 151.781 105.715 152.537 105.715C153.303 105.715 153.891 105.423 154.301 104.84C154.715 104.257 154.923 103.404 154.923 102.283V101.764ZM164.712 104.71L165.888 99.6035H167.508L165.491 107H164.124L162.538 101.921L160.979 107H159.612L157.589 99.6035H159.209L160.405 104.655L161.923 99.6035H163.174L164.712 104.71ZM170.16 99.6035L170.208 100.458C170.755 99.7972 171.473 99.4668 172.361 99.4668C173.902 99.4668 174.686 100.349 174.713 102.112V107H173.052V102.208C173.052 101.739 172.949 101.392 172.744 101.169C172.544 100.941 172.213 100.827 171.753 100.827C171.083 100.827 170.584 101.13 170.256 101.736V107H168.595V99.6035H170.16ZM179.669 107.137C178.616 107.137 177.762 106.806 177.105 106.146C176.454 105.48 176.128 104.596 176.128 103.493V103.288C176.128 102.55 176.269 101.891 176.552 101.312C176.839 100.729 177.24 100.276 177.755 99.9521C178.27 99.6286 178.844 99.4668 179.478 99.4668C180.485 99.4668 181.262 99.7881 181.809 100.431C182.36 101.073 182.636 101.982 182.636 103.158V103.828H177.803C177.853 104.439 178.056 104.922 178.411 105.277C178.771 105.633 179.222 105.811 179.765 105.811C180.526 105.811 181.146 105.503 181.624 104.888L182.52 105.742C182.223 106.184 181.827 106.528 181.33 106.774C180.838 107.016 180.284 107.137 179.669 107.137ZM179.471 100.8C179.015 100.8 178.646 100.959 178.363 101.278C178.085 101.597 177.908 102.042 177.83 102.611H180.995V102.488C180.959 101.932 180.811 101.513 180.551 101.23C180.291 100.943 179.931 100.8 179.471 100.8ZM187.804 101.121C187.585 101.085 187.359 101.066 187.127 101.066C186.366 101.066 185.853 101.358 185.589 101.941V107H183.928V99.6035H185.514L185.555 100.431C185.956 99.7881 186.512 99.4668 187.223 99.4668C187.46 99.4668 187.656 99.4987 187.811 99.5625L187.804 101.121ZM196.957 102.283C196.957 103.258 196.788 104.115 196.451 104.854C196.114 105.587 195.631 106.152 195.002 106.549C194.378 106.941 193.658 107.137 192.842 107.137C192.035 107.137 191.315 106.941 190.682 106.549C190.053 106.152 189.565 105.59 189.219 104.86C188.877 104.131 188.704 103.29 188.699 102.338V101.777C188.699 100.807 188.87 99.9499 189.212 99.207C189.558 98.4642 190.044 97.8968 190.668 97.5049C191.297 97.1084 192.017 96.9102 192.828 96.9102C193.639 96.9102 194.357 97.1061 194.981 97.498C195.61 97.8854 196.096 98.446 196.438 99.1797C196.779 99.9089 196.952 100.759 196.957 101.729V102.283ZM195.228 101.764C195.228 100.661 195.018 99.8154 194.599 99.2275C194.184 98.6396 193.594 98.3457 192.828 98.3457C192.081 98.3457 191.495 98.6396 191.071 99.2275C190.652 99.8109 190.438 100.638 190.429 101.709V102.283C190.429 103.377 190.641 104.222 191.064 104.819C191.493 105.416 192.085 105.715 192.842 105.715C193.607 105.715 194.195 105.423 194.605 104.84C195.02 104.257 195.228 103.404 195.228 102.283V101.764ZM199.104 107V100.834H197.976V99.6035H199.104V98.9268C199.104 98.1064 199.331 97.473 199.787 97.0264C200.243 96.5798 200.881 96.3564 201.701 96.3564C201.993 96.3564 202.303 96.3975 202.631 96.4795L202.59 97.7783C202.408 97.7419 202.196 97.7236 201.954 97.7236C201.161 97.7236 200.765 98.1315 200.765 98.9473V99.6035H202.269V100.834H200.765V107H199.104ZM203.506 102.953C203.506 101.9 203.647 100.902 203.93 99.959C204.212 99.0111 204.627 98.1657 205.174 97.4229C205.721 96.6755 206.299 96.1514 206.91 95.8506L207.238 96.8213C206.596 97.3089 206.074 98.054 205.673 99.0566C205.276 100.055 205.06 101.199 205.023 102.488L205.017 103.076C205.017 104.457 205.21 105.69 205.598 106.774C205.99 107.854 206.536 108.677 207.238 109.242L206.91 110.165C206.299 109.864 205.718 109.338 205.167 108.586C204.62 107.839 204.205 106.995 203.923 106.057C203.645 105.113 203.506 104.079 203.506 102.953ZM209.501 96.3223L210.349 96.8486C209.934 97.4548 209.72 98.0859 209.706 98.7422V99.7812H208.25V98.8379C208.255 98.4004 208.373 97.9447 208.605 97.4707C208.842 96.9922 209.141 96.6094 209.501 96.3223ZM211.798 96.3223L212.646 96.8486C212.231 97.4548 212.017 98.0859 212.003 98.7422V99.7812H210.547V98.8379C210.551 98.4004 210.67 97.9447 210.902 97.4707C211.139 96.9922 211.438 96.6094 211.798 96.3223ZM220.131 102.81C220.131 104.241 219.862 105.321 219.324 106.05C218.791 106.774 217.978 107.137 216.884 107.137C215.808 107.137 214.997 106.784 214.45 106.077C213.908 105.366 213.63 104.316 213.616 102.926V101.203C213.616 99.7721 213.883 98.6989 214.416 97.9834C214.954 97.2679 215.772 96.9102 216.87 96.9102C217.959 96.9102 218.771 97.2588 219.304 97.9561C219.841 98.6533 220.117 99.6969 220.131 101.087V102.81ZM218.47 100.95C218.47 100.016 218.342 99.3324 218.087 98.8994C217.832 98.4619 217.426 98.2432 216.87 98.2432C216.328 98.2432 215.929 98.4505 215.674 98.8652C215.419 99.2754 215.284 99.918 215.271 100.793V103.049C215.271 103.979 215.4 104.671 215.66 105.127C215.92 105.583 216.328 105.811 216.884 105.811C217.417 105.811 217.811 105.601 218.066 105.182C218.322 104.758 218.456 104.097 218.47 103.199V100.95ZM224.362 102.037L225.771 99.6035H227.616L225.354 103.247L227.691 107H225.859L224.383 104.471L222.913 107H221.067L223.405 103.247L221.149 99.6035H222.981L224.362 102.037ZM233.14 107H231.485V99.0088L229.045 99.8428V98.4414L232.928 97.0127H233.14V107ZM243.291 107H236.599V105.858L239.914 102.242C240.393 101.709 240.732 101.265 240.933 100.909C241.138 100.549 241.24 100.189 241.24 99.8291C241.24 99.3551 241.106 98.9723 240.837 98.6807C240.573 98.389 240.215 98.2432 239.764 98.2432C239.226 98.2432 238.809 98.4072 238.513 98.7354C238.216 99.0635 238.068 99.5124 238.068 100.082H236.407C236.407 99.4759 236.544 98.9313 236.817 98.4482C237.095 97.9606 237.49 97.5824 238 97.3135C238.515 97.0446 239.107 96.9102 239.777 96.9102C240.743 96.9102 241.505 97.154 242.061 97.6416C242.621 98.1247 242.901 98.7946 242.901 99.6514C242.901 100.148 242.76 100.67 242.478 101.217C242.2 101.759 241.742 102.377 241.104 103.069L238.67 105.674H243.291V107ZM246.477 101.265H247.488C247.999 101.26 248.402 101.128 248.698 100.868C248.999 100.608 249.149 100.232 249.149 99.7402C249.149 99.2663 249.024 98.8994 248.773 98.6396C248.527 98.3753 248.149 98.2432 247.639 98.2432C247.192 98.2432 246.825 98.373 246.538 98.6328C246.251 98.888 246.107 99.223 246.107 99.6377H244.446C244.446 99.1273 244.581 98.6624 244.85 98.2432C245.123 97.8239 245.501 97.498 245.984 97.2656C246.472 97.0286 247.017 96.9102 247.618 96.9102C248.612 96.9102 249.391 97.1608 249.956 97.6621C250.526 98.1589 250.811 98.8516 250.811 99.7402C250.811 100.187 250.667 100.608 250.38 101.005C250.097 101.397 249.73 101.693 249.279 101.894C249.826 102.08 250.241 102.374 250.523 102.775C250.811 103.176 250.954 103.655 250.954 104.211C250.954 105.104 250.646 105.815 250.031 106.344C249.421 106.872 248.616 107.137 247.618 107.137C246.661 107.137 245.877 106.882 245.267 106.371C244.656 105.861 244.351 105.182 244.351 104.334H246.012C246.012 104.771 246.158 105.127 246.449 105.4C246.745 105.674 247.142 105.811 247.639 105.811C248.154 105.811 248.559 105.674 248.855 105.4C249.152 105.127 249.3 104.73 249.3 104.211C249.3 103.687 249.145 103.284 248.835 103.001C248.525 102.718 248.065 102.577 247.454 102.577H246.477V101.265ZM253.654 105.25C253.964 105.25 254.203 105.339 254.372 105.517C254.541 105.69 254.625 105.909 254.625 106.173C254.625 106.433 254.541 106.649 254.372 106.822C254.203 106.991 253.964 107.075 253.654 107.075C253.358 107.075 253.123 106.991 252.95 106.822C252.777 106.654 252.69 106.437 252.69 106.173C252.69 105.909 252.775 105.69 252.943 105.517C253.112 105.339 253.349 105.25 253.654 105.25ZM257.564 105.25C257.874 105.25 258.114 105.339 258.282 105.517C258.451 105.69 258.535 105.909 258.535 106.173C258.535 106.433 258.451 106.649 258.282 106.822C258.114 106.991 257.874 107.075 257.564 107.075C257.268 107.075 257.034 106.991 256.86 106.822C256.687 106.654 256.601 106.437 256.601 106.173C256.601 105.909 256.685 105.69 256.854 105.517C257.022 105.339 257.259 105.25 257.564 105.25ZM261.475 105.25C261.785 105.25 262.024 105.339 262.192 105.517C262.361 105.69 262.445 105.909 262.445 106.173C262.445 106.433 262.361 106.649 262.192 106.822C262.024 106.991 261.785 107.075 261.475 107.075C261.178 107.075 260.944 106.991 260.771 106.822C260.597 106.654 260.511 106.437 260.511 106.173C260.511 105.909 260.595 105.69 260.764 105.517C260.932 105.339 261.169 105.25 261.475 105.25ZM264.51 107V97.0469H267.449C268.329 97.0469 269.108 97.2428 269.787 97.6348C270.471 98.0267 270.999 98.5827 271.373 99.3027C271.747 100.023 271.934 100.848 271.934 101.777V102.276C271.934 103.22 271.744 104.049 271.366 104.765C270.993 105.48 270.457 106.032 269.76 106.419C269.067 106.806 268.272 107 267.374 107H264.51ZM266.239 98.4414V105.619H267.367C268.274 105.619 268.969 105.337 269.452 104.771C269.94 104.202 270.188 103.386 270.197 102.324V101.771C270.197 100.69 269.963 99.8656 269.493 99.2959C269.024 98.7262 268.342 98.4414 267.449 98.4414H266.239ZM279.474 102.557H275.386V105.619H280.164V107H273.656V97.0469H280.116V98.4414H275.386V101.189H279.474V102.557ZM287.308 102.782H283.302V107H281.572V97.0469H287.896V98.4414H283.302V101.401H287.308V102.782ZM292.312 103.062C292.312 104.074 292.173 105.052 291.895 105.995C291.617 106.934 291.195 107.788 290.63 108.559C290.065 109.333 289.475 109.869 288.859 110.165L288.531 109.242C289.215 108.714 289.755 107.907 290.151 106.822C290.552 105.733 290.753 104.491 290.753 103.097V102.939C290.753 101.673 290.58 100.52 290.233 99.4805C289.887 98.4368 289.39 97.6006 288.743 96.9717L288.531 96.7803L288.859 95.8506C289.443 96.1331 290.008 96.6344 290.555 97.3545C291.102 98.0745 291.521 98.8812 291.812 99.7744C292.104 100.663 292.268 101.581 292.305 102.529L292.312 103.062ZM295.046 105.25C295.356 105.25 295.595 105.339 295.764 105.517C295.932 105.69 296.017 105.909 296.017 106.173C296.017 106.433 295.932 106.649 295.764 106.822C295.595 106.991 295.356 107.075 295.046 107.075C294.75 107.075 294.515 106.991 294.342 106.822C294.169 106.654 294.082 106.437 294.082 106.173C294.082 105.909 294.166 105.69 294.335 105.517C294.504 105.339 294.741 105.25 295.046 105.25ZM295.046 99.4463C295.356 99.4463 295.595 99.5352 295.764 99.7129C295.932 99.8861 296.017 100.105 296.017 100.369C296.017 100.629 295.932 100.845 295.764 101.019C295.595 101.187 295.356 101.271 295.046 101.271C294.75 101.271 294.515 101.187 294.342 101.019C294.169 100.85 294.082 100.633 294.082 100.369C294.082 100.105 294.166 99.8861 294.335 99.7129C294.504 99.5352 294.741 99.4463 295.046 99.4463ZM307.631 102.81C307.631 104.241 307.362 105.321 306.824 106.05C306.291 106.774 305.478 107.137 304.384 107.137C303.308 107.137 302.497 106.784 301.95 106.077C301.408 105.366 301.13 104.316 301.116 102.926V101.203C301.116 99.7721 301.383 98.6989 301.916 97.9834C302.454 97.2679 303.272 96.9102 304.37 96.9102C305.459 96.9102 306.271 97.2588 306.804 97.9561C307.341 98.6533 307.617 99.6969 307.631 101.087V102.81ZM305.97 100.95C305.97 100.016 305.842 99.3324 305.587 98.8994C305.332 98.4619 304.926 98.2432 304.37 98.2432C303.828 98.2432 303.429 98.4505 303.174 98.8652C302.919 99.2754 302.784 99.918 302.771 100.793V103.049C302.771 103.979 302.9 104.671 303.16 105.127C303.42 105.583 303.828 105.811 304.384 105.811C304.917 105.811 305.311 105.601 305.566 105.182C305.822 104.758 305.956 104.097 305.97 103.199V100.95ZM311.862 102.037L313.271 99.6035H315.116L312.854 103.247L315.191 107H313.359L311.883 104.471L310.413 107H308.567L310.905 103.247L308.649 99.6035H310.481L311.862 102.037ZM322.226 102.557H318.138V105.619H322.916V107H316.408V97.0469H322.868V98.4414H318.138V101.189H322.226V102.557ZM330.06 102.782H326.054V107H324.324V97.0469H330.647V98.4414H326.054V101.401H330.06V102.782ZM339.616 103.76C339.516 104.822 339.124 105.651 338.44 106.248C337.757 106.84 336.848 107.137 335.713 107.137C334.92 107.137 334.22 106.95 333.614 106.576C333.013 106.198 332.548 105.662 332.22 104.97C331.892 104.277 331.721 103.473 331.707 102.557V101.627C331.707 100.688 331.873 99.861 332.206 99.1455C332.539 98.43 333.015 97.8786 333.635 97.4912C334.259 97.1038 334.979 96.9102 335.795 96.9102C336.893 96.9102 337.777 97.2087 338.447 97.8057C339.117 98.4027 339.507 99.2458 339.616 100.335H337.894C337.812 99.6195 337.602 99.1045 337.265 98.79C336.932 98.471 336.442 98.3115 335.795 98.3115C335.043 98.3115 334.464 98.5872 334.059 99.1387C333.658 99.6855 333.452 100.49 333.443 101.552V102.434C333.443 103.509 333.635 104.329 334.018 104.895C334.405 105.46 334.97 105.742 335.713 105.742C336.392 105.742 336.902 105.59 337.244 105.284C337.586 104.979 337.802 104.471 337.894 103.76H339.616ZM341.168 107V97.0469H344.107C344.987 97.0469 345.766 97.2428 346.445 97.6348C347.129 98.0267 347.658 98.5827 348.031 99.3027C348.405 100.023 348.592 100.848 348.592 101.777V102.276C348.592 103.22 348.403 104.049 348.024 104.765C347.651 105.48 347.115 106.032 346.418 106.419C345.725 106.806 344.93 107 344.032 107H341.168ZM342.897 98.4414V105.619H344.025C344.932 105.619 345.627 105.337 346.11 104.771C346.598 104.202 346.846 103.386 346.855 102.324V101.771C346.855 100.69 346.621 99.8656 346.151 99.2959C345.682 98.7262 345.001 98.4414 344.107 98.4414H342.897Z" fill="#454B50"/>
<path d="M73.6582 284.441H70.5547V293H68.8389V284.441H65.7627V283.047H73.6582V284.441ZM78.2314 287.121C78.0127 287.085 77.7871 287.066 77.5547 287.066C76.7936 287.066 76.2809 287.358 76.0166 287.941V293H74.3555V285.604H75.9414L75.9824 286.431C76.3835 285.788 76.9395 285.467 77.6504 285.467C77.8874 285.467 78.0833 285.499 78.2383 285.562L78.2314 287.121ZM83.4951 293C83.4222 292.859 83.3584 292.629 83.3037 292.31C82.7751 292.861 82.1279 293.137 81.3623 293.137C80.6195 293.137 80.0133 292.925 79.5439 292.501C79.0745 292.077 78.8398 291.553 78.8398 290.929C78.8398 290.14 79.1315 289.536 79.7148 289.117C80.3027 288.693 81.1413 288.481 82.2305 288.481H83.249V287.996C83.249 287.613 83.1419 287.308 82.9277 287.08C82.7135 286.848 82.3877 286.731 81.9502 286.731C81.5719 286.731 81.262 286.827 81.0205 287.019C80.779 287.205 80.6582 287.445 80.6582 287.736H78.9971C78.9971 287.331 79.1315 286.952 79.4004 286.602C79.6693 286.246 80.0339 285.968 80.4941 285.768C80.959 285.567 81.4762 285.467 82.0459 285.467C82.9118 285.467 83.6022 285.686 84.1172 286.123C84.6322 286.556 84.8965 287.167 84.9102 287.955V291.291C84.9102 291.956 85.0036 292.487 85.1904 292.884V293H83.4951ZM81.6699 291.804C81.998 291.804 82.3057 291.724 82.5928 291.564C82.8844 291.405 83.1032 291.191 83.249 290.922V289.527H82.3535C81.7383 289.527 81.2757 289.634 80.9658 289.849C80.6559 290.063 80.501 290.366 80.501 290.758C80.501 291.077 80.6058 291.332 80.8154 291.523C81.0296 291.71 81.3145 291.804 81.6699 291.804ZM86.3389 289.247C86.3389 288.108 86.6032 287.194 87.1318 286.506C87.6605 285.813 88.3691 285.467 89.2578 285.467C90.0417 285.467 90.6751 285.74 91.1582 286.287V282.5H92.8193V293H91.3154L91.2334 292.234C90.7367 292.836 90.0736 293.137 89.2441 293.137C88.3783 293.137 87.6764 292.788 87.1387 292.091C86.6055 291.394 86.3389 290.446 86.3389 289.247ZM88 289.391C88 290.143 88.1436 290.73 88.4307 291.154C88.7223 291.574 89.1348 291.783 89.668 291.783C90.347 291.783 90.8438 291.48 91.1582 290.874V287.716C90.8529 287.123 90.3607 286.827 89.6816 286.827C89.1439 286.827 88.7292 287.041 88.4375 287.47C88.1458 287.894 88 288.534 88 289.391ZM97.8096 293.137C96.7568 293.137 95.9023 292.806 95.2461 292.146C94.5944 291.48 94.2686 290.596 94.2686 289.493V289.288C94.2686 288.55 94.4098 287.891 94.6924 287.312C94.9795 286.729 95.3805 286.276 95.8955 285.952C96.4105 285.629 96.9847 285.467 97.6182 285.467C98.6253 285.467 99.4023 285.788 99.9492 286.431C100.501 287.073 100.776 287.982 100.776 289.158V289.828H95.9434C95.9935 290.439 96.1963 290.922 96.5518 291.277C96.9118 291.633 97.363 291.811 97.9053 291.811C98.6663 291.811 99.2861 291.503 99.7646 290.888L100.66 291.742C100.364 292.184 99.9674 292.528 99.4707 292.774C98.9785 293.016 98.4248 293.137 97.8096 293.137ZM97.6113 286.8C97.1556 286.8 96.7865 286.959 96.5039 287.278C96.2259 287.597 96.0482 288.042 95.9707 288.611H99.1357V288.488C99.0993 287.932 98.9512 287.513 98.6914 287.23C98.4316 286.943 98.0716 286.8 97.6113 286.8ZM109.424 284.441H106.32V293H104.604V284.441H101.528V283.047H109.424V284.441ZM113.997 287.121C113.778 287.085 113.553 287.066 113.32 287.066C112.559 287.066 112.047 287.358 111.782 287.941V293H110.121V285.604H111.707L111.748 286.431C112.149 285.788 112.705 285.467 113.416 285.467C113.653 285.467 113.849 285.499 114.004 285.562L113.997 287.121ZM119.527 292.275C119.04 292.85 118.347 293.137 117.449 293.137C116.647 293.137 116.039 292.902 115.624 292.433C115.214 291.963 115.009 291.284 115.009 290.396V285.604H116.67V290.375C116.67 291.314 117.06 291.783 117.839 291.783C118.646 291.783 119.19 291.494 119.473 290.915V285.604H121.134V293H119.568L119.527 292.275ZM126.972 290.99C126.972 290.694 126.849 290.468 126.603 290.313C126.361 290.159 125.958 290.022 125.393 289.903C124.827 289.785 124.356 289.634 123.978 289.452C123.148 289.051 122.733 288.47 122.733 287.709C122.733 287.071 123.002 286.538 123.54 286.109C124.078 285.681 124.761 285.467 125.591 285.467C126.475 285.467 127.188 285.686 127.73 286.123C128.277 286.561 128.551 287.128 128.551 287.825H126.89C126.89 287.506 126.771 287.242 126.534 287.032C126.297 286.818 125.983 286.711 125.591 286.711C125.226 286.711 124.928 286.795 124.695 286.964C124.467 287.132 124.354 287.358 124.354 287.641C124.354 287.896 124.461 288.094 124.675 288.235C124.889 288.377 125.322 288.52 125.974 288.666C126.625 288.807 127.136 288.978 127.505 289.179C127.879 289.375 128.154 289.612 128.332 289.89C128.514 290.168 128.605 290.505 128.605 290.901C128.605 291.567 128.33 292.107 127.778 292.521C127.227 292.932 126.505 293.137 125.611 293.137C125.005 293.137 124.465 293.027 123.991 292.809C123.517 292.59 123.148 292.289 122.884 291.906C122.619 291.523 122.487 291.111 122.487 290.669H124.101C124.123 291.061 124.271 291.364 124.545 291.578C124.818 291.788 125.181 291.893 125.632 291.893C126.069 291.893 126.402 291.811 126.63 291.646C126.858 291.478 126.972 291.259 126.972 290.99ZM132.14 283.806V285.604H133.445V286.834H132.14V290.963C132.14 291.245 132.194 291.451 132.304 291.578C132.418 291.701 132.618 291.763 132.905 291.763C133.097 291.763 133.29 291.74 133.486 291.694V292.979C133.108 293.084 132.743 293.137 132.393 293.137C131.117 293.137 130.479 292.433 130.479 291.024V286.834H129.262V285.604H130.479V283.806H132.14ZM144.185 288.557H140.097V291.619H144.875V293H138.367V283.047H144.827V284.441H140.097V287.189H144.185V288.557ZM146.283 293V283.047H149.694C150.82 283.047 151.677 283.272 152.265 283.724C152.853 284.175 153.146 284.847 153.146 285.74C153.146 286.196 153.023 286.606 152.777 286.971C152.531 287.335 152.171 287.618 151.697 287.818C152.235 287.964 152.65 288.24 152.941 288.646C153.238 289.047 153.386 289.53 153.386 290.095C153.386 291.029 153.085 291.747 152.483 292.248C151.886 292.749 151.03 293 149.913 293H146.283ZM148.013 288.509V291.619H149.934C150.476 291.619 150.9 291.485 151.205 291.216C151.51 290.947 151.663 290.573 151.663 290.095C151.663 289.06 151.134 288.532 150.077 288.509H148.013ZM148.013 287.237H149.708C150.246 287.237 150.665 287.117 150.966 286.875C151.271 286.629 151.424 286.283 151.424 285.836C151.424 285.344 151.283 284.988 151 284.77C150.722 284.551 150.287 284.441 149.694 284.441H148.013V287.237ZM156.845 291.619H161.363V293H155.115V283.047H156.845V291.619ZM166.176 293V283.047H169.115C169.995 283.047 170.774 283.243 171.453 283.635C172.137 284.027 172.665 284.583 173.039 285.303C173.413 286.023 173.6 286.848 173.6 287.777V288.276C173.6 289.22 173.41 290.049 173.032 290.765C172.659 291.48 172.123 292.032 171.426 292.419C170.733 292.806 169.938 293 169.04 293H166.176ZM167.905 284.441V291.619H169.033C169.94 291.619 170.635 291.337 171.118 290.771C171.606 290.202 171.854 289.386 171.863 288.324V287.771C171.863 286.69 171.629 285.866 171.159 285.296C170.69 284.726 170.008 284.441 169.115 284.441H167.905ZM174.851 289.233C174.851 288.509 174.994 287.857 175.281 287.278C175.568 286.695 175.972 286.248 176.491 285.938C177.011 285.624 177.608 285.467 178.282 285.467C179.28 285.467 180.089 285.788 180.709 286.431C181.333 287.073 181.671 287.925 181.721 288.987L181.728 289.377C181.728 290.106 181.586 290.758 181.304 291.332C181.026 291.906 180.625 292.351 180.101 292.665C179.581 292.979 178.979 293.137 178.296 293.137C177.252 293.137 176.416 292.79 175.787 292.098C175.163 291.4 174.851 290.473 174.851 289.315V289.233ZM176.512 289.377C176.512 290.138 176.669 290.735 176.983 291.168C177.298 291.596 177.735 291.811 178.296 291.811C178.856 291.811 179.292 291.592 179.602 291.154C179.916 290.717 180.073 290.076 180.073 289.233C180.073 288.486 179.911 287.894 179.588 287.456C179.269 287.019 178.834 286.8 178.282 286.8C177.74 286.8 177.309 287.016 176.99 287.449C176.671 287.878 176.512 288.52 176.512 289.377ZM186.171 291.811C186.586 291.811 186.93 291.69 187.203 291.448C187.477 291.207 187.622 290.908 187.641 290.553H189.206C189.188 291.013 189.044 291.444 188.775 291.845C188.507 292.241 188.142 292.556 187.682 292.788C187.221 293.021 186.725 293.137 186.191 293.137C185.157 293.137 184.337 292.802 183.73 292.132C183.124 291.462 182.821 290.537 182.821 289.356V289.186C182.821 288.06 183.122 287.16 183.724 286.485C184.325 285.806 185.146 285.467 186.185 285.467C187.064 285.467 187.78 285.724 188.331 286.239C188.887 286.75 189.179 287.422 189.206 288.256H187.641C187.622 287.832 187.477 287.483 187.203 287.21C186.934 286.937 186.59 286.8 186.171 286.8C185.633 286.8 185.218 286.996 184.927 287.388C184.635 287.775 184.487 288.365 184.482 289.158V289.425C184.482 290.227 184.626 290.826 184.913 291.223C185.205 291.615 185.624 291.811 186.171 291.811ZM194.941 292.275C194.454 292.85 193.761 293.137 192.863 293.137C192.061 293.137 191.453 292.902 191.038 292.433C190.628 291.963 190.423 291.284 190.423 290.396V285.604H192.084V290.375C192.084 291.314 192.474 291.783 193.253 291.783C194.06 291.783 194.604 291.494 194.887 290.915V285.604H196.548V293H194.982L194.941 292.275ZM199.802 285.604L199.85 286.376C200.369 285.77 201.08 285.467 201.982 285.467C202.971 285.467 203.648 285.845 204.013 286.602C204.55 285.845 205.307 285.467 206.282 285.467C207.098 285.467 207.704 285.692 208.101 286.144C208.502 286.595 208.707 287.26 208.716 288.14V293H207.055V288.188C207.055 287.718 206.952 287.374 206.747 287.155C206.542 286.937 206.202 286.827 205.729 286.827C205.35 286.827 205.04 286.93 204.799 287.135C204.562 287.335 204.396 287.6 204.3 287.928L204.307 293H202.646V288.133C202.623 287.262 202.178 286.827 201.312 286.827C200.647 286.827 200.175 287.098 199.897 287.641V293H198.236V285.604H199.802ZM211.963 285.604L212.011 286.458C212.558 285.797 213.275 285.467 214.164 285.467C215.704 285.467 216.488 286.349 216.516 288.112V293H214.854V288.208C214.854 287.739 214.752 287.392 214.547 287.169C214.346 286.941 214.016 286.827 213.556 286.827C212.886 286.827 212.387 287.13 212.059 287.736V293H210.397V285.604H211.963ZM221.472 293.137C220.419 293.137 219.564 292.806 218.908 292.146C218.257 291.48 217.931 290.596 217.931 289.493V289.288C217.931 288.55 218.072 287.891 218.354 287.312C218.642 286.729 219.043 286.276 219.558 285.952C220.073 285.629 220.647 285.467 221.28 285.467C222.287 285.467 223.064 285.788 223.611 286.431C224.163 287.073 224.438 287.982 224.438 289.158V289.828H219.605C219.656 290.439 219.858 290.922 220.214 291.277C220.574 291.633 221.025 291.811 221.567 291.811C222.328 291.811 222.948 291.503 223.427 290.888L224.322 291.742C224.026 292.184 223.63 292.528 223.133 292.774C222.641 293.016 222.087 293.137 221.472 293.137ZM221.273 286.8C220.818 286.8 220.449 286.959 220.166 287.278C219.888 287.597 219.71 288.042 219.633 288.611H222.798V288.488C222.761 287.932 222.613 287.513 222.354 287.23C222.094 286.943 221.734 286.8 221.273 286.8ZM227.815 283.806V285.604H229.121V286.834H227.815V290.963C227.815 291.245 227.87 291.451 227.979 291.578C228.093 291.701 228.294 291.763 228.581 291.763C228.772 291.763 228.966 291.74 229.162 291.694V292.979C228.784 293.084 228.419 293.137 228.068 293.137C226.792 293.137 226.154 292.433 226.154 291.024V286.834H224.938V285.604H226.154V283.806H227.815ZM45.4736 303.687L49.5068 305.218V306.879L43.7852 304.329V303.01L49.5068 300.467V302.128L45.4736 303.687ZM52.5967 303.687L56.6299 305.218V306.879L50.9082 304.329V303.01L56.6299 300.467V302.128L52.5967 303.687ZM63.8281 306.619H68.3467V308H62.0986V298.047H63.8281V306.619ZM69.2012 304.233C69.2012 303.509 69.3447 302.857 69.6318 302.278C69.9189 301.695 70.3223 301.248 70.8418 300.938C71.3613 300.624 71.9583 300.467 72.6328 300.467C73.6309 300.467 74.4398 300.788 75.0596 301.431C75.6839 302.073 76.0212 302.925 76.0713 303.987L76.0781 304.377C76.0781 305.106 75.9368 305.758 75.6543 306.332C75.3763 306.906 74.9753 307.351 74.4512 307.665C73.9316 307.979 73.3301 308.137 72.6465 308.137C71.6029 308.137 70.7666 307.79 70.1377 307.098C69.5133 306.4 69.2012 305.473 69.2012 304.315V304.233ZM70.8623 304.377C70.8623 305.138 71.0195 305.735 71.334 306.168C71.6484 306.596 72.0859 306.811 72.6465 306.811C73.207 306.811 73.6423 306.592 73.9521 306.154C74.2666 305.717 74.4238 305.076 74.4238 304.233C74.4238 303.486 74.262 302.894 73.9385 302.456C73.6195 302.019 73.1842 301.8 72.6328 301.8C72.0905 301.8 71.6598 302.016 71.3408 302.449C71.0218 302.878 70.8623 303.52 70.8623 304.377ZM77.1719 304.247C77.1719 303.108 77.4362 302.194 77.9648 301.506C78.4935 300.813 79.2021 300.467 80.0908 300.467C80.8747 300.467 81.5081 300.74 81.9912 301.287V297.5H83.6523V308H82.1484L82.0664 307.234C81.5697 307.836 80.9066 308.137 80.0771 308.137C79.2113 308.137 78.5094 307.788 77.9717 307.091C77.4385 306.394 77.1719 305.446 77.1719 304.247ZM78.833 304.391C78.833 305.143 78.9766 305.73 79.2637 306.154C79.5553 306.574 79.9678 306.783 80.501 306.783C81.18 306.783 81.6768 306.48 81.9912 305.874V302.716C81.6859 302.123 81.1937 301.827 80.5146 301.827C79.9769 301.827 79.5622 302.041 79.2705 302.47C78.9788 302.894 78.833 303.534 78.833 304.391ZM85.0947 304.247C85.0947 303.099 85.3636 302.183 85.9014 301.499C86.4437 300.811 87.1615 300.467 88.0547 300.467C88.8978 300.467 89.5609 300.761 90.0439 301.349L90.1191 300.604H91.6162V307.774C91.6162 308.745 91.3132 309.511 90.707 310.071C90.1055 310.632 89.292 310.912 88.2666 310.912C87.7243 310.912 87.1934 310.798 86.6738 310.57C86.1589 310.347 85.7669 310.053 85.498 309.688L86.2842 308.69C86.7946 309.297 87.4235 309.6 88.1709 309.6C88.7223 309.6 89.1576 309.449 89.4766 309.148C89.7956 308.852 89.9551 308.415 89.9551 307.836V307.337C89.4766 307.87 88.8385 308.137 88.041 308.137C87.1751 308.137 86.4665 307.793 85.915 307.104C85.3682 306.416 85.0947 305.464 85.0947 304.247ZM86.749 304.391C86.749 305.133 86.8994 305.719 87.2002 306.147C87.5055 306.571 87.9271 306.783 88.4648 306.783C89.1348 306.783 89.6315 306.496 89.9551 305.922V302.668C89.6406 302.107 89.1484 301.827 88.4785 301.827C87.9316 301.827 87.5055 302.044 87.2002 302.477C86.8994 302.91 86.749 303.548 86.749 304.391ZM96.5859 308.137C95.5332 308.137 94.6787 307.806 94.0225 307.146C93.3708 306.48 93.0449 305.596 93.0449 304.493V304.288C93.0449 303.55 93.1862 302.891 93.4688 302.312C93.7559 301.729 94.1569 301.276 94.6719 300.952C95.1868 300.629 95.7611 300.467 96.3945 300.467C97.4017 300.467 98.1787 300.788 98.7256 301.431C99.277 302.073 99.5527 302.982 99.5527 304.158V304.828H94.7197C94.7699 305.439 94.9727 305.922 95.3281 306.277C95.6882 306.633 96.1393 306.811 96.6816 306.811C97.4427 306.811 98.0625 306.503 98.541 305.888L99.4365 306.742C99.1403 307.184 98.7438 307.528 98.2471 307.774C97.7549 308.016 97.2012 308.137 96.5859 308.137ZM96.3877 301.8C95.932 301.8 95.5628 301.959 95.2803 302.278C95.0023 302.597 94.8245 303.042 94.7471 303.611H97.9121V303.488C97.8757 302.932 97.7275 302.513 97.4678 302.23C97.208 301.943 96.848 301.8 96.3877 301.8ZM100.537 304.247C100.537 303.108 100.801 302.194 101.33 301.506C101.859 300.813 102.567 300.467 103.456 300.467C104.24 300.467 104.873 300.74 105.356 301.287V297.5H107.018V308H105.514L105.432 307.234C104.935 307.836 104.272 308.137 103.442 308.137C102.576 308.137 101.875 307.788 101.337 307.091C100.804 306.394 100.537 305.446 100.537 304.247ZM102.198 304.391C102.198 305.143 102.342 305.73 102.629 306.154C102.921 306.574 103.333 306.783 103.866 306.783C104.545 306.783 105.042 306.48 105.356 305.874V302.716C105.051 302.123 104.559 301.827 103.88 301.827C103.342 301.827 102.927 302.041 102.636 302.47C102.344 302.894 102.198 303.534 102.198 304.391ZM116.656 308C116.583 307.859 116.52 307.629 116.465 307.31C115.936 307.861 115.289 308.137 114.523 308.137C113.781 308.137 113.174 307.925 112.705 307.501C112.236 307.077 112.001 306.553 112.001 305.929C112.001 305.14 112.293 304.536 112.876 304.117C113.464 303.693 114.302 303.481 115.392 303.481H116.41V302.996C116.41 302.613 116.303 302.308 116.089 302.08C115.875 301.848 115.549 301.731 115.111 301.731C114.733 301.731 114.423 301.827 114.182 302.019C113.94 302.205 113.819 302.445 113.819 302.736H112.158C112.158 302.331 112.293 301.952 112.562 301.602C112.83 301.246 113.195 300.968 113.655 300.768C114.12 300.567 114.637 300.467 115.207 300.467C116.073 300.467 116.763 300.686 117.278 301.123C117.793 301.556 118.058 302.167 118.071 302.955V306.291C118.071 306.956 118.165 307.487 118.352 307.884V308H116.656ZM114.831 306.804C115.159 306.804 115.467 306.724 115.754 306.564C116.046 306.405 116.264 306.191 116.41 305.922V304.527H115.515C114.899 304.527 114.437 304.634 114.127 304.849C113.817 305.063 113.662 305.366 113.662 305.758C113.662 306.077 113.767 306.332 113.977 306.523C114.191 306.71 114.476 306.804 114.831 306.804ZM121.893 298.806V300.604H123.198V301.834H121.893V305.963C121.893 306.245 121.947 306.451 122.057 306.578C122.171 306.701 122.371 306.763 122.658 306.763C122.85 306.763 123.043 306.74 123.239 306.694V307.979C122.861 308.084 122.496 308.137 122.146 308.137C120.869 308.137 120.231 307.433 120.231 306.024V301.834H119.015V300.604H120.231V298.806H121.893ZM131.777 304.165H129.85V308H128.12V298.047H131.62C132.769 298.047 133.655 298.304 134.279 298.819C134.904 299.334 135.216 300.079 135.216 301.055C135.216 301.72 135.054 302.278 134.73 302.729C134.411 303.176 133.965 303.52 133.391 303.762L135.626 307.911V308H133.773L131.777 304.165ZM129.85 302.777H131.627C132.21 302.777 132.666 302.632 132.994 302.34C133.322 302.044 133.486 301.64 133.486 301.13C133.486 300.597 133.334 300.184 133.028 299.893C132.728 299.601 132.276 299.451 131.675 299.441H129.85V302.777ZM139.953 308.137C138.9 308.137 138.046 307.806 137.39 307.146C136.738 306.48 136.412 305.596 136.412 304.493V304.288C136.412 303.55 136.553 302.891 136.836 302.312C137.123 301.729 137.524 301.276 138.039 300.952C138.554 300.629 139.128 300.467 139.762 300.467C140.769 300.467 141.546 300.788 142.093 301.431C142.644 302.073 142.92 302.982 142.92 304.158V304.828H138.087C138.137 305.439 138.34 305.922 138.695 306.277C139.055 306.633 139.507 306.811 140.049 306.811C140.81 306.811 141.43 306.503 141.908 305.888L142.804 306.742C142.507 307.184 142.111 307.528 141.614 307.774C141.122 308.016 140.568 308.137 139.953 308.137ZM139.755 301.8C139.299 301.8 138.93 301.959 138.647 302.278C138.369 302.597 138.192 303.042 138.114 303.611H141.279V303.488C141.243 302.932 141.095 302.513 140.835 302.23C140.575 301.943 140.215 301.8 139.755 301.8ZM143.925 304.247C143.925 303.099 144.194 302.183 144.731 301.499C145.274 300.811 145.992 300.467 146.885 300.467C147.728 300.467 148.391 300.761 148.874 301.349L148.949 300.604H150.446V307.774C150.446 308.745 150.143 309.511 149.537 310.071C148.936 310.632 148.122 310.912 147.097 310.912C146.554 310.912 146.023 310.798 145.504 310.57C144.989 310.347 144.597 310.053 144.328 309.688L145.114 308.69C145.625 309.297 146.254 309.6 147.001 309.6C147.552 309.6 147.988 309.449 148.307 309.148C148.626 308.852 148.785 308.415 148.785 307.836V307.337C148.307 307.87 147.669 308.137 146.871 308.137C146.005 308.137 145.297 307.793 144.745 307.104C144.198 306.416 143.925 305.464 143.925 304.247ZM145.579 304.391C145.579 305.133 145.729 305.719 146.03 306.147C146.336 306.571 146.757 306.783 147.295 306.783C147.965 306.783 148.462 306.496 148.785 305.922V302.668C148.471 302.107 147.979 301.827 147.309 301.827C146.762 301.827 146.336 302.044 146.03 302.477C145.729 302.91 145.579 303.548 145.579 304.391ZM153.926 308H152.265V300.604H153.926V308ZM152.162 298.683C152.162 298.427 152.242 298.215 152.401 298.047C152.565 297.878 152.798 297.794 153.099 297.794C153.399 297.794 153.632 297.878 153.796 298.047C153.96 298.215 154.042 298.427 154.042 298.683C154.042 298.933 153.96 299.143 153.796 299.312C153.632 299.476 153.399 299.558 153.099 299.558C152.798 299.558 152.565 299.476 152.401 299.312C152.242 299.143 152.162 298.933 152.162 298.683ZM159.887 305.99C159.887 305.694 159.764 305.468 159.518 305.313C159.276 305.159 158.873 305.022 158.308 304.903C157.743 304.785 157.271 304.634 156.893 304.452C156.063 304.051 155.648 303.47 155.648 302.709C155.648 302.071 155.917 301.538 156.455 301.109C156.993 300.681 157.676 300.467 158.506 300.467C159.39 300.467 160.103 300.686 160.646 301.123C161.192 301.561 161.466 302.128 161.466 302.825H159.805C159.805 302.506 159.686 302.242 159.449 302.032C159.212 301.818 158.898 301.711 158.506 301.711C158.141 301.711 157.843 301.795 157.61 301.964C157.382 302.132 157.269 302.358 157.269 302.641C157.269 302.896 157.376 303.094 157.59 303.235C157.804 303.377 158.237 303.52 158.889 303.666C159.54 303.807 160.051 303.978 160.42 304.179C160.794 304.375 161.069 304.612 161.247 304.89C161.429 305.168 161.521 305.505 161.521 305.901C161.521 306.567 161.245 307.107 160.693 307.521C160.142 307.932 159.42 308.137 158.526 308.137C157.92 308.137 157.38 308.027 156.906 307.809C156.432 307.59 156.063 307.289 155.799 306.906C155.535 306.523 155.402 306.111 155.402 305.669H157.016C157.038 306.061 157.187 306.364 157.46 306.578C157.733 306.788 158.096 306.893 158.547 306.893C158.984 306.893 159.317 306.811 159.545 306.646C159.773 306.478 159.887 306.259 159.887 305.99ZM165.055 298.806V300.604H166.36V301.834H165.055V305.963C165.055 306.245 165.109 306.451 165.219 306.578C165.333 306.701 165.533 306.763 165.82 306.763C166.012 306.763 166.205 306.74 166.401 306.694V307.979C166.023 308.084 165.659 308.137 165.308 308.137C164.032 308.137 163.394 307.433 163.394 306.024V301.834H162.177V300.604H163.394V298.806H165.055ZM171.508 302.121C171.289 302.085 171.063 302.066 170.831 302.066C170.07 302.066 169.557 302.358 169.293 302.941V308H167.632V300.604H169.218L169.259 301.431C169.66 300.788 170.216 300.467 170.927 300.467C171.164 300.467 171.36 300.499 171.515 300.562L171.508 302.121ZM175.268 305.621L176.771 300.604H178.542L175.603 309.121C175.151 310.365 174.386 310.987 173.306 310.987C173.064 310.987 172.798 310.946 172.506 310.864V309.579L172.82 309.6C173.24 309.6 173.554 309.522 173.764 309.367C173.978 309.217 174.146 308.962 174.27 308.602L174.509 307.966L171.911 300.604H173.702L175.268 305.621ZM189.37 303.81C189.37 305.241 189.101 306.321 188.563 307.05C188.03 307.774 187.217 308.137 186.123 308.137C185.048 308.137 184.236 307.784 183.689 307.077C183.147 306.366 182.869 305.316 182.855 303.926V302.203C182.855 300.772 183.122 299.699 183.655 298.983C184.193 298.268 185.011 297.91 186.109 297.91C187.199 297.91 188.01 298.259 188.543 298.956C189.081 299.653 189.356 300.697 189.37 302.087V303.81ZM187.709 301.95C187.709 301.016 187.581 300.332 187.326 299.899C187.071 299.462 186.665 299.243 186.109 299.243C185.567 299.243 185.168 299.451 184.913 299.865C184.658 300.275 184.523 300.918 184.51 301.793V304.049C184.51 304.979 184.64 305.671 184.899 306.127C185.159 306.583 185.567 306.811 186.123 306.811C186.656 306.811 187.05 306.601 187.306 306.182C187.561 305.758 187.695 305.097 187.709 304.199V301.95ZM193.602 303.037L195.01 300.604H196.855L194.593 304.247L196.931 308H195.099L193.622 305.471L192.152 308H190.307L192.645 304.247L190.389 300.604H192.221L193.602 303.037ZM203.719 305.683H199.863L199.057 308H197.259L201.019 298.047H202.57L206.337 308H204.532L203.719 305.683ZM200.349 304.288H203.233L201.791 300.159L200.349 304.288ZM207.472 308V298.047H210.883C212.008 298.047 212.865 298.272 213.453 298.724C214.041 299.175 214.335 299.847 214.335 300.74C214.335 301.196 214.212 301.606 213.966 301.971C213.72 302.335 213.36 302.618 212.886 302.818C213.424 302.964 213.838 303.24 214.13 303.646C214.426 304.047 214.574 304.53 214.574 305.095C214.574 306.029 214.273 306.747 213.672 307.248C213.075 307.749 212.218 308 211.102 308H207.472ZM209.201 303.509V306.619H211.122C211.664 306.619 212.088 306.485 212.394 306.216C212.699 305.947 212.852 305.573 212.852 305.095C212.852 304.06 212.323 303.532 211.266 303.509H209.201ZM209.201 302.237H210.896C211.434 302.237 211.854 302.117 212.154 301.875C212.46 301.629 212.612 301.283 212.612 300.836C212.612 300.344 212.471 299.988 212.188 299.77C211.91 299.551 211.475 299.441 210.883 299.441H209.201V302.237ZM223.898 304.76C223.798 305.822 223.406 306.651 222.723 307.248C222.039 307.84 221.13 308.137 219.995 308.137C219.202 308.137 218.503 307.95 217.896 307.576C217.295 307.198 216.83 306.662 216.502 305.97C216.174 305.277 216.003 304.473 215.989 303.557V302.627C215.989 301.688 216.156 300.861 216.488 300.146C216.821 299.43 217.297 298.879 217.917 298.491C218.541 298.104 219.261 297.91 220.077 297.91C221.175 297.91 222.06 298.209 222.729 298.806C223.399 299.403 223.789 300.246 223.898 301.335H222.176C222.094 300.619 221.884 300.104 221.547 299.79C221.214 299.471 220.724 299.312 220.077 299.312C219.325 299.312 218.746 299.587 218.341 300.139C217.94 300.686 217.735 301.49 217.726 302.552V303.434C217.726 304.509 217.917 305.329 218.3 305.895C218.687 306.46 219.252 306.742 219.995 306.742C220.674 306.742 221.185 306.59 221.526 306.284C221.868 305.979 222.085 305.471 222.176 304.76H223.898ZM225.45 308V298.047H228.39C229.269 298.047 230.049 298.243 230.728 298.635C231.411 299.027 231.94 299.583 232.313 300.303C232.687 301.023 232.874 301.848 232.874 302.777V303.276C232.874 304.22 232.685 305.049 232.307 305.765C231.933 306.48 231.397 307.032 230.7 307.419C230.007 307.806 229.212 308 228.314 308H225.45ZM227.18 299.441V306.619H228.308C229.215 306.619 229.91 306.337 230.393 305.771C230.88 305.202 231.129 304.386 231.138 303.324V302.771C231.138 301.69 230.903 300.866 230.434 300.296C229.964 299.726 229.283 299.441 228.39 299.441H227.18ZM242.171 303.652L237.946 302.101V300.467L243.853 303.01V304.329L237.946 306.872V305.238L242.171 303.652ZM249.458 303.652L245.233 302.101V300.467L251.14 303.01V304.329L245.233 306.872V305.238L249.458 303.652ZM102.506 338H100.783V328.047H102.506V338ZM104.632 338V328.047H107.571C108.451 328.047 109.23 328.243 109.909 328.635C110.593 329.027 111.121 329.583 111.495 330.303C111.869 331.023 112.056 331.848 112.056 332.777V333.276C112.056 334.22 111.867 335.049 111.488 335.765C111.115 336.48 110.579 337.032 109.882 337.419C109.189 337.806 108.394 338 107.496 338H104.632ZM106.361 329.441V336.619H107.489C108.396 336.619 109.091 336.337 109.574 335.771C110.062 335.202 110.31 334.386 110.319 333.324V332.771C110.319 331.69 110.085 330.866 109.615 330.296C109.146 329.726 108.465 329.441 107.571 329.441H106.361ZM114.619 336.25C114.929 336.25 115.168 336.339 115.337 336.517C115.506 336.69 115.59 336.909 115.59 337.173C115.59 337.433 115.506 337.649 115.337 337.822C115.168 337.991 114.929 338.075 114.619 338.075C114.323 338.075 114.088 337.991 113.915 337.822C113.742 337.654 113.655 337.437 113.655 337.173C113.655 336.909 113.74 336.69 113.908 336.517C114.077 336.339 114.314 336.25 114.619 336.25ZM114.619 330.446C114.929 330.446 115.168 330.535 115.337 330.713C115.506 330.886 115.59 331.105 115.59 331.369C115.59 331.629 115.506 331.845 115.337 332.019C115.168 332.187 114.929 332.271 114.619 332.271C114.323 332.271 114.088 332.187 113.915 332.019C113.742 331.85 113.655 331.633 113.655 331.369C113.655 331.105 113.74 330.886 113.908 330.713C114.077 330.535 114.314 330.446 114.619 330.446ZM127.204 333.81C127.204 335.241 126.935 336.321 126.397 337.05C125.864 337.774 125.051 338.137 123.957 338.137C122.882 338.137 122.07 337.784 121.523 337.077C120.981 336.366 120.703 335.316 120.689 333.926V332.203C120.689 330.772 120.956 329.699 121.489 328.983C122.027 328.268 122.845 327.91 123.943 327.91C125.033 327.91 125.844 328.259 126.377 328.956C126.915 329.653 127.19 330.697 127.204 332.087V333.81ZM125.543 331.95C125.543 331.016 125.415 330.332 125.16 329.899C124.905 329.462 124.499 329.243 123.943 329.243C123.401 329.243 123.002 329.451 122.747 329.865C122.492 330.275 122.357 330.918 122.344 331.793V334.049C122.344 334.979 122.474 335.671 122.733 336.127C122.993 336.583 123.401 336.811 123.957 336.811C124.49 336.811 124.884 336.601 125.14 336.182C125.395 335.758 125.529 335.097 125.543 334.199V331.95ZM131.436 333.037L132.844 330.604H134.689L132.427 334.247L134.765 338H132.933L131.456 335.471L129.986 338H128.141L130.479 334.247L128.223 330.604H130.055L131.436 333.037ZM140.213 338H138.559V330.009L136.118 330.843V329.441L140.001 328.013H140.213V338ZM150.364 338H143.672V336.858L146.987 333.242C147.466 332.709 147.805 332.265 148.006 331.909C148.211 331.549 148.313 331.189 148.313 330.829C148.313 330.355 148.179 329.972 147.91 329.681C147.646 329.389 147.288 329.243 146.837 329.243C146.299 329.243 145.882 329.407 145.586 329.735C145.29 330.063 145.142 330.512 145.142 331.082H143.48C143.48 330.476 143.617 329.931 143.891 329.448C144.169 328.961 144.563 328.582 145.073 328.313C145.588 328.045 146.181 327.91 146.851 327.91C147.817 327.91 148.578 328.154 149.134 328.642C149.694 329.125 149.975 329.795 149.975 330.651C149.975 331.148 149.833 331.67 149.551 332.217C149.273 332.759 148.815 333.377 148.177 334.069L145.743 336.674H150.364V338ZM153.55 332.265H154.562C155.072 332.26 155.475 332.128 155.771 331.868C156.072 331.608 156.223 331.232 156.223 330.74C156.223 330.266 156.097 329.899 155.847 329.64C155.601 329.375 155.222 329.243 154.712 329.243C154.265 329.243 153.898 329.373 153.611 329.633C153.324 329.888 153.181 330.223 153.181 330.638H151.52C151.52 330.127 151.654 329.662 151.923 329.243C152.196 328.824 152.575 328.498 153.058 328.266C153.545 328.029 154.09 327.91 154.691 327.91C155.685 327.91 156.464 328.161 157.029 328.662C157.599 329.159 157.884 329.852 157.884 330.74C157.884 331.187 157.74 331.608 157.453 332.005C157.171 332.397 156.804 332.693 156.353 332.894C156.899 333.08 157.314 333.374 157.597 333.775C157.884 334.176 158.027 334.655 158.027 335.211C158.027 336.104 157.72 336.815 157.104 337.344C156.494 337.872 155.689 338.137 154.691 338.137C153.734 338.137 152.951 337.882 152.34 337.371C151.729 336.861 151.424 336.182 151.424 335.334H153.085C153.085 335.771 153.231 336.127 153.522 336.4C153.819 336.674 154.215 336.811 154.712 336.811C155.227 336.811 155.632 336.674 155.929 336.4C156.225 336.127 156.373 335.73 156.373 335.211C156.373 334.687 156.218 334.284 155.908 334.001C155.598 333.718 155.138 333.577 154.527 333.577H153.55V332.265ZM160.728 336.25C161.037 336.25 161.277 336.339 161.445 336.517C161.614 336.69 161.698 336.909 161.698 337.173C161.698 337.433 161.614 337.649 161.445 337.822C161.277 337.991 161.037 338.075 160.728 338.075C160.431 338.075 160.197 337.991 160.023 337.822C159.85 337.654 159.764 337.437 159.764 337.173C159.764 336.909 159.848 336.69 160.017 336.517C160.185 336.339 160.422 336.25 160.728 336.25ZM164.638 336.25C164.948 336.25 165.187 336.339 165.355 336.517C165.524 336.69 165.608 336.909 165.608 337.173C165.608 337.433 165.524 337.649 165.355 337.822C165.187 337.991 164.948 338.075 164.638 338.075C164.341 338.075 164.107 337.991 163.934 337.822C163.76 337.654 163.674 337.437 163.674 337.173C163.674 336.909 163.758 336.69 163.927 336.517C164.095 336.339 164.332 336.25 164.638 336.25ZM168.548 336.25C168.858 336.25 169.097 336.339 169.266 336.517C169.434 336.69 169.519 336.909 169.519 337.173C169.519 337.433 169.434 337.649 169.266 337.822C169.097 337.991 168.858 338.075 168.548 338.075C168.252 338.075 168.017 337.991 167.844 337.822C167.671 337.654 167.584 337.437 167.584 337.173C167.584 336.909 167.668 336.69 167.837 336.517C168.006 336.339 168.243 336.25 168.548 336.25ZM171.583 338V328.047H174.522C175.402 328.047 176.181 328.243 176.86 328.635C177.544 329.027 178.073 329.583 178.446 330.303C178.82 331.023 179.007 331.848 179.007 332.777V333.276C179.007 334.22 178.818 335.049 178.439 335.765C178.066 336.48 177.53 337.032 176.833 337.419C176.14 337.806 175.345 338 174.447 338H171.583ZM173.312 329.441V336.619H174.44C175.347 336.619 176.042 336.337 176.525 335.771C177.013 335.202 177.261 334.386 177.271 333.324V332.771C177.271 331.69 177.036 330.866 176.566 330.296C176.097 329.726 175.416 329.441 174.522 329.441H173.312ZM186.547 333.557H182.459V336.619H187.237V338H180.729V328.047H187.189V329.441H182.459V332.189H186.547V333.557ZM194.381 333.782H190.375V338H188.646V328.047H194.969V329.441H190.375V332.401H194.381V333.782Z" fill="#454B50"/>
<path d="M30.4258 82.3887C30.4258 82.0013 30.2891 81.7051 30.0156 81.5C29.7422 81.2904 29.25 81.0716 28.5391 80.8438C27.8281 80.6113 27.2653 80.3835 26.8506 80.1602C25.7204 79.5495 25.1553 78.7269 25.1553 77.6924C25.1553 77.1546 25.3057 76.6761 25.6064 76.2568C25.9118 75.833 26.347 75.5026 26.9121 75.2656C27.4818 75.0286 28.1198 74.9102 28.8262 74.9102C29.5371 74.9102 30.1706 75.04 30.7266 75.2998C31.2826 75.555 31.7132 75.9173 32.0186 76.3867C32.3285 76.8561 32.4834 77.3893 32.4834 77.9863H30.4326C30.4326 77.5306 30.2891 77.1774 30.002 76.9268C29.7148 76.6715 29.3115 76.5439 28.792 76.5439C28.2907 76.5439 27.901 76.651 27.623 76.8652C27.3451 77.0749 27.2061 77.3529 27.2061 77.6992C27.2061 78.0228 27.3678 78.2939 27.6914 78.5127C28.0195 78.7314 28.5003 78.9365 29.1338 79.1279C30.3005 79.4788 31.1504 79.9141 31.6836 80.4336C32.2168 80.9531 32.4834 81.6003 32.4834 82.375C32.4834 83.2363 32.1576 83.9131 31.5059 84.4053C30.8542 84.8929 29.9769 85.1367 28.874 85.1367C28.1084 85.1367 27.4111 84.9977 26.7822 84.7197C26.1533 84.4372 25.6725 84.0521 25.3398 83.5645C25.0117 83.0768 24.8477 82.5117 24.8477 81.8691H26.9053C26.9053 82.9674 27.5615 83.5166 28.874 83.5166C29.3617 83.5166 29.7422 83.4186 30.0156 83.2227C30.2891 83.0221 30.4258 82.7441 30.4258 82.3887ZM35.833 85H33.8506V77.6035H35.833V85ZM33.7344 75.6895C33.7344 75.3932 33.8324 75.1494 34.0283 74.958C34.2288 74.7666 34.5 74.6709 34.8418 74.6709C35.179 74.6709 35.4479 74.7666 35.6484 74.958C35.849 75.1494 35.9492 75.3932 35.9492 75.6895C35.9492 75.9902 35.8467 76.2363 35.6416 76.4277C35.4411 76.6191 35.1745 76.7148 34.8418 76.7148C34.5091 76.7148 34.2402 76.6191 34.0352 76.4277C33.8346 76.2363 33.7344 75.9902 33.7344 75.6895ZM39.2852 77.6035L39.3467 78.458C39.8753 77.7972 40.584 77.4668 41.4727 77.4668C42.2565 77.4668 42.8398 77.6969 43.2227 78.1572C43.6055 78.6175 43.8014 79.3057 43.8105 80.2217V85H41.835V80.2695C41.835 79.8503 41.7438 79.5472 41.5615 79.3604C41.3792 79.1689 41.0762 79.0732 40.6523 79.0732C40.0964 79.0732 39.6794 79.3102 39.4014 79.7842V85H37.4258V77.6035H39.2852ZM45.0273 81.2471C45.0273 80.1123 45.2962 79.1986 45.834 78.5059C46.3763 77.8132 47.1055 77.4668 48.0215 77.4668C48.8327 77.4668 49.4639 77.7448 49.915 78.3008L49.9971 77.6035H51.7881V84.7539C51.7881 85.401 51.64 85.9639 51.3438 86.4424C51.0521 86.9209 50.6396 87.2855 50.1064 87.5361C49.5732 87.7868 48.9489 87.9121 48.2334 87.9121C47.6911 87.9121 47.1624 87.8027 46.6475 87.584C46.1325 87.3698 45.7428 87.0918 45.4785 86.75L46.3535 85.5469C46.8457 86.0983 47.4427 86.374 48.1445 86.374C48.6686 86.374 49.0765 86.2327 49.3682 85.9502C49.6598 85.6722 49.8057 85.2757 49.8057 84.7607V84.3643C49.3499 84.8792 48.7507 85.1367 48.0078 85.1367C47.1191 85.1367 46.3991 84.7904 45.8477 84.0977C45.3008 83.4004 45.0273 82.4775 45.0273 81.3291V81.2471ZM47.0029 81.3906C47.0029 82.0605 47.1374 82.5869 47.4062 82.9697C47.6751 83.348 48.0443 83.5371 48.5137 83.5371C49.1152 83.5371 49.5459 83.3115 49.8057 82.8604V79.75C49.5413 79.2988 49.1152 79.0732 48.5273 79.0732C48.0534 79.0732 47.6797 79.2669 47.4062 79.6543C47.1374 80.0417 47.0029 80.6204 47.0029 81.3906ZM55.3975 85H53.415V74.5H55.3975V85ZM60.4355 85.1367C59.3509 85.1367 58.4668 84.804 57.7832 84.1387C57.1042 83.4733 56.7646 82.5869 56.7646 81.4795V81.2881C56.7646 80.5452 56.9082 79.8822 57.1953 79.2988C57.4824 78.7109 57.888 78.2598 58.4121 77.9453C58.9408 77.6263 59.5423 77.4668 60.2168 77.4668C61.2285 77.4668 62.0238 77.7858 62.6025 78.4238C63.1859 79.0618 63.4775 79.9665 63.4775 81.1377V81.9443H58.7676C58.8314 82.4274 59.0228 82.8148 59.3418 83.1064C59.6654 83.3981 60.0732 83.5439 60.5654 83.5439C61.3265 83.5439 61.9212 83.2682 62.3496 82.7168L63.3203 83.8037C63.0241 84.223 62.623 84.5511 62.1172 84.7881C61.6113 85.0205 61.0508 85.1367 60.4355 85.1367ZM60.21 79.0664C59.818 79.0664 59.499 79.1986 59.2529 79.4629C59.0114 79.7272 58.8564 80.1055 58.7881 80.5977H61.5361V80.4404C61.527 80.0029 61.4085 79.6657 61.1807 79.4287C60.9528 79.1872 60.6292 79.0664 60.21 79.0664ZM76.0967 83.7422C75.7275 84.1842 75.2057 84.5283 74.5312 84.7744C73.8568 85.016 73.1094 85.1367 72.2891 85.1367C71.4277 85.1367 70.6712 84.9499 70.0195 84.5762C69.3724 84.1979 68.8711 83.651 68.5156 82.9355C68.1647 82.2201 67.9847 81.3792 67.9756 80.4131V79.7363C67.9756 78.7428 68.1419 77.8838 68.4746 77.1592C68.8118 76.43 69.2949 75.874 69.9238 75.4912C70.5573 75.1038 71.2979 74.9102 72.1455 74.9102C73.3258 74.9102 74.2487 75.1927 74.9141 75.7578C75.5794 76.3184 75.9736 77.1364 76.0967 78.2119H74.1006C74.0094 77.6423 73.8066 77.2253 73.4922 76.9609C73.1823 76.6966 72.7539 76.5645 72.207 76.5645C71.5098 76.5645 70.9788 76.8265 70.6143 77.3506C70.2497 77.8747 70.0651 78.654 70.0605 79.6885V80.3242C70.0605 81.3678 70.2588 82.1562 70.6553 82.6895C71.0518 83.2227 71.6328 83.4893 72.3984 83.4893C73.1686 83.4893 73.7178 83.3252 74.0459 82.9971V81.2812H72.1797V79.7705H76.0967V83.7422ZM79.7197 85H77.7373V74.5H79.7197V85ZM81.0459 81.2334C81.0459 80.4997 81.1872 79.8457 81.4697 79.2715C81.7523 78.6973 82.1579 78.2529 82.6865 77.9385C83.2197 77.624 83.8372 77.4668 84.5391 77.4668C85.5371 77.4668 86.3506 77.7721 86.9795 78.3828C87.613 78.9935 87.9661 79.8229 88.0391 80.8711L88.0527 81.377C88.0527 82.5117 87.736 83.4232 87.1025 84.1113C86.4691 84.7949 85.6191 85.1367 84.5527 85.1367C83.4863 85.1367 82.6341 84.7949 81.9961 84.1113C81.3626 83.4277 81.0459 82.498 81.0459 81.3223V81.2334ZM83.0215 81.377C83.0215 82.0788 83.1536 82.6165 83.418 82.9902C83.6823 83.3594 84.0605 83.5439 84.5527 83.5439C85.0312 83.5439 85.4049 83.3617 85.6738 82.9971C85.9427 82.6279 86.0771 82.04 86.0771 81.2334C86.0771 80.5452 85.9427 80.012 85.6738 79.6338C85.4049 79.2555 85.0267 79.0664 84.5391 79.0664C84.056 79.0664 83.6823 79.2555 83.418 79.6338C83.1536 80.0075 83.0215 80.5885 83.0215 81.377ZM95.9346 81.3701C95.9346 82.555 95.6816 83.4801 95.1758 84.1455C94.6699 84.8063 93.9635 85.1367 93.0566 85.1367C92.2546 85.1367 91.6143 84.8291 91.1357 84.2139L91.0469 85H89.2695V74.5H91.2451V78.2666C91.7008 77.7334 92.3001 77.4668 93.043 77.4668C93.9453 77.4668 94.6517 77.7995 95.1621 78.4648C95.6771 79.1257 95.9346 80.0576 95.9346 81.2607V81.3701ZM93.959 81.2266C93.959 80.4792 93.8405 79.9346 93.6035 79.5928C93.3665 79.2464 93.0133 79.0732 92.5439 79.0732C91.915 79.0732 91.4821 79.3307 91.2451 79.8457V82.7646C91.4867 83.2842 91.9242 83.5439 92.5576 83.5439C93.1956 83.5439 93.6149 83.2295 93.8154 82.6006C93.9111 82.2998 93.959 81.8418 93.959 81.2266ZM101.444 85C101.353 84.8223 101.287 84.6012 101.246 84.3369C100.768 84.8701 100.146 85.1367 99.3799 85.1367C98.6553 85.1367 98.0537 84.9271 97.5752 84.5078C97.1012 84.0885 96.8643 83.5599 96.8643 82.9219C96.8643 82.138 97.1536 81.5365 97.7324 81.1172C98.3158 80.6979 99.1566 80.486 100.255 80.4814H101.164V80.0576C101.164 79.7158 101.075 79.4424 100.897 79.2373C100.724 79.0322 100.449 78.9297 100.07 78.9297C99.7376 78.9297 99.4756 79.0094 99.2842 79.1689C99.0973 79.3285 99.0039 79.5472 99.0039 79.8252H97.0283C97.0283 79.3968 97.1605 79.0003 97.4248 78.6357C97.6891 78.2712 98.0628 77.9863 98.5459 77.7812C99.029 77.5716 99.5713 77.4668 100.173 77.4668C101.084 77.4668 101.807 77.6969 102.34 78.1572C102.878 78.613 103.146 79.2555 103.146 80.085V83.291C103.151 83.9928 103.249 84.5238 103.44 84.8838V85H101.444ZM99.8105 83.626C100.102 83.626 100.371 83.5622 100.617 83.4346C100.863 83.3024 101.046 83.127 101.164 82.9082V81.6367H100.426C99.4368 81.6367 98.9105 81.9785 98.8467 82.6621L98.8398 82.7783C98.8398 83.0244 98.9264 83.2272 99.0996 83.3867C99.2728 83.5462 99.5098 83.626 99.8105 83.626ZM106.749 85H104.767V74.5H106.749V85ZM44.3574 96.3564H42.7236V100H40.6729V90.0469H44.3711C45.5469 90.0469 46.4538 90.3089 47.0918 90.833C47.7298 91.3571 48.0488 92.0977 48.0488 93.0547C48.0488 93.7337 47.9007 94.3011 47.6045 94.7568C47.3128 95.208 46.8685 95.568 46.2715 95.8369L48.4248 99.9043V100H46.2236L44.3574 96.3564ZM42.7236 94.6953H44.3779C44.8929 94.6953 45.2917 94.5654 45.5742 94.3057C45.8568 94.0413 45.998 93.679 45.998 93.2188C45.998 92.7493 45.8636 92.3802 45.5947 92.1113C45.3304 91.8424 44.9225 91.708 44.3711 91.708H42.7236V94.6953ZM52.8887 100.137C51.804 100.137 50.9199 99.804 50.2363 99.1387C49.5573 98.4733 49.2178 97.5869 49.2178 96.4795V96.2881C49.2178 95.5452 49.3613 94.8822 49.6484 94.2988C49.9355 93.7109 50.3411 93.2598 50.8652 92.9453C51.3939 92.6263 51.9954 92.4668 52.6699 92.4668C53.6816 92.4668 54.4769 92.7858 55.0557 93.4238C55.639 94.0618 55.9307 94.9665 55.9307 96.1377V96.9443H51.2207C51.2845 97.4274 51.4759 97.8148 51.7949 98.1064C52.1185 98.3981 52.5264 98.5439 53.0186 98.5439C53.7796 98.5439 54.3743 98.2682 54.8027 97.7168L55.7734 98.8037C55.4772 99.223 55.0762 99.5511 54.5703 99.7881C54.0645 100.021 53.5039 100.137 52.8887 100.137ZM52.6631 94.0664C52.2712 94.0664 51.9521 94.1986 51.7061 94.4629C51.4645 94.7272 51.3096 95.1055 51.2412 95.5977H53.9893V95.4404C53.9801 95.0029 53.8617 94.6657 53.6338 94.4287C53.4059 94.1872 53.0824 94.0664 52.6631 94.0664ZM56.7715 96.2471C56.7715 95.1123 57.0404 94.1986 57.5781 93.5059C58.1204 92.8132 58.8496 92.4668 59.7656 92.4668C60.5768 92.4668 61.208 92.7448 61.6592 93.3008L61.7412 92.6035H63.5322V99.7539C63.5322 100.401 63.3841 100.964 63.0879 101.442C62.7962 101.921 62.3838 102.285 61.8506 102.536C61.3174 102.787 60.693 102.912 59.9775 102.912C59.4352 102.912 58.9066 102.803 58.3916 102.584C57.8766 102.37 57.487 102.092 57.2227 101.75L58.0977 100.547C58.5898 101.098 59.1868 101.374 59.8887 101.374C60.4128 101.374 60.8206 101.233 61.1123 100.95C61.404 100.672 61.5498 100.276 61.5498 99.7607V99.3643C61.0941 99.8792 60.4948 100.137 59.752 100.137C58.8633 100.137 58.1432 99.7904 57.5918 99.0977C57.0449 98.4004 56.7715 97.4775 56.7715 96.3291V96.2471ZM58.7471 96.3906C58.7471 97.0605 58.8815 97.5869 59.1504 97.9697C59.4193 98.348 59.7884 98.5371 60.2578 98.5371C60.8594 98.5371 61.29 98.3115 61.5498 97.8604V94.75C61.2855 94.2988 60.8594 94.0732 60.2715 94.0732C59.7975 94.0732 59.4238 94.2669 59.1504 94.6543C58.8815 95.0417 58.7471 95.6204 58.7471 96.3906ZM67.1416 100H65.1592V92.6035H67.1416V100ZM65.043 90.6895C65.043 90.3932 65.141 90.1494 65.3369 89.958C65.5374 89.7666 65.8086 89.6709 66.1504 89.6709C66.4876 89.6709 66.7565 89.7666 66.957 89.958C67.1576 90.1494 67.2578 90.3932 67.2578 90.6895C67.2578 90.9902 67.1553 91.2363 66.9502 91.4277C66.7497 91.6191 66.4831 91.7148 66.1504 91.7148C65.8177 91.7148 65.5488 91.6191 65.3438 91.4277C65.1432 91.2363 65.043 90.9902 65.043 90.6895ZM72.7812 97.9561C72.7812 97.7145 72.6605 97.5254 72.4189 97.3887C72.182 97.2474 71.7992 97.1221 71.2705 97.0127C69.5114 96.6436 68.6318 95.8962 68.6318 94.7705C68.6318 94.1143 68.903 93.5674 69.4453 93.1299C69.9922 92.6878 70.7054 92.4668 71.585 92.4668C72.5238 92.4668 73.2734 92.6878 73.834 93.1299C74.3991 93.5719 74.6816 94.1462 74.6816 94.8525H72.7061C72.7061 94.57 72.6149 94.3376 72.4326 94.1553C72.2503 93.9684 71.9655 93.875 71.5781 93.875C71.2454 93.875 70.988 93.9502 70.8057 94.1006C70.6234 94.251 70.5322 94.4424 70.5322 94.6748C70.5322 94.8936 70.6348 95.0713 70.8398 95.208C71.0495 95.3402 71.4004 95.4564 71.8926 95.5566C72.3848 95.6523 72.7995 95.7617 73.1367 95.8848C74.1803 96.2676 74.7021 96.9307 74.7021 97.874C74.7021 98.5485 74.4128 99.0954 73.834 99.5146C73.2552 99.9294 72.5078 100.137 71.5918 100.137C70.972 100.137 70.4206 100.027 69.9375 99.8086C69.459 99.5853 69.083 99.2822 68.8096 98.8994C68.5361 98.512 68.3994 98.0951 68.3994 97.6484H70.2725C70.2907 97.9993 70.4206 98.2682 70.6621 98.4551C70.9036 98.6419 71.2272 98.7354 71.6328 98.7354C72.0111 98.7354 72.2959 98.6647 72.4873 98.5234C72.6833 98.3776 72.7812 98.1885 72.7812 97.9561ZM78.3457 90.7852V92.6035H79.6104V94.0527H78.3457V97.7441C78.3457 98.0176 78.3981 98.2135 78.5029 98.332C78.6077 98.4505 78.8083 98.5098 79.1045 98.5098C79.3232 98.5098 79.5169 98.4938 79.6855 98.4619V99.959C79.2982 100.077 78.8994 100.137 78.4893 100.137C77.1038 100.137 76.3975 99.4372 76.3701 98.0381V94.0527H75.29V92.6035H76.3701V90.7852H78.3457ZM84.8672 94.4561C84.5983 94.4196 84.3613 94.4014 84.1562 94.4014C83.4089 94.4014 82.9189 94.6543 82.6865 95.1602V100H80.7109V92.6035H82.5771L82.6318 93.4854C83.0283 92.8063 83.5775 92.4668 84.2793 92.4668C84.498 92.4668 84.7031 92.4964 84.8945 92.5557L84.8672 94.4561ZM88.709 97.2041L90.0762 92.6035H92.1953L89.2217 101.148L89.0576 101.538C88.6156 102.504 87.8864 102.987 86.8701 102.987C86.583 102.987 86.2913 102.944 85.9951 102.857V101.36L86.2959 101.367C86.6696 101.367 86.9476 101.31 87.1299 101.196C87.3167 101.082 87.4626 100.893 87.5674 100.629L87.7998 100.021L85.209 92.6035H87.335L88.709 97.2041Z" fill="white"/>
<path d="M286.915 295.047L289.472 302.266L292.015 295.047H294.708V305H292.65V302.279L292.855 297.583L290.169 305H288.761L286.081 297.59L286.286 302.279V305H284.235V295.047H286.915ZM300.799 304.248C300.311 304.84 299.637 305.137 298.775 305.137C297.982 305.137 297.376 304.909 296.957 304.453C296.542 303.997 296.33 303.33 296.321 302.45V297.604H298.297V302.382C298.297 303.152 298.648 303.537 299.35 303.537C300.02 303.537 300.48 303.305 300.73 302.84V297.604H302.713V305H300.854L300.799 304.248ZM306.288 305H304.306V294.5H306.288V305ZM310.287 295.785V297.604H311.552V299.053H310.287V302.744C310.287 303.018 310.34 303.214 310.444 303.332C310.549 303.451 310.75 303.51 311.046 303.51C311.265 303.51 311.458 303.494 311.627 303.462V304.959C311.24 305.077 310.841 305.137 310.431 305.137C309.045 305.137 308.339 304.437 308.312 303.038V299.053H307.231V297.604H308.312V295.785H310.287ZM314.737 305H312.755V297.604H314.737V305ZM312.639 295.689C312.639 295.393 312.737 295.149 312.933 294.958C313.133 294.767 313.404 294.671 313.746 294.671C314.083 294.671 314.352 294.767 314.553 294.958C314.753 295.149 314.854 295.393 314.854 295.689C314.854 295.99 314.751 296.236 314.546 296.428C314.345 296.619 314.079 296.715 313.746 296.715C313.413 296.715 313.145 296.619 312.939 296.428C312.739 296.236 312.639 295.99 312.639 295.689ZM323.029 301.37C323.029 302.509 322.77 303.423 322.25 304.111C321.735 304.795 321.038 305.137 320.158 305.137C319.411 305.137 318.807 304.877 318.347 304.357V307.844H316.371V297.604H318.203L318.271 298.328C318.75 297.754 319.374 297.467 320.145 297.467C321.056 297.467 321.765 297.804 322.271 298.479C322.776 299.153 323.029 300.083 323.029 301.268V301.37ZM321.054 301.227C321.054 300.538 320.931 300.007 320.685 299.634C320.443 299.26 320.09 299.073 319.625 299.073C319.005 299.073 318.579 299.31 318.347 299.784V302.812C318.588 303.3 319.019 303.544 319.639 303.544C320.582 303.544 321.054 302.771 321.054 301.227ZM326.345 305H324.362V294.5H326.345V305ZM331.383 305.137C330.298 305.137 329.414 304.804 328.73 304.139C328.051 303.473 327.712 302.587 327.712 301.479V301.288C327.712 300.545 327.855 299.882 328.143 299.299C328.43 298.711 328.835 298.26 329.359 297.945C329.888 297.626 330.49 297.467 331.164 297.467C332.176 297.467 332.971 297.786 333.55 298.424C334.133 299.062 334.425 299.966 334.425 301.138V301.944H329.715C329.779 302.427 329.97 302.815 330.289 303.106C330.613 303.398 331.021 303.544 331.513 303.544C332.274 303.544 332.868 303.268 333.297 302.717L334.268 303.804C333.971 304.223 333.57 304.551 333.064 304.788C332.559 305.021 331.998 305.137 331.383 305.137ZM331.157 299.066C330.765 299.066 330.446 299.199 330.2 299.463C329.959 299.727 329.804 300.105 329.735 300.598H332.483V300.44C332.474 300.003 332.356 299.666 332.128 299.429C331.9 299.187 331.576 299.066 331.157 299.066ZM341.35 305H339.299V295.047H341.35V305ZM342.819 301.247C342.819 300.094 343.077 299.176 343.592 298.492C344.111 297.809 344.82 297.467 345.718 297.467C346.438 297.467 347.033 297.736 347.502 298.273V294.5H349.484V305H347.7L347.604 304.214C347.112 304.829 346.479 305.137 345.704 305.137C344.834 305.137 344.134 304.795 343.605 304.111C343.081 303.423 342.819 302.468 342.819 301.247ZM344.795 301.391C344.795 302.083 344.916 302.614 345.157 302.983C345.399 303.353 345.75 303.537 346.21 303.537C346.821 303.537 347.251 303.28 347.502 302.765V299.846C347.256 299.331 346.83 299.073 346.224 299.073C345.271 299.073 344.795 299.846 344.795 301.391ZM354.42 305.137C353.335 305.137 352.451 304.804 351.768 304.139C351.089 303.473 350.749 302.587 350.749 301.479V301.288C350.749 300.545 350.893 299.882 351.18 299.299C351.467 298.711 351.872 298.26 352.396 297.945C352.925 297.626 353.527 297.467 354.201 297.467C355.213 297.467 356.008 297.786 356.587 298.424C357.17 299.062 357.462 299.966 357.462 301.138V301.944H352.752C352.816 302.427 353.007 302.815 353.326 303.106C353.65 303.398 354.058 303.544 354.55 303.544C355.311 303.544 355.906 303.268 356.334 302.717L357.305 303.804C357.008 304.223 356.607 304.551 356.102 304.788C355.596 305.021 355.035 305.137 354.42 305.137ZM354.194 299.066C353.802 299.066 353.483 299.199 353.237 299.463C352.996 299.727 352.841 300.105 352.772 300.598H355.521V300.44C355.511 300.003 355.393 299.666 355.165 299.429C354.937 299.187 354.614 299.066 354.194 299.066ZM360.408 297.604L360.47 298.458C360.998 297.797 361.707 297.467 362.596 297.467C363.38 297.467 363.963 297.697 364.346 298.157C364.729 298.618 364.924 299.306 364.934 300.222V305H362.958V300.27C362.958 299.85 362.867 299.547 362.685 299.36C362.502 299.169 362.199 299.073 361.775 299.073C361.219 299.073 360.802 299.31 360.524 299.784V305H358.549V297.604H360.408ZM368.803 295.785V297.604H370.067V299.053H368.803V302.744C368.803 303.018 368.855 303.214 368.96 303.332C369.065 303.451 369.265 303.51 369.562 303.51C369.78 303.51 369.974 303.494 370.143 303.462V304.959C369.755 305.077 369.356 305.137 368.946 305.137C367.561 305.137 366.854 304.437 366.827 303.038V299.053H365.747V297.604H366.827V295.785H368.803ZM373.253 305H371.271V297.604H373.253V305ZM371.154 295.689C371.154 295.393 371.252 295.149 371.448 294.958C371.649 294.767 371.92 294.671 372.262 294.671C372.599 294.671 372.868 294.767 373.068 294.958C373.269 295.149 373.369 295.393 373.369 295.689C373.369 295.99 373.267 296.236 373.062 296.428C372.861 296.619 372.594 296.715 372.262 296.715C371.929 296.715 371.66 296.619 371.455 296.428C371.255 296.236 371.154 295.99 371.154 295.689ZM377.963 303.544C378.327 303.544 378.624 303.444 378.852 303.243C379.079 303.043 379.198 302.776 379.207 302.443H381.06C381.055 302.945 380.918 303.405 380.649 303.824C380.381 304.239 380.011 304.562 379.542 304.795C379.077 305.023 378.562 305.137 377.997 305.137C376.94 305.137 376.106 304.802 375.495 304.132C374.884 303.457 374.579 302.528 374.579 301.343V301.213C374.579 300.074 374.882 299.164 375.488 298.485C376.094 297.806 376.926 297.467 377.983 297.467C378.909 297.467 379.649 297.731 380.205 298.26C380.766 298.784 381.05 299.483 381.06 300.358H379.207C379.198 299.976 379.079 299.666 378.852 299.429C378.624 299.187 378.323 299.066 377.949 299.066C377.489 299.066 377.14 299.235 376.903 299.572C376.671 299.905 376.555 300.447 376.555 301.199V301.404C376.555 302.165 376.671 302.712 376.903 303.045C377.136 303.378 377.489 303.544 377.963 303.544ZM386.474 305C386.382 304.822 386.316 304.601 386.275 304.337C385.797 304.87 385.175 305.137 384.409 305.137C383.685 305.137 383.083 304.927 382.604 304.508C382.131 304.089 381.894 303.56 381.894 302.922C381.894 302.138 382.183 301.536 382.762 301.117C383.345 300.698 384.186 300.486 385.284 300.481H386.193V300.058C386.193 299.716 386.104 299.442 385.927 299.237C385.754 299.032 385.478 298.93 385.1 298.93C384.767 298.93 384.505 299.009 384.313 299.169C384.127 299.328 384.033 299.547 384.033 299.825H382.058C382.058 299.397 382.19 299 382.454 298.636C382.718 298.271 383.092 297.986 383.575 297.781C384.058 297.572 384.601 297.467 385.202 297.467C386.114 297.467 386.836 297.697 387.369 298.157C387.907 298.613 388.176 299.256 388.176 300.085V303.291C388.18 303.993 388.278 304.524 388.47 304.884V305H386.474ZM384.84 303.626C385.132 303.626 385.4 303.562 385.646 303.435C385.893 303.302 386.075 303.127 386.193 302.908V301.637H385.455C384.466 301.637 383.94 301.979 383.876 302.662L383.869 302.778C383.869 303.024 383.956 303.227 384.129 303.387C384.302 303.546 384.539 303.626 384.84 303.626ZM391.778 305H389.796V294.5H391.778V305ZM292.76 316.685C292.682 317.756 292.286 318.599 291.57 319.214C290.859 319.829 289.921 320.137 288.754 320.137C287.478 320.137 286.473 319.708 285.739 318.852C285.01 317.99 284.646 316.81 284.646 315.311V314.702C284.646 313.745 284.814 312.902 285.151 312.173C285.489 311.444 285.969 310.885 286.594 310.498C287.223 310.106 287.952 309.91 288.781 309.91C289.93 309.91 290.855 310.218 291.557 310.833C292.258 311.448 292.664 312.312 292.773 313.424H290.723C290.673 312.781 290.493 312.316 290.183 312.029C289.877 311.738 289.41 311.592 288.781 311.592C288.098 311.592 287.585 311.838 287.243 312.33C286.906 312.818 286.733 313.576 286.724 314.606V315.358C286.724 316.434 286.885 317.22 287.209 317.717C287.537 318.214 288.052 318.462 288.754 318.462C289.387 318.462 289.859 318.318 290.169 318.031C290.483 317.74 290.663 317.291 290.709 316.685H292.76ZM293.669 316.233C293.669 315.5 293.81 314.846 294.093 314.271C294.375 313.697 294.781 313.253 295.31 312.938C295.843 312.624 296.46 312.467 297.162 312.467C298.16 312.467 298.974 312.772 299.603 313.383C300.236 313.993 300.589 314.823 300.662 315.871L300.676 316.377C300.676 317.512 300.359 318.423 299.726 319.111C299.092 319.795 298.242 320.137 297.176 320.137C296.109 320.137 295.257 319.795 294.619 319.111C293.986 318.428 293.669 317.498 293.669 316.322V316.233ZM295.645 316.377C295.645 317.079 295.777 317.617 296.041 317.99C296.305 318.359 296.684 318.544 297.176 318.544C297.654 318.544 298.028 318.362 298.297 317.997C298.566 317.628 298.7 317.04 298.7 316.233C298.7 315.545 298.566 315.012 298.297 314.634C298.028 314.256 297.65 314.066 297.162 314.066C296.679 314.066 296.305 314.256 296.041 314.634C295.777 315.007 295.645 315.589 295.645 316.377ZM308.551 316.37C308.551 317.509 308.291 318.423 307.771 319.111C307.257 319.795 306.559 320.137 305.68 320.137C304.932 320.137 304.328 319.877 303.868 319.357V322.844H301.893V312.604H303.725L303.793 313.328C304.271 312.754 304.896 312.467 305.666 312.467C306.577 312.467 307.286 312.804 307.792 313.479C308.298 314.153 308.551 315.083 308.551 316.268V316.37ZM306.575 316.227C306.575 315.538 306.452 315.007 306.206 314.634C305.965 314.26 305.611 314.073 305.146 314.073C304.527 314.073 304.101 314.31 303.868 314.784V317.812C304.11 318.3 304.54 318.544 305.16 318.544C306.104 318.544 306.575 317.771 306.575 316.227ZM311.866 320H309.884V312.604H311.866V320ZM309.768 310.689C309.768 310.393 309.866 310.149 310.062 309.958C310.262 309.767 310.533 309.671 310.875 309.671C311.212 309.671 311.481 309.767 311.682 309.958C311.882 310.149 311.982 310.393 311.982 310.689C311.982 310.99 311.88 311.236 311.675 311.428C311.474 311.619 311.208 311.715 310.875 311.715C310.542 311.715 310.273 311.619 310.068 311.428C309.868 311.236 309.768 310.99 309.768 310.689ZM316.904 320.137C315.82 320.137 314.936 319.804 314.252 319.139C313.573 318.473 313.233 317.587 313.233 316.479V316.288C313.233 315.545 313.377 314.882 313.664 314.299C313.951 313.711 314.357 313.26 314.881 312.945C315.41 312.626 316.011 312.467 316.686 312.467C317.697 312.467 318.493 312.786 319.071 313.424C319.655 314.062 319.946 314.966 319.946 316.138V316.944H315.236C315.3 317.427 315.492 317.815 315.811 318.106C316.134 318.398 316.542 318.544 317.034 318.544C317.795 318.544 318.39 318.268 318.818 317.717L319.789 318.804C319.493 319.223 319.092 319.551 318.586 319.788C318.08 320.021 317.52 320.137 316.904 320.137ZM316.679 314.066C316.287 314.066 315.968 314.199 315.722 314.463C315.48 314.727 315.325 315.105 315.257 315.598H318.005V315.44C317.996 315.003 317.877 314.666 317.649 314.429C317.422 314.187 317.098 314.066 316.679 314.066ZM325.08 317.956C325.08 317.715 324.959 317.525 324.718 317.389C324.481 317.247 324.098 317.122 323.569 317.013C321.81 316.644 320.931 315.896 320.931 314.771C320.931 314.114 321.202 313.567 321.744 313.13C322.291 312.688 323.004 312.467 323.884 312.467C324.823 312.467 325.572 312.688 326.133 313.13C326.698 313.572 326.98 314.146 326.98 314.853H325.005C325.005 314.57 324.914 314.338 324.731 314.155C324.549 313.968 324.264 313.875 323.877 313.875C323.544 313.875 323.287 313.95 323.104 314.101C322.922 314.251 322.831 314.442 322.831 314.675C322.831 314.894 322.934 315.071 323.139 315.208C323.348 315.34 323.699 315.456 324.191 315.557C324.684 315.652 325.098 315.762 325.436 315.885C326.479 316.268 327.001 316.931 327.001 317.874C327.001 318.549 326.712 319.095 326.133 319.515C325.554 319.929 324.807 320.137 323.891 320.137C323.271 320.137 322.719 320.027 322.236 319.809C321.758 319.585 321.382 319.282 321.108 318.899C320.835 318.512 320.698 318.095 320.698 317.648H322.571C322.59 317.999 322.719 318.268 322.961 318.455C323.202 318.642 323.526 318.735 323.932 318.735C324.31 318.735 324.595 318.665 324.786 318.523C324.982 318.378 325.08 318.188 325.08 317.956ZM331.458 316.233C331.458 315.5 331.599 314.846 331.882 314.271C332.164 313.697 332.57 313.253 333.099 312.938C333.632 312.624 334.249 312.467 334.951 312.467C335.949 312.467 336.763 312.772 337.392 313.383C338.025 313.993 338.378 314.823 338.451 315.871L338.465 316.377C338.465 317.512 338.148 318.423 337.515 319.111C336.881 319.795 336.031 320.137 334.965 320.137C333.898 320.137 333.046 319.795 332.408 319.111C331.775 318.428 331.458 317.498 331.458 316.322V316.233ZM333.434 316.377C333.434 317.079 333.566 317.617 333.83 317.99C334.094 318.359 334.473 318.544 334.965 318.544C335.443 318.544 335.817 318.362 336.086 317.997C336.355 317.628 336.489 317.04 336.489 316.233C336.489 315.545 336.355 315.012 336.086 314.634C335.817 314.256 335.439 314.066 334.951 314.066C334.468 314.066 334.094 314.256 333.83 314.634C333.566 315.007 333.434 315.589 333.434 316.377ZM340.222 320V314.053H339.121V312.604H340.222V311.975C340.222 311.145 340.459 310.503 340.933 310.047C341.411 309.587 342.079 309.356 342.936 309.356C343.209 309.356 343.544 309.402 343.94 309.493L343.92 311.024C343.756 310.983 343.555 310.963 343.318 310.963C342.576 310.963 342.204 311.312 342.204 312.009V312.604H343.674V314.053H342.204V320H340.222ZM355.397 311.708H352.349V320H350.298V311.708H347.29V310.047H355.397V311.708ZM364.175 311.708H361.126V320H359.075V311.708H356.067V310.047H364.175V311.708ZM374.415 315.687H370.478V318.353H375.099V320H368.427V310.047H375.085V311.708H370.478V314.08H374.415V315.687ZM376.302 320V310.047H379.788C380.996 310.047 381.912 310.279 382.536 310.744C383.16 311.204 383.473 311.881 383.473 312.774C383.473 313.262 383.347 313.693 383.097 314.066C382.846 314.436 382.497 314.707 382.051 314.88C382.561 315.007 382.962 315.265 383.254 315.652C383.55 316.04 383.698 316.514 383.698 317.074C383.698 318.031 383.393 318.756 382.782 319.248C382.172 319.74 381.301 319.991 380.171 320H376.302ZM378.353 315.666V318.353H380.109C380.592 318.353 380.968 318.239 381.237 318.011C381.511 317.778 381.647 317.459 381.647 317.054C381.647 316.142 381.176 315.68 380.232 315.666H378.353ZM378.353 314.217H379.87C380.905 314.199 381.422 313.786 381.422 312.979C381.422 312.528 381.29 312.205 381.025 312.009C380.766 311.808 380.353 311.708 379.788 311.708H378.353V314.217ZM387.294 318.353H391.648V320H385.243V310.047H387.294V318.353Z" fill="white"/>
<path d="M245.061 166.939C244.475 166.354 243.525 166.354 242.939 166.939L233.393 176.485C232.808 177.071 232.808 178.021 233.393 178.607C233.979 179.192 234.929 179.192 235.515 178.607L244 170.121L252.485 178.607C253.071 179.192 254.021 179.192 254.607 178.607C255.192 178.021 255.192 177.071 254.607 176.485L245.061 166.939ZM142.5 226C142.5 226.828 143.172 227.5 144 227.5C144.828 227.5 145.5 226.828 145.5 226H142.5ZM238 195.5H150V198.5H238V195.5ZM242.5 168V191H245.5V168H242.5ZM142.5 203V226H145.5V203H142.5ZM150 195.5C145.858 195.5 142.5 198.858 142.5 203H145.5C145.5 200.515 147.515 198.5 150 198.5V195.5ZM238 198.5C242.142 198.5 245.5 195.142 245.5 191H242.5C242.5 193.485 240.485 195.5 238 195.5V198.5Z" fill="#3B8CC5"/>
</svg>
