<svg width="774" height="67" viewBox="0 0 774 67" fill="none" xmlns="http://www.w3.org/2000/svg">
<rect x="0.5" y="0.5" width="167" height="66" rx="5.5" fill="white" stroke="#6E787F"/>
<rect x="300.5" y="0.5" width="167" height="66" rx="5.5" fill="white" stroke="#6E787F"/>
<rect x="606.5" y="0.5" width="167" height="66" rx="5.5" fill="white" stroke="#6E787F"/>
<path d="M26.21 19.165H24.2822V23H22.5527V13.0469H26.0527C27.2012 13.0469 28.0876 13.3044 28.7119 13.8193C29.3363 14.3343 29.6484 15.0794 29.6484 16.0547C29.6484 16.7201 29.4867 17.2783 29.1631 17.7295C28.8441 18.1761 28.3975 18.5202 27.8232 18.7617L30.0586 22.9111V23H28.2061L26.21 19.165ZM24.2822 17.7773H26.0596C26.6429 17.7773 27.0986 17.6315 27.4268 17.3398C27.7549 17.0436 27.9189 16.6403 27.9189 16.1299C27.9189 15.5967 27.7663 15.1842 27.4609 14.8926C27.1602 14.6009 26.709 14.4505 26.1074 14.4414H24.2822V17.7773ZM35.5479 23C35.4749 22.8587 35.4111 22.6286 35.3564 22.3096C34.8278 22.861 34.1807 23.1367 33.415 23.1367C32.6722 23.1367 32.0661 22.9248 31.5967 22.501C31.1273 22.0771 30.8926 21.5531 30.8926 20.9287C30.8926 20.1403 31.1842 19.5365 31.7676 19.1172C32.3555 18.6934 33.194 18.4814 34.2832 18.4814H35.3018V17.9961C35.3018 17.6133 35.1947 17.3079 34.9805 17.0801C34.7663 16.8477 34.4404 16.7314 34.0029 16.7314C33.6247 16.7314 33.3148 16.8271 33.0732 17.0186C32.8317 17.2054 32.7109 17.4447 32.7109 17.7363H31.0498C31.0498 17.3307 31.1842 16.9525 31.4531 16.6016C31.722 16.2461 32.0866 15.9681 32.5469 15.7676C33.0117 15.5671 33.529 15.4668 34.0986 15.4668C34.9645 15.4668 35.6549 15.6855 36.1699 16.123C36.6849 16.556 36.9492 17.1667 36.9629 17.9551V21.291C36.9629 21.9564 37.0563 22.4873 37.2432 22.8838V23H35.5479ZM33.7227 21.8037C34.0508 21.8037 34.3584 21.724 34.6455 21.5645C34.9372 21.4049 35.1559 21.1908 35.3018 20.9219V19.5273H34.4062C33.791 19.5273 33.3285 19.6344 33.0186 19.8486C32.7087 20.0628 32.5537 20.3659 32.5537 20.7578C32.5537 21.0768 32.6585 21.332 32.8682 21.5234C33.0824 21.7103 33.3672 21.8037 33.7227 21.8037ZM45.2002 20.71L46.376 15.6035H47.9961L45.9795 23H44.6123L43.0264 17.9209L41.4678 23H40.1006L38.0771 15.6035H39.6973L40.8936 20.6553L42.4111 15.6035H43.6621L45.2002 20.71ZM52.2822 19.2471C52.2822 18.1077 52.5465 17.194 53.0752 16.5059C53.6038 15.8132 54.3125 15.4668 55.2012 15.4668C55.985 15.4668 56.6185 15.7402 57.1016 16.2871V12.5H58.7627V23H57.2588L57.1768 22.2344C56.68 22.8359 56.0169 23.1367 55.1875 23.1367C54.3216 23.1367 53.6198 22.7881 53.082 22.0908C52.5488 21.3936 52.2822 20.4456 52.2822 19.2471ZM53.9434 19.3906C53.9434 20.1426 54.0869 20.7305 54.374 21.1543C54.6657 21.5736 55.0781 21.7832 55.6113 21.7832C56.2904 21.7832 56.7871 21.4801 57.1016 20.874V17.7158C56.7962 17.1234 56.304 16.8271 55.625 16.8271C55.0872 16.8271 54.6725 17.0413 54.3809 17.4697C54.0892 17.8936 53.9434 18.5339 53.9434 19.3906ZM64.915 23C64.8421 22.8587 64.7783 22.6286 64.7236 22.3096C64.195 22.861 63.5479 23.1367 62.7822 23.1367C62.0394 23.1367 61.4333 22.9248 60.9639 22.501C60.4945 22.0771 60.2598 21.5531 60.2598 20.9287C60.2598 20.1403 60.5514 19.5365 61.1348 19.1172C61.7227 18.6934 62.5612 18.4814 63.6504 18.4814H64.6689V17.9961C64.6689 17.6133 64.5618 17.3079 64.3477 17.0801C64.1335 16.8477 63.8076 16.7314 63.3701 16.7314C62.9919 16.7314 62.682 16.8271 62.4404 17.0186C62.1989 17.2054 62.0781 17.4447 62.0781 17.7363H60.417C60.417 17.3307 60.5514 16.9525 60.8203 16.6016C61.0892 16.2461 61.4538 15.9681 61.9141 15.7676C62.3789 15.5671 62.8962 15.4668 63.4658 15.4668C64.3317 15.4668 65.0221 15.6855 65.5371 16.123C66.0521 16.556 66.3164 17.1667 66.3301 17.9551V21.291C66.3301 21.9564 66.4235 22.4873 66.6104 22.8838V23H64.915ZM63.0898 21.8037C63.418 21.8037 63.7256 21.724 64.0127 21.5645C64.3044 21.4049 64.5231 21.1908 64.6689 20.9219V19.5273H63.7734C63.1582 19.5273 62.6956 19.6344 62.3857 19.8486C62.0758 20.0628 61.9209 20.3659 61.9209 20.7578C61.9209 21.0768 62.0257 21.332 62.2354 21.5234C62.4495 21.7103 62.7344 21.8037 63.0898 21.8037ZM70.1514 13.8057V15.6035H71.457V16.834H70.1514V20.9629C70.1514 21.2454 70.2061 21.4505 70.3154 21.5781C70.4294 21.7012 70.6299 21.7627 70.917 21.7627C71.1084 21.7627 71.3021 21.7399 71.498 21.6943V22.9795C71.1198 23.0843 70.7552 23.1367 70.4043 23.1367C69.1283 23.1367 68.4902 22.4326 68.4902 21.0244V16.834H67.2734V15.6035H68.4902V13.8057H70.1514ZM77.1514 23C77.0785 22.8587 77.0146 22.6286 76.96 22.3096C76.4313 22.861 75.7842 23.1367 75.0186 23.1367C74.2757 23.1367 73.6696 22.9248 73.2002 22.501C72.7308 22.0771 72.4961 21.5531 72.4961 20.9287C72.4961 20.1403 72.7878 19.5365 73.3711 19.1172C73.959 18.6934 74.7975 18.4814 75.8867 18.4814H76.9053V17.9961C76.9053 17.6133 76.7982 17.3079 76.584 17.0801C76.3698 16.8477 76.0439 16.7314 75.6064 16.7314C75.2282 16.7314 74.9183 16.8271 74.6768 17.0186C74.4352 17.2054 74.3145 17.4447 74.3145 17.7363H72.6533C72.6533 17.3307 72.7878 16.9525 73.0566 16.6016C73.3255 16.2461 73.6901 15.9681 74.1504 15.7676C74.6152 15.5671 75.1325 15.4668 75.7021 15.4668C76.568 15.4668 77.2585 15.6855 77.7734 16.123C78.2884 16.556 78.5527 17.1667 78.5664 17.9551V21.291C78.5664 21.9564 78.6598 22.4873 78.8467 22.8838V23H77.1514ZM75.3262 21.8037C75.6543 21.8037 75.9619 21.724 76.249 21.5645C76.5407 21.4049 76.7594 21.1908 76.9053 20.9219V19.5273H76.0098C75.3945 19.5273 74.932 19.6344 74.6221 19.8486C74.3122 20.0628 74.1572 20.3659 74.1572 20.7578C74.1572 21.0768 74.262 21.332 74.4717 21.5234C74.6859 21.7103 74.9707 21.8037 75.3262 21.8037ZM85.5596 23H83.8984V15.6035H85.5596V23ZM83.7959 13.6826C83.7959 13.4274 83.8757 13.2155 84.0352 13.0469C84.1992 12.8783 84.4316 12.7939 84.7324 12.7939C85.0332 12.7939 85.2656 12.8783 85.4297 13.0469C85.5938 13.2155 85.6758 13.4274 85.6758 13.6826C85.6758 13.9333 85.5938 14.1429 85.4297 14.3115C85.2656 14.4756 85.0332 14.5576 84.7324 14.5576C84.4316 14.5576 84.1992 14.4756 84.0352 14.3115C83.8757 14.1429 83.7959 13.9333 83.7959 13.6826ZM88.916 15.6035L88.9639 16.458C89.5107 15.7972 90.2285 15.4668 91.1172 15.4668C92.6576 15.4668 93.4414 16.3486 93.4688 18.1123V23H91.8076V18.208C91.8076 17.7386 91.7051 17.3923 91.5 17.1689C91.2995 16.9411 90.9691 16.8271 90.5088 16.8271C89.8389 16.8271 89.3398 17.1302 89.0117 17.7363V23H87.3506V15.6035H88.916ZM100.421 23H98.7598V15.6035H100.421V23ZM98.6572 13.6826C98.6572 13.4274 98.737 13.2155 98.8965 13.0469C99.0605 12.8783 99.293 12.7939 99.5938 12.7939C99.8945 12.7939 100.127 12.8783 100.291 13.0469C100.455 13.2155 100.537 13.4274 100.537 13.6826C100.537 13.9333 100.455 14.1429 100.291 14.3115C100.127 14.4756 99.8945 14.5576 99.5938 14.5576C99.293 14.5576 99.0605 14.4756 98.8965 14.3115C98.737 14.1429 98.6572 13.9333 98.6572 13.6826ZM103.777 15.6035L103.825 16.458C104.372 15.7972 105.09 15.4668 105.979 15.4668C107.519 15.4668 108.303 16.3486 108.33 18.1123V23H106.669V18.208C106.669 17.7386 106.566 17.3923 106.361 17.1689C106.161 16.9411 105.83 16.8271 105.37 16.8271C104.7 16.8271 104.201 17.1302 103.873 17.7363V23H102.212V15.6035H103.777ZM111.666 16.4102C112.208 15.7812 112.894 15.4668 113.724 15.4668C115.3 15.4668 116.1 16.3669 116.123 18.167V23H114.462V18.2285C114.462 17.7181 114.35 17.3581 114.127 17.1484C113.908 16.9342 113.585 16.8271 113.156 16.8271C112.491 16.8271 111.994 17.1234 111.666 17.7158V23H110.005V12.5H111.666V16.4102ZM117.497 19.2334C117.497 18.5088 117.641 17.8571 117.928 17.2783C118.215 16.695 118.618 16.2484 119.138 15.9385C119.657 15.624 120.254 15.4668 120.929 15.4668C121.927 15.4668 122.736 15.7881 123.355 16.4307C123.98 17.0732 124.317 17.9255 124.367 18.9873L124.374 19.377C124.374 20.1061 124.233 20.7578 123.95 21.332C123.672 21.9062 123.271 22.3506 122.747 22.665C122.228 22.9795 121.626 23.1367 120.942 23.1367C119.899 23.1367 119.062 22.7904 118.434 22.0977C117.809 21.4004 117.497 20.473 117.497 19.3154V19.2334ZM119.158 19.377C119.158 20.138 119.315 20.735 119.63 21.168C119.944 21.5964 120.382 21.8105 120.942 21.8105C121.503 21.8105 121.938 21.5918 122.248 21.1543C122.562 20.7168 122.72 20.0765 122.72 19.2334C122.72 18.486 122.558 17.8936 122.234 17.4561C121.915 17.0186 121.48 16.7998 120.929 16.7998C120.386 16.7998 119.956 17.0163 119.637 17.4492C119.318 17.8776 119.158 18.5202 119.158 19.377ZM130.26 22.2754C129.772 22.8496 129.079 23.1367 128.182 23.1367C127.38 23.1367 126.771 22.902 126.356 22.4326C125.946 21.9632 125.741 21.2842 125.741 20.3955V15.6035H127.402V20.375C127.402 21.3138 127.792 21.7832 128.571 21.7832C129.378 21.7832 129.923 21.4938 130.205 20.915V15.6035H131.866V23H130.301L130.26 22.2754ZM137.704 20.9902C137.704 20.694 137.581 20.4684 137.335 20.3135C137.093 20.1585 136.69 20.0218 136.125 19.9033C135.56 19.7848 135.088 19.6344 134.71 19.4521C133.881 19.0511 133.466 18.4701 133.466 17.709C133.466 17.071 133.735 16.5378 134.272 16.1094C134.81 15.681 135.494 15.4668 136.323 15.4668C137.207 15.4668 137.921 15.6855 138.463 16.123C139.01 16.5605 139.283 17.1279 139.283 17.8252H137.622C137.622 17.5062 137.504 17.2419 137.267 17.0322C137.03 16.818 136.715 16.7109 136.323 16.7109C135.959 16.7109 135.66 16.7952 135.428 16.9639C135.2 17.1325 135.086 17.3581 135.086 17.6406C135.086 17.8958 135.193 18.0941 135.407 18.2354C135.621 18.3766 136.054 18.5202 136.706 18.666C137.358 18.8073 137.868 18.9782 138.237 19.1787C138.611 19.3747 138.887 19.6117 139.064 19.8896C139.247 20.1676 139.338 20.5049 139.338 20.9014C139.338 21.5667 139.062 22.1068 138.511 22.5215C137.959 22.9316 137.237 23.1367 136.344 23.1367C135.738 23.1367 135.198 23.0273 134.724 22.8086C134.25 22.5898 133.881 22.2891 133.616 21.9062C133.352 21.5234 133.22 21.111 133.22 20.6689H134.833C134.856 21.0609 135.004 21.3639 135.277 21.5781C135.551 21.7878 135.913 21.8926 136.364 21.8926C136.802 21.8926 137.134 21.8105 137.362 21.6465C137.59 21.4779 137.704 21.2591 137.704 20.9902ZM144.048 23.1367C142.995 23.1367 142.141 22.8063 141.484 22.1455C140.833 21.4801 140.507 20.596 140.507 19.4932V19.2881C140.507 18.5498 140.648 17.8913 140.931 17.3125C141.218 16.7292 141.619 16.2757 142.134 15.9521C142.649 15.6286 143.223 15.4668 143.856 15.4668C144.864 15.4668 145.641 15.7881 146.188 16.4307C146.739 17.0732 147.015 17.9824 147.015 19.1582V19.8281H142.182C142.232 20.4388 142.435 20.9219 142.79 21.2773C143.15 21.6328 143.601 21.8105 144.144 21.8105C144.905 21.8105 145.524 21.5029 146.003 20.8877L146.898 21.7422C146.602 22.1842 146.206 22.5283 145.709 22.7744C145.217 23.016 144.663 23.1367 144.048 23.1367ZM143.85 16.7998C143.394 16.7998 143.025 16.9593 142.742 17.2783C142.464 17.5973 142.286 18.0417 142.209 18.6113H145.374V18.4883C145.338 17.9323 145.189 17.513 144.93 17.2305C144.67 16.9434 144.31 16.7998 143.85 16.7998ZM10.3574 34.2471C10.3574 33.1077 10.6217 32.194 11.1504 31.5059C11.679 30.8132 12.3877 30.4668 13.2764 30.4668C14.0602 30.4668 14.6937 30.7402 15.1768 31.2871V27.5H16.8379V38H15.334L15.252 37.2344C14.7552 37.8359 14.0921 38.1367 13.2627 38.1367C12.3968 38.1367 11.695 37.7881 11.1572 37.0908C10.624 36.3936 10.3574 35.4456 10.3574 34.2471ZM12.0186 34.3906C12.0186 35.1426 12.1621 35.7305 12.4492 36.1543C12.7409 36.5736 13.1533 36.7832 13.6865 36.7832C14.3656 36.7832 14.8623 36.4801 15.1768 35.874V32.7158C14.8714 32.1234 14.3792 31.8271 13.7002 31.8271C13.1624 31.8271 12.7477 32.0413 12.4561 32.4697C12.1644 32.8936 12.0186 33.5339 12.0186 34.3906ZM18.2598 34.2334C18.2598 33.5088 18.4033 32.8571 18.6904 32.2783C18.9775 31.695 19.3809 31.2484 19.9004 30.9385C20.4199 30.624 21.0169 30.4668 21.6914 30.4668C22.6895 30.4668 23.4984 30.7881 24.1182 31.4307C24.7425 32.0732 25.0798 32.9255 25.1299 33.9873L25.1367 34.377C25.1367 35.1061 24.9954 35.7578 24.7129 36.332C24.4349 36.9062 24.0339 37.3506 23.5098 37.665C22.9902 37.9795 22.3887 38.1367 21.7051 38.1367C20.6615 38.1367 19.8252 37.7904 19.1963 37.0977C18.5719 36.4004 18.2598 35.473 18.2598 34.3154V34.2334ZM19.9209 34.377C19.9209 35.138 20.0781 35.735 20.3926 36.168C20.707 36.5964 21.1445 36.8105 21.7051 36.8105C22.2656 36.8105 22.7008 36.5918 23.0107 36.1543C23.3252 35.7168 23.4824 35.0765 23.4824 34.2334C23.4824 33.486 23.3206 32.8936 22.9971 32.4561C22.6781 32.0186 22.2428 31.7998 21.6914 31.7998C21.1491 31.7998 20.7184 32.0163 20.3994 32.4492C20.0804 32.8776 19.9209 33.5202 19.9209 34.377ZM29.5801 36.8105C29.9948 36.8105 30.3389 36.6898 30.6123 36.4482C30.8857 36.2067 31.0316 35.9082 31.0498 35.5527H32.6152C32.597 36.013 32.4535 36.4437 32.1846 36.8447C31.9157 37.2412 31.5511 37.5557 31.0908 37.7881C30.6305 38.0205 30.1338 38.1367 29.6006 38.1367C28.5661 38.1367 27.7458 37.8018 27.1396 37.1318C26.5335 36.4619 26.2305 35.5368 26.2305 34.3564V34.1855C26.2305 33.0599 26.5312 32.1598 27.1328 31.4854C27.7344 30.8063 28.5547 30.4668 29.5938 30.4668C30.4733 30.4668 31.1888 30.7243 31.7402 31.2393C32.2962 31.7497 32.5879 32.4219 32.6152 33.2559H31.0498C31.0316 32.832 30.8857 32.4834 30.6123 32.21C30.3434 31.9365 29.9993 31.7998 29.5801 31.7998C29.0423 31.7998 28.6276 31.9958 28.3359 32.3877C28.0443 32.7751 27.8962 33.3652 27.8916 34.1582V34.4248C27.8916 35.2269 28.0352 35.8262 28.3223 36.2227C28.6139 36.6146 29.0332 36.8105 29.5801 36.8105ZM38.3506 37.2754C37.863 37.8496 37.1702 38.1367 36.2725 38.1367C35.4704 38.1367 34.862 37.902 34.4473 37.4326C34.0371 36.9632 33.832 36.2842 33.832 35.3955V30.6035H35.4932V35.375C35.4932 36.3138 35.8828 36.7832 36.6621 36.7832C37.4688 36.7832 38.0133 36.4938 38.2959 35.915V30.6035H39.957V38H38.3916L38.3506 37.2754ZM43.2109 30.6035L43.2588 31.376C43.7783 30.7699 44.4893 30.4668 45.3916 30.4668C46.3805 30.4668 47.0573 30.8451 47.4219 31.6016C47.9596 30.8451 48.7161 30.4668 49.6914 30.4668C50.5072 30.4668 51.1133 30.6924 51.5098 31.1436C51.9108 31.5947 52.1159 32.2601 52.125 33.1396V38H50.4639V33.1875C50.4639 32.7181 50.3613 32.374 50.1562 32.1553C49.9512 31.9365 49.6117 31.8271 49.1377 31.8271C48.7594 31.8271 48.4495 31.9297 48.208 32.1348C47.971 32.3353 47.8047 32.5996 47.709 32.9277L47.7158 38H46.0547V33.1328C46.0319 32.2624 45.5876 31.8271 44.7217 31.8271C44.0563 31.8271 43.5846 32.0983 43.3066 32.6406V38H41.6455V30.6035H43.2109ZM57.0879 38.1367C56.0352 38.1367 55.1807 37.8063 54.5244 37.1455C53.8727 36.4801 53.5469 35.596 53.5469 34.4932V34.2881C53.5469 33.5498 53.6882 32.8913 53.9707 32.3125C54.2578 31.7292 54.6589 31.2757 55.1738 30.9521C55.6888 30.6286 56.263 30.4668 56.8965 30.4668C57.9036 30.4668 58.6807 30.7881 59.2275 31.4307C59.779 32.0732 60.0547 32.9824 60.0547 34.1582V34.8281H55.2217C55.2718 35.4388 55.4746 35.9219 55.8301 36.2773C56.1901 36.6328 56.6413 36.8105 57.1836 36.8105C57.9447 36.8105 58.5645 36.5029 59.043 35.8877L59.9385 36.7422C59.6423 37.1842 59.2458 37.5283 58.749 37.7744C58.2568 38.016 57.7031 38.1367 57.0879 38.1367ZM56.8896 31.7998C56.4339 31.7998 56.0648 31.9593 55.7822 32.2783C55.5042 32.5973 55.3265 33.0417 55.249 33.6113H58.4141V33.4883C58.3776 32.9323 58.2295 32.513 57.9697 32.2305C57.71 31.9434 57.3499 31.7998 56.8896 31.7998ZM62.8916 30.6035L62.9395 31.458C63.4863 30.7972 64.2041 30.4668 65.0928 30.4668C66.6331 30.4668 67.417 31.3486 67.4443 33.1123V38H65.7832V33.208C65.7832 32.7386 65.6807 32.3923 65.4756 32.1689C65.2751 31.9411 64.9447 31.8271 64.4844 31.8271C63.8145 31.8271 63.3154 32.1302 62.9873 32.7363V38H61.3262V30.6035H62.8916ZM71.2246 28.8057V30.6035H72.5303V31.834H71.2246V35.9629C71.2246 36.2454 71.2793 36.4505 71.3887 36.5781C71.5026 36.7012 71.7031 36.7627 71.9902 36.7627C72.1816 36.7627 72.3753 36.7399 72.5713 36.6943V37.9795C72.193 38.0843 71.8285 38.1367 71.4775 38.1367C70.2015 38.1367 69.5635 37.4326 69.5635 36.0244V31.834H68.3467V30.6035H69.5635V28.8057H71.2246ZM78.8535 30.6035L78.9014 31.376C79.4209 30.7699 80.1318 30.4668 81.0342 30.4668C82.0231 30.4668 82.6999 30.8451 83.0645 31.6016C83.6022 30.8451 84.3587 30.4668 85.334 30.4668C86.1497 30.4668 86.7559 30.6924 87.1523 31.1436C87.5534 31.5947 87.7585 32.2601 87.7676 33.1396V38H86.1064V33.1875C86.1064 32.7181 86.0039 32.374 85.7988 32.1553C85.5938 31.9365 85.2542 31.8271 84.7803 31.8271C84.402 31.8271 84.0921 31.9297 83.8506 32.1348C83.6136 32.3353 83.4473 32.5996 83.3516 32.9277L83.3584 38H81.6973V33.1328C81.6745 32.2624 81.2301 31.8271 80.3643 31.8271C79.6989 31.8271 79.2272 32.0983 78.9492 32.6406V38H77.2881V30.6035H78.8535ZM93.8926 38C93.8197 37.8587 93.7559 37.6286 93.7012 37.3096C93.1725 37.861 92.5254 38.1367 91.7598 38.1367C91.0169 38.1367 90.4108 37.9248 89.9414 37.501C89.472 37.0771 89.2373 36.5531 89.2373 35.9287C89.2373 35.1403 89.529 34.5365 90.1123 34.1172C90.7002 33.6934 91.5387 33.4814 92.6279 33.4814H93.6465V32.9961C93.6465 32.6133 93.5394 32.3079 93.3252 32.0801C93.111 31.8477 92.7852 31.7314 92.3477 31.7314C91.9694 31.7314 91.6595 31.8271 91.418 32.0186C91.1764 32.2054 91.0557 32.4447 91.0557 32.7363H89.3945C89.3945 32.3307 89.529 31.9525 89.7979 31.6016C90.0667 31.2461 90.4313 30.9681 90.8916 30.7676C91.3564 30.5671 91.8737 30.4668 92.4434 30.4668C93.3092 30.4668 93.9997 30.6855 94.5146 31.123C95.0296 31.556 95.2939 32.1667 95.3076 32.9551V36.291C95.3076 36.9564 95.401 37.4873 95.5879 37.8838V38H93.8926ZM92.0674 36.8037C92.3955 36.8037 92.7031 36.724 92.9902 36.5645C93.2819 36.4049 93.5007 36.1908 93.6465 35.9219V34.5273H92.751C92.1357 34.5273 91.6732 34.6344 91.3633 34.8486C91.0534 35.0628 90.8984 35.3659 90.8984 35.7578C90.8984 36.0768 91.0033 36.332 91.2129 36.5234C91.4271 36.7103 91.7119 36.8037 92.0674 36.8037ZM98.5889 30.6035L98.6367 31.458C99.1836 30.7972 99.9014 30.4668 100.79 30.4668C102.33 30.4668 103.114 31.3486 103.142 33.1123V38H101.48V33.208C101.48 32.7386 101.378 32.3923 101.173 32.1689C100.972 31.9411 100.642 31.8271 100.182 31.8271C99.5117 31.8271 99.0127 32.1302 98.6846 32.7363V38H97.0234V30.6035H98.5889ZM109.26 38C109.187 37.8587 109.123 37.6286 109.068 37.3096C108.54 37.861 107.893 38.1367 107.127 38.1367C106.384 38.1367 105.778 37.9248 105.309 37.501C104.839 37.0771 104.604 36.5531 104.604 35.9287C104.604 35.1403 104.896 34.5365 105.479 34.1172C106.067 33.6934 106.906 33.4814 107.995 33.4814H109.014V32.9961C109.014 32.6133 108.907 32.3079 108.692 32.0801C108.478 31.8477 108.152 31.7314 107.715 31.7314C107.337 31.7314 107.027 31.8271 106.785 32.0186C106.544 32.2054 106.423 32.4447 106.423 32.7363H104.762C104.762 32.3307 104.896 31.9525 105.165 31.6016C105.434 31.2461 105.799 30.9681 106.259 30.7676C106.724 30.5671 107.241 30.4668 107.811 30.4668C108.676 30.4668 109.367 30.6855 109.882 31.123C110.397 31.556 110.661 32.1667 110.675 32.9551V36.291C110.675 36.9564 110.768 37.4873 110.955 37.8838V38H109.26ZM107.435 36.8037C107.763 36.8037 108.07 36.724 108.357 36.5645C108.649 36.4049 108.868 36.1908 109.014 35.9219V34.5273H108.118C107.503 34.5273 107.04 34.6344 106.73 34.8486C106.421 35.0628 106.266 35.3659 106.266 35.7578C106.266 36.0768 106.37 36.332 106.58 36.5234C106.794 36.7103 107.079 36.8037 107.435 36.8037ZM112.124 34.2471C112.124 33.0986 112.393 32.1826 112.931 31.499C113.473 30.8109 114.191 30.4668 115.084 30.4668C115.927 30.4668 116.59 30.7607 117.073 31.3486L117.148 30.6035H118.646V37.7744C118.646 38.7451 118.342 39.5107 117.736 40.0713C117.135 40.6318 116.321 40.9121 115.296 40.9121C114.754 40.9121 114.223 40.7982 113.703 40.5703C113.188 40.347 112.796 40.0531 112.527 39.6885L113.313 38.6904C113.824 39.2965 114.453 39.5996 115.2 39.5996C115.752 39.5996 116.187 39.4492 116.506 39.1484C116.825 38.8522 116.984 38.4147 116.984 37.8359V37.3369C116.506 37.8701 115.868 38.1367 115.07 38.1367C114.204 38.1367 113.496 37.7926 112.944 37.1045C112.397 36.4163 112.124 35.4639 112.124 34.2471ZM113.778 34.3906C113.778 35.1335 113.929 35.7191 114.229 36.1475C114.535 36.5713 114.956 36.7832 115.494 36.7832C116.164 36.7832 116.661 36.4961 116.984 35.9219V32.668C116.67 32.1074 116.178 31.8271 115.508 31.8271C114.961 31.8271 114.535 32.0436 114.229 32.4766C113.929 32.9095 113.778 33.5475 113.778 34.3906ZM123.615 38.1367C122.562 38.1367 121.708 37.8063 121.052 37.1455C120.4 36.4801 120.074 35.596 120.074 34.4932V34.2881C120.074 33.5498 120.215 32.8913 120.498 32.3125C120.785 31.7292 121.186 31.2757 121.701 30.9521C122.216 30.6286 122.79 30.4668 123.424 30.4668C124.431 30.4668 125.208 30.7881 125.755 31.4307C126.306 32.0732 126.582 32.9824 126.582 34.1582V34.8281H121.749C121.799 35.4388 122.002 35.9219 122.357 36.2773C122.717 36.6328 123.169 36.8105 123.711 36.8105C124.472 36.8105 125.092 36.5029 125.57 35.8877L126.466 36.7422C126.17 37.1842 125.773 37.5283 125.276 37.7744C124.784 38.016 124.23 38.1367 123.615 38.1367ZM123.417 31.7998C122.961 31.7998 122.592 31.9593 122.31 32.2783C122.032 32.5973 121.854 33.0417 121.776 33.6113H124.941V33.4883C124.905 32.9323 124.757 32.513 124.497 32.2305C124.237 31.9434 123.877 31.7998 123.417 31.7998ZM129.439 30.6035L129.487 31.376C130.007 30.7699 130.718 30.4668 131.62 30.4668C132.609 30.4668 133.286 30.8451 133.65 31.6016C134.188 30.8451 134.945 30.4668 135.92 30.4668C136.736 30.4668 137.342 30.6924 137.738 31.1436C138.139 31.5947 138.344 32.2601 138.354 33.1396V38H136.692V33.1875C136.692 32.7181 136.59 32.374 136.385 32.1553C136.18 31.9365 135.84 31.8271 135.366 31.8271C134.988 31.8271 134.678 31.9297 134.437 32.1348C134.2 32.3353 134.033 32.5996 133.938 32.9277L133.944 38H132.283V33.1328C132.26 32.2624 131.816 31.8271 130.95 31.8271C130.285 31.8271 129.813 32.0983 129.535 32.6406V38H127.874V30.6035H129.439ZM143.316 38.1367C142.264 38.1367 141.409 37.8063 140.753 37.1455C140.101 36.4801 139.775 35.596 139.775 34.4932V34.2881C139.775 33.5498 139.917 32.8913 140.199 32.3125C140.486 31.7292 140.887 31.2757 141.402 30.9521C141.917 30.6286 142.492 30.4668 143.125 30.4668C144.132 30.4668 144.909 30.7881 145.456 31.4307C146.007 32.0732 146.283 32.9824 146.283 34.1582V34.8281H141.45C141.5 35.4388 141.703 35.9219 142.059 36.2773C142.419 36.6328 142.87 36.8105 143.412 36.8105C144.173 36.8105 144.793 36.5029 145.271 35.8877L146.167 36.7422C145.871 37.1842 145.474 37.5283 144.978 37.7744C144.485 38.016 143.932 38.1367 143.316 38.1367ZM143.118 31.7998C142.662 31.7998 142.293 31.9593 142.011 32.2783C141.733 32.5973 141.555 33.0417 141.478 33.6113H144.643V33.4883C144.606 32.9323 144.458 32.513 144.198 32.2305C143.938 31.9434 143.578 31.7998 143.118 31.7998ZM149.12 30.6035L149.168 31.458C149.715 30.7972 150.433 30.4668 151.321 30.4668C152.862 30.4668 153.646 31.3486 153.673 33.1123V38H152.012V33.208C152.012 32.7386 151.909 32.3923 151.704 32.1689C151.504 31.9411 151.173 31.8271 150.713 31.8271C150.043 31.8271 149.544 32.1302 149.216 32.7363V38H147.555V30.6035H149.12ZM157.453 28.8057V30.6035H158.759V31.834H157.453V35.9629C157.453 36.2454 157.508 36.4505 157.617 36.5781C157.731 36.7012 157.932 36.7627 158.219 36.7627C158.41 36.7627 158.604 36.7399 158.8 36.6943V37.9795C158.422 38.0843 158.057 38.1367 157.706 38.1367C156.43 38.1367 155.792 37.4326 155.792 36.0244V31.834H154.575V30.6035H155.792V28.8057H157.453ZM66.6719 50.9902C66.6719 50.694 66.5488 50.4684 66.3027 50.3135C66.0612 50.1585 65.6579 50.0218 65.0928 49.9033C64.5277 49.7848 64.056 49.6344 63.6777 49.4521C62.8483 49.0511 62.4336 48.4701 62.4336 47.709C62.4336 47.071 62.7025 46.5378 63.2402 46.1094C63.778 45.681 64.4616 45.4668 65.291 45.4668C66.1751 45.4668 66.8883 45.6855 67.4307 46.123C67.9775 46.5605 68.251 47.1279 68.251 47.8252H66.5898C66.5898 47.5062 66.4714 47.2419 66.2344 47.0322C65.9974 46.818 65.6829 46.7109 65.291 46.7109C64.9264 46.7109 64.6279 46.7952 64.3955 46.9639C64.1676 47.1325 64.0537 47.3581 64.0537 47.6406C64.0537 47.8958 64.1608 48.0941 64.375 48.2354C64.5892 48.3766 65.0221 48.5202 65.6738 48.666C66.3255 48.8073 66.8359 48.9782 67.2051 49.1787C67.5788 49.3747 67.8545 49.6117 68.0322 49.8896C68.2145 50.1676 68.3057 50.5049 68.3057 50.9014C68.3057 51.5667 68.0299 52.1068 67.4785 52.5215C66.9271 52.9316 66.2048 53.1367 65.3115 53.1367C64.7054 53.1367 64.1654 53.0273 63.6914 52.8086C63.2174 52.5898 62.8483 52.2891 62.584 51.9062C62.3197 51.5234 62.1875 51.111 62.1875 50.6689H63.8008C63.8236 51.0609 63.9717 51.3639 64.2451 51.5781C64.5186 51.7878 64.8809 51.8926 65.332 51.8926C65.7695 51.8926 66.1022 51.8105 66.3301 51.6465C66.5579 51.4779 66.6719 51.2591 66.6719 50.9902ZM72.3457 50.6211L73.8496 45.6035H75.6201L72.6807 54.1211C72.2295 55.3652 71.4639 55.9873 70.3838 55.9873C70.1423 55.9873 69.8757 55.9463 69.584 55.8643V54.5791L69.8984 54.5996C70.3177 54.5996 70.6322 54.5221 70.8418 54.3672C71.056 54.2168 71.2246 53.9616 71.3477 53.6016L71.5869 52.9658L68.9893 45.6035H70.7803L72.3457 50.6211ZM80.7266 50.9902C80.7266 50.694 80.6035 50.4684 80.3574 50.3135C80.1159 50.1585 79.7126 50.0218 79.1475 49.9033C78.5824 49.7848 78.1107 49.6344 77.7324 49.4521C76.903 49.0511 76.4883 48.4701 76.4883 47.709C76.4883 47.071 76.7572 46.5378 77.2949 46.1094C77.8327 45.681 78.5163 45.4668 79.3457 45.4668C80.2298 45.4668 80.943 45.6855 81.4854 46.123C82.0322 46.5605 82.3057 47.1279 82.3057 47.8252H80.6445C80.6445 47.5062 80.526 47.2419 80.2891 47.0322C80.0521 46.818 79.7376 46.7109 79.3457 46.7109C78.9811 46.7109 78.6826 46.7952 78.4502 46.9639C78.2223 47.1325 78.1084 47.3581 78.1084 47.6406C78.1084 47.8958 78.2155 48.0941 78.4297 48.2354C78.6439 48.3766 79.0768 48.5202 79.7285 48.666C80.3802 48.8073 80.8906 48.9782 81.2598 49.1787C81.6335 49.3747 81.9092 49.6117 82.0869 49.8896C82.2692 50.1676 82.3604 50.5049 82.3604 50.9014C82.3604 51.5667 82.0846 52.1068 81.5332 52.5215C80.9818 52.9316 80.2594 53.1367 79.3662 53.1367C78.7601 53.1367 78.2201 53.0273 77.7461 52.8086C77.2721 52.5898 76.903 52.2891 76.6387 51.9062C76.3743 51.5234 76.2422 51.111 76.2422 50.6689H77.8555C77.8783 51.0609 78.0264 51.3639 78.2998 51.5781C78.5732 51.7878 78.9355 51.8926 79.3867 51.8926C79.8242 51.8926 80.1569 51.8105 80.3848 51.6465C80.6126 51.4779 80.7266 51.2591 80.7266 50.9902ZM85.8945 43.8057V45.6035H87.2002V46.834H85.8945V50.9629C85.8945 51.2454 85.9492 51.4505 86.0586 51.5781C86.1725 51.7012 86.373 51.7627 86.6602 51.7627C86.8516 51.7627 87.0452 51.7399 87.2412 51.6943V52.9795C86.863 53.0843 86.4984 53.1367 86.1475 53.1367C84.8714 53.1367 84.2334 52.4326 84.2334 51.0244V46.834H83.0166V45.6035H84.2334V43.8057H85.8945ZM91.7324 53.1367C90.6797 53.1367 89.8252 52.8063 89.1689 52.1455C88.5173 51.4801 88.1914 50.596 88.1914 49.4932V49.2881C88.1914 48.5498 88.3327 47.8913 88.6152 47.3125C88.9023 46.7292 89.3034 46.2757 89.8184 45.9521C90.3333 45.6286 90.9076 45.4668 91.541 45.4668C92.5482 45.4668 93.3252 45.7881 93.8721 46.4307C94.4235 47.0732 94.6992 47.9824 94.6992 49.1582V49.8281H89.8662C89.9163 50.4388 90.1191 50.9219 90.4746 51.2773C90.8346 51.6328 91.2858 51.8105 91.8281 51.8105C92.5892 51.8105 93.209 51.5029 93.6875 50.8877L94.583 51.7422C94.2868 52.1842 93.8903 52.5283 93.3936 52.7744C92.9014 53.016 92.3477 53.1367 91.7324 53.1367ZM91.5342 46.7998C91.0785 46.7998 90.7093 46.9593 90.4268 47.2783C90.1488 47.5973 89.971 48.0417 89.8936 48.6113H93.0586V48.4883C93.0221 47.9323 92.874 47.513 92.6143 47.2305C92.3545 46.9434 91.9945 46.7998 91.5342 46.7998ZM97.5566 45.6035L97.6045 46.376C98.124 45.7699 98.835 45.4668 99.7373 45.4668C100.726 45.4668 101.403 45.8451 101.768 46.6016C102.305 45.8451 103.062 45.4668 104.037 45.4668C104.853 45.4668 105.459 45.6924 105.855 46.1436C106.257 46.5947 106.462 47.2601 106.471 48.1396V53H104.81V48.1875C104.81 47.7181 104.707 47.374 104.502 47.1553C104.297 46.9365 103.957 46.8271 103.483 46.8271C103.105 46.8271 102.795 46.9297 102.554 47.1348C102.317 47.3353 102.15 47.5996 102.055 47.9277L102.062 53H100.4V48.1328C100.378 47.2624 99.9333 46.8271 99.0674 46.8271C98.402 46.8271 97.9303 47.0983 97.6523 47.6406V53H95.9912V45.6035H97.5566Z" fill="#454B50"/>
<path d="M342.261 26.2832C342.261 27.2585 342.092 28.1152 341.755 28.8535C341.418 29.5872 340.935 30.1523 340.306 30.5488C339.681 30.9408 338.961 31.1367 338.146 31.1367C337.339 31.1367 336.619 30.9408 335.985 30.5488C335.356 30.1523 334.869 29.5895 334.522 28.8604C334.181 28.1312 334.007 27.2904 334.003 26.3379V25.7773C334.003 24.8066 334.174 23.9499 334.516 23.207C334.862 22.4642 335.347 21.8968 335.972 21.5049C336.601 21.1084 337.321 20.9102 338.132 20.9102C338.943 20.9102 339.661 21.1061 340.285 21.498C340.914 21.8854 341.399 22.446 341.741 23.1797C342.083 23.9089 342.256 24.7588 342.261 25.7295V26.2832ZM340.531 25.7637C340.531 24.6608 340.322 23.8154 339.902 23.2275C339.488 22.6396 338.897 22.3457 338.132 22.3457C337.384 22.3457 336.799 22.6396 336.375 23.2275C335.956 23.8109 335.742 24.638 335.732 25.709V26.2832C335.732 27.377 335.944 28.2223 336.368 28.8193C336.797 29.4163 337.389 29.7148 338.146 29.7148C338.911 29.7148 339.499 29.4232 339.909 28.8398C340.324 28.2565 340.531 27.4043 340.531 26.2832V25.7637ZM350.3 27.377C350.3 28.5208 350.04 29.4346 349.521 30.1182C349.001 30.7972 348.304 31.1367 347.429 31.1367C346.618 31.1367 345.968 30.8701 345.48 30.3369V33.8438H343.819V23.6035H345.351L345.419 24.3555C345.907 23.763 346.57 23.4668 347.408 23.4668C348.311 23.4668 349.017 23.804 349.527 24.4785C350.042 25.1484 350.3 26.0804 350.3 27.2744V27.377ZM348.646 27.2334C348.646 26.4951 348.497 25.9095 348.201 25.4766C347.91 25.0436 347.49 24.8271 346.943 24.8271C346.264 24.8271 345.777 25.1074 345.48 25.668V28.9492C345.781 29.5234 346.273 29.8105 346.957 29.8105C347.486 29.8105 347.898 29.5986 348.194 29.1748C348.495 28.7464 348.646 28.0993 348.646 27.2334ZM354.969 31.1367C353.916 31.1367 353.062 30.8063 352.405 30.1455C351.754 29.4801 351.428 28.596 351.428 27.4932V27.2881C351.428 26.5498 351.569 25.8913 351.852 25.3125C352.139 24.7292 352.54 24.2757 353.055 23.9521C353.57 23.6286 354.144 23.4668 354.777 23.4668C355.785 23.4668 356.562 23.7881 357.108 24.4307C357.66 25.0732 357.936 25.9824 357.936 27.1582V27.8281H353.103C353.153 28.4388 353.355 28.9219 353.711 29.2773C354.071 29.6328 354.522 29.8105 355.064 29.8105C355.826 29.8105 356.445 29.5029 356.924 28.8877L357.819 29.7422C357.523 30.1842 357.127 30.5283 356.63 30.7744C356.138 31.016 355.584 31.1367 354.969 31.1367ZM354.771 24.7998C354.315 24.7998 353.946 24.9593 353.663 25.2783C353.385 25.5973 353.207 26.0417 353.13 26.6113H356.295V26.4883C356.258 25.9323 356.11 25.513 355.851 25.2305C355.591 24.9434 355.231 24.7998 354.771 24.7998ZM360.772 23.6035L360.82 24.458C361.367 23.7972 362.085 23.4668 362.974 23.4668C364.514 23.4668 365.298 24.3486 365.325 26.1123V31H363.664V26.208C363.664 25.7386 363.562 25.3923 363.356 25.1689C363.156 24.9411 362.826 24.8271 362.365 24.8271C361.695 24.8271 361.196 25.1302 360.868 25.7363V31H359.207V23.6035H360.772ZM372.756 28.6826H368.9L368.094 31H366.296L370.056 21.0469H371.607L375.374 31H373.569L372.756 28.6826ZM369.386 27.2881H372.271L370.828 23.1592L369.386 27.2881ZM378.307 21.8057V23.6035H379.612V24.834H378.307V28.9629C378.307 29.2454 378.361 29.4505 378.471 29.5781C378.585 29.7012 378.785 29.7627 379.072 29.7627C379.264 29.7627 379.457 29.7399 379.653 29.6943V30.9795C379.275 31.0843 378.91 31.1367 378.56 31.1367C377.284 31.1367 376.646 30.4326 376.646 29.0244V24.834H375.429V23.6035H376.646V21.8057H378.307ZM382.969 21.8057V23.6035H384.274V24.834H382.969V28.9629C382.969 29.2454 383.023 29.4505 383.133 29.5781C383.247 29.7012 383.447 29.7627 383.734 29.7627C383.926 29.7627 384.119 29.7399 384.315 29.6943V30.9795C383.937 31.0843 383.573 31.1367 383.222 31.1367C381.946 31.1367 381.308 30.4326 381.308 29.0244V24.834H380.091V23.6035H381.308V21.8057H382.969ZM388.807 31.1367C387.754 31.1367 386.899 30.8063 386.243 30.1455C385.591 29.4801 385.266 28.596 385.266 27.4932V27.2881C385.266 26.5498 385.407 25.8913 385.689 25.3125C385.977 24.7292 386.378 24.2757 386.893 23.9521C387.408 23.6286 387.982 23.4668 388.615 23.4668C389.622 23.4668 390.399 23.7881 390.946 24.4307C391.498 25.0732 391.773 25.9824 391.773 27.1582V27.8281H386.94C386.991 28.4388 387.193 28.9219 387.549 29.2773C387.909 29.6328 388.36 29.8105 388.902 29.8105C389.663 29.8105 390.283 29.5029 390.762 28.8877L391.657 29.7422C391.361 30.1842 390.965 30.5283 390.468 30.7744C389.976 31.016 389.422 31.1367 388.807 31.1367ZM388.608 24.7998C388.153 24.7998 387.784 24.9593 387.501 25.2783C387.223 25.5973 387.045 26.0417 386.968 26.6113H390.133V26.4883C390.096 25.9323 389.948 25.513 389.688 25.2305C389.429 24.9434 389.069 24.7998 388.608 24.7998ZM397.215 28.9902C397.215 28.694 397.092 28.4684 396.846 28.3135C396.604 28.1585 396.201 28.0218 395.636 27.9033C395.071 27.7848 394.599 27.6344 394.221 27.4521C393.391 27.0511 392.977 26.4701 392.977 25.709C392.977 25.071 393.245 24.5378 393.783 24.1094C394.321 23.681 395.005 23.4668 395.834 23.4668C396.718 23.4668 397.431 23.6855 397.974 24.123C398.521 24.5605 398.794 25.1279 398.794 25.8252H397.133C397.133 25.5062 397.014 25.2419 396.777 25.0322C396.54 24.818 396.226 24.7109 395.834 24.7109C395.469 24.7109 395.171 24.7952 394.938 24.9639C394.711 25.1325 394.597 25.3581 394.597 25.6406C394.597 25.8958 394.704 26.0941 394.918 26.2354C395.132 26.3766 395.565 26.5202 396.217 26.666C396.868 26.8073 397.379 26.9782 397.748 27.1787C398.122 27.3747 398.397 27.6117 398.575 27.8896C398.757 28.1676 398.849 28.5049 398.849 28.9014C398.849 29.5667 398.573 30.1068 398.021 30.5215C397.47 30.9316 396.748 31.1367 395.854 31.1367C395.248 31.1367 394.708 31.0273 394.234 30.8086C393.76 30.5898 393.391 30.2891 393.127 29.9062C392.863 29.5234 392.73 29.111 392.73 28.6689H394.344C394.367 29.0609 394.515 29.3639 394.788 29.5781C395.062 29.7878 395.424 29.8926 395.875 29.8926C396.312 29.8926 396.645 29.8105 396.873 29.6465C397.101 29.4779 397.215 29.2591 397.215 28.9902ZM402.383 21.8057V23.6035H403.688V24.834H402.383V28.9629C402.383 29.2454 402.438 29.4505 402.547 29.5781C402.661 29.7012 402.861 29.7627 403.148 29.7627C403.34 29.7627 403.534 29.7399 403.729 29.6943V30.9795C403.351 31.0843 402.987 31.1367 402.636 31.1367C401.36 31.1367 400.722 30.4326 400.722 29.0244V24.834H399.505V23.6035H400.722V21.8057H402.383ZM409.383 31C409.31 30.8587 409.246 30.6286 409.191 30.3096C408.663 30.861 408.016 31.1367 407.25 31.1367C406.507 31.1367 405.901 30.9248 405.432 30.501C404.962 30.0771 404.728 29.5531 404.728 28.9287C404.728 28.1403 405.019 27.5365 405.603 27.1172C406.19 26.6934 407.029 26.4814 408.118 26.4814H409.137V25.9961C409.137 25.6133 409.03 25.3079 408.815 25.0801C408.601 24.8477 408.275 24.7314 407.838 24.7314C407.46 24.7314 407.15 24.8271 406.908 25.0186C406.667 25.2054 406.546 25.4447 406.546 25.7363H404.885C404.885 25.3307 405.019 24.9525 405.288 24.6016C405.557 24.2461 405.922 23.9681 406.382 23.7676C406.847 23.5671 407.364 23.4668 407.934 23.4668C408.799 23.4668 409.49 23.6855 410.005 24.123C410.52 24.556 410.784 25.1667 410.798 25.9551V29.291C410.798 29.9564 410.891 30.4873 411.078 30.8838V31H409.383ZM407.558 29.8037C407.886 29.8037 408.193 29.724 408.48 29.5645C408.772 29.4049 408.991 29.1908 409.137 28.9219V27.5273H408.241C407.626 27.5273 407.163 27.6344 406.854 27.8486C406.544 28.0628 406.389 28.3659 406.389 28.7578C406.389 29.0768 406.493 29.332 406.703 29.5234C406.917 29.7103 407.202 29.8037 407.558 29.8037ZM414.619 21.8057V23.6035H415.925V24.834H414.619V28.9629C414.619 29.2454 414.674 29.4505 414.783 29.5781C414.897 29.7012 415.098 29.7627 415.385 29.7627C415.576 29.7627 415.77 29.7399 415.966 29.6943V30.9795C415.588 31.0843 415.223 31.1367 414.872 31.1367C413.596 31.1367 412.958 30.4326 412.958 29.0244V24.834H411.741V23.6035H412.958V21.8057H414.619ZM418.967 31H417.306V23.6035H418.967V31ZM417.203 21.6826C417.203 21.4274 417.283 21.2155 417.442 21.0469C417.606 20.8783 417.839 20.7939 418.14 20.7939C418.44 20.7939 418.673 20.8783 418.837 21.0469C419.001 21.2155 419.083 21.4274 419.083 21.6826C419.083 21.9333 419.001 22.1429 418.837 22.3115C418.673 22.4756 418.44 22.5576 418.14 22.5576C417.839 22.5576 417.606 22.4756 417.442 22.3115C417.283 22.1429 417.203 21.9333 417.203 21.6826ZM420.471 27.2334C420.471 26.5088 420.614 25.8571 420.901 25.2783C421.188 24.695 421.592 24.2484 422.111 23.9385C422.631 23.624 423.228 23.4668 423.902 23.4668C424.9 23.4668 425.709 23.7881 426.329 24.4307C426.953 25.0732 427.291 25.9255 427.341 26.9873L427.348 27.377C427.348 28.1061 427.206 28.7578 426.924 29.332C426.646 29.9062 426.245 30.3506 425.721 30.665C425.201 30.9795 424.6 31.1367 423.916 31.1367C422.872 31.1367 422.036 30.7904 421.407 30.0977C420.783 29.4004 420.471 28.473 420.471 27.3154V27.2334ZM422.132 27.377C422.132 28.138 422.289 28.735 422.604 29.168C422.918 29.5964 423.355 29.8105 423.916 29.8105C424.477 29.8105 424.912 29.5918 425.222 29.1543C425.536 28.7168 425.693 28.0765 425.693 27.2334C425.693 26.486 425.532 25.8936 425.208 25.4561C424.889 25.0186 424.454 24.7998 423.902 24.7998C423.36 24.7998 422.929 25.0163 422.61 25.4492C422.291 25.8776 422.132 26.5202 422.132 27.377ZM430.294 23.6035L430.342 24.458C430.889 23.7972 431.606 23.4668 432.495 23.4668C434.035 23.4668 434.819 24.3486 434.847 26.1123V31H433.186V26.208C433.186 25.7386 433.083 25.3923 432.878 25.1689C432.677 24.9411 432.347 24.8271 431.887 24.8271C431.217 24.8271 430.718 25.1302 430.39 25.7363V31H428.729V23.6035H430.294ZM335.097 46V39.834H333.969V38.6035H335.097V37.9268C335.097 37.1064 335.325 36.473 335.78 36.0264C336.236 35.5798 336.874 35.3564 337.694 35.3564C337.986 35.3564 338.296 35.3975 338.624 35.4795L338.583 36.7783C338.401 36.7419 338.189 36.7236 337.947 36.7236C337.154 36.7236 336.758 37.1315 336.758 37.9473V38.6035H338.262V39.834H336.758V46H335.097ZM339.164 42.2334C339.164 41.5088 339.308 40.8571 339.595 40.2783C339.882 39.695 340.285 39.2484 340.805 38.9385C341.324 38.624 341.921 38.4668 342.596 38.4668C343.594 38.4668 344.403 38.7881 345.022 39.4307C345.647 40.0732 345.984 40.9255 346.034 41.9873L346.041 42.377C346.041 43.1061 345.9 43.7578 345.617 44.332C345.339 44.9062 344.938 45.3506 344.414 45.665C343.895 45.9795 343.293 46.1367 342.609 46.1367C341.566 46.1367 340.729 45.7904 340.101 45.0977C339.476 44.4004 339.164 43.473 339.164 42.3154V42.2334ZM340.825 42.377C340.825 43.138 340.982 43.735 341.297 44.168C341.611 44.5964 342.049 44.8105 342.609 44.8105C343.17 44.8105 343.605 44.5918 343.915 44.1543C344.229 43.7168 344.387 43.0765 344.387 42.2334C344.387 41.486 344.225 40.8936 343.901 40.4561C343.582 40.0186 343.147 39.7998 342.596 39.7998C342.053 39.7998 341.623 40.0163 341.304 40.4492C340.985 40.8776 340.825 41.5202 340.825 42.377ZM351.318 40.1211C351.1 40.0846 350.874 40.0664 350.642 40.0664C349.881 40.0664 349.368 40.3581 349.104 40.9414V46H347.442V38.6035H349.028L349.069 39.4307C349.47 38.7881 350.026 38.4668 350.737 38.4668C350.974 38.4668 351.17 38.4987 351.325 38.5625L351.318 40.1211ZM353.93 38.6035L353.978 39.376C354.497 38.7699 355.208 38.4668 356.11 38.4668C357.099 38.4668 357.776 38.8451 358.141 39.6016C358.678 38.8451 359.435 38.4668 360.41 38.4668C361.226 38.4668 361.832 38.6924 362.229 39.1436C362.63 39.5947 362.835 40.2601 362.844 41.1396V46H361.183V41.1875C361.183 40.7181 361.08 40.374 360.875 40.1553C360.67 39.9365 360.33 39.8271 359.856 39.8271C359.478 39.8271 359.168 39.9297 358.927 40.1348C358.69 40.3353 358.523 40.5996 358.428 40.9277L358.435 46H356.773V41.1328C356.751 40.2624 356.306 39.8271 355.44 39.8271C354.775 39.8271 354.303 40.0983 354.025 40.6406V46H352.364V38.6035H353.93ZM368.969 46C368.896 45.8587 368.832 45.6286 368.777 45.3096C368.249 45.861 367.602 46.1367 366.836 46.1367C366.093 46.1367 365.487 45.9248 365.018 45.501C364.548 45.0771 364.313 44.5531 364.313 43.9287C364.313 43.1403 364.605 42.5365 365.188 42.1172C365.776 41.6934 366.615 41.4814 367.704 41.4814H368.723V40.9961C368.723 40.6133 368.616 40.3079 368.401 40.0801C368.187 39.8477 367.861 39.7314 367.424 39.7314C367.046 39.7314 366.736 39.8271 366.494 40.0186C366.253 40.2054 366.132 40.4447 366.132 40.7363H364.471C364.471 40.3307 364.605 39.9525 364.874 39.6016C365.143 39.2461 365.507 38.9681 365.968 38.7676C366.433 38.5671 366.95 38.4668 367.52 38.4668C368.385 38.4668 369.076 38.6855 369.591 39.123C370.106 39.556 370.37 40.1667 370.384 40.9551V44.291C370.384 44.9564 370.477 45.4873 370.664 45.8838V46H368.969ZM367.144 44.8037C367.472 44.8037 367.779 44.724 368.066 44.5645C368.358 44.4049 368.577 44.1908 368.723 43.9219V42.5273H367.827C367.212 42.5273 366.749 42.6344 366.439 42.8486C366.13 43.0628 365.975 43.3659 365.975 43.7578C365.975 44.0768 366.079 44.332 366.289 44.5234C366.503 44.7103 366.788 44.8037 367.144 44.8037ZM374.205 36.8057V38.6035H375.511V39.834H374.205V43.9629C374.205 44.2454 374.26 44.4505 374.369 44.5781C374.483 44.7012 374.684 44.7627 374.971 44.7627C375.162 44.7627 375.356 44.7399 375.552 44.6943V45.9795C375.174 46.0843 374.809 46.1367 374.458 46.1367C373.182 46.1367 372.544 45.4326 372.544 44.0244V39.834H371.327V38.6035H372.544V36.8057H374.205ZM378.867 36.8057V38.6035H380.173V39.834H378.867V43.9629C378.867 44.2454 378.922 44.4505 379.031 44.5781C379.145 44.7012 379.346 44.7627 379.633 44.7627C379.824 44.7627 380.018 44.7399 380.214 44.6943V45.9795C379.836 46.0843 379.471 46.1367 379.12 46.1367C377.844 46.1367 377.206 45.4326 377.206 44.0244V39.834H375.989V38.6035H377.206V36.8057H378.867ZM384.705 46.1367C383.652 46.1367 382.798 45.8063 382.142 45.1455C381.49 44.4801 381.164 43.596 381.164 42.4932V42.2881C381.164 41.5498 381.305 40.8913 381.588 40.3125C381.875 39.7292 382.276 39.2757 382.791 38.9521C383.306 38.6286 383.88 38.4668 384.514 38.4668C385.521 38.4668 386.298 38.7881 386.845 39.4307C387.396 40.0732 387.672 40.9824 387.672 42.1582V42.8281H382.839C382.889 43.4388 383.092 43.9219 383.447 44.2773C383.807 44.6328 384.258 44.8105 384.801 44.8105C385.562 44.8105 386.182 44.5029 386.66 43.8877L387.556 44.7422C387.259 45.1842 386.863 45.5283 386.366 45.7744C385.874 46.016 385.32 46.1367 384.705 46.1367ZM384.507 39.7998C384.051 39.7998 383.682 39.9593 383.399 40.2783C383.121 40.5973 382.944 41.0417 382.866 41.6113H386.031V41.4883C385.995 40.9323 385.847 40.513 385.587 40.2305C385.327 39.9434 384.967 39.7998 384.507 39.7998ZM388.656 42.2471C388.656 41.1077 388.921 40.194 389.449 39.5059C389.978 38.8132 390.687 38.4668 391.575 38.4668C392.359 38.4668 392.993 38.7402 393.476 39.2871V35.5H395.137V46H393.633L393.551 45.2344C393.054 45.8359 392.391 46.1367 391.562 46.1367C390.696 46.1367 389.994 45.7881 389.456 45.0908C388.923 44.3936 388.656 43.4456 388.656 42.2471ZM390.317 42.3906C390.317 43.1426 390.461 43.7305 390.748 44.1543C391.04 44.5736 391.452 44.7832 391.985 44.7832C392.664 44.7832 393.161 44.4801 393.476 43.874V40.7158C393.17 40.1234 392.678 39.8271 391.999 39.8271C391.461 39.8271 391.047 40.0413 390.755 40.4697C390.463 40.8936 390.317 41.5339 390.317 42.3906ZM404.591 36.0469H406.313V43.0264C406.313 43.9788 406.015 44.7354 405.418 45.2959C404.826 45.8564 404.042 46.1367 403.066 46.1367C402.027 46.1367 401.225 45.8747 400.66 45.3506C400.095 44.8265 399.812 44.0973 399.812 43.1631H401.535C401.535 43.6917 401.665 44.0905 401.925 44.3594C402.189 44.6237 402.57 44.7559 403.066 44.7559C403.531 44.7559 403.9 44.6032 404.174 44.2979C404.452 43.988 404.591 43.5618 404.591 43.0195V36.0469ZM413.498 43.4365C413.498 42.999 413.343 42.6618 413.033 42.4248C412.728 42.1878 412.174 41.9486 411.372 41.707C410.57 41.4655 409.932 41.1966 409.458 40.9004C408.551 40.3307 408.098 39.5879 408.098 38.6719C408.098 37.8698 408.424 37.209 409.075 36.6895C409.731 36.1699 410.581 35.9102 411.625 35.9102C412.318 35.9102 412.935 36.0378 413.478 36.293C414.02 36.5482 414.446 36.9128 414.756 37.3867C415.066 37.8561 415.221 38.3779 415.221 38.9521H413.498C413.498 38.4326 413.334 38.027 413.006 37.7354C412.682 37.4391 412.217 37.291 411.611 37.291C411.046 37.291 410.606 37.4118 410.292 37.6533C409.982 37.8949 409.827 38.2321 409.827 38.665C409.827 39.0296 409.996 39.335 410.333 39.5811C410.67 39.8226 411.226 40.0596 412.001 40.292C412.776 40.5199 413.398 40.7819 413.867 41.0781C414.337 41.3698 414.681 41.707 414.899 42.0898C415.118 42.4681 415.228 42.9124 415.228 43.4229C415.228 44.2523 414.909 44.9131 414.271 45.4053C413.637 45.8929 412.776 46.1367 411.687 46.1367C410.966 46.1367 410.303 46.0046 409.697 45.7402C409.096 45.4714 408.626 45.1022 408.289 44.6328C407.956 44.1634 407.79 43.6165 407.79 42.9922H409.52C409.52 43.5573 409.706 43.9948 410.08 44.3047C410.454 44.6146 410.989 44.7695 411.687 44.7695C412.288 44.7695 412.739 44.6488 413.04 44.4072C413.345 44.1611 413.498 43.8376 413.498 43.4365ZM424.688 41.2832C424.688 42.2585 424.52 43.1152 424.183 43.8535C423.845 44.5872 423.362 45.1523 422.733 45.5488C422.109 45.9408 421.389 46.1367 420.573 46.1367C419.767 46.1367 419.047 45.9408 418.413 45.5488C417.784 45.1523 417.297 44.5895 416.95 43.8604C416.608 43.1312 416.435 42.2904 416.431 41.3379V40.7773C416.431 39.8066 416.602 38.9499 416.943 38.207C417.29 37.4642 417.775 36.8968 418.399 36.5049C419.028 36.1084 419.748 35.9102 420.56 35.9102C421.371 35.9102 422.089 36.1061 422.713 36.498C423.342 36.8854 423.827 37.446 424.169 38.1797C424.511 38.9089 424.684 39.7588 424.688 40.7295V41.2832ZM422.959 40.7637C422.959 39.6608 422.749 38.8154 422.33 38.2275C421.915 37.6396 421.325 37.3457 420.56 37.3457C419.812 37.3457 419.227 37.6396 418.803 38.2275C418.383 38.8109 418.169 39.638 418.16 40.709V41.2832C418.16 42.377 418.372 43.2223 418.796 43.8193C419.224 44.4163 419.817 44.7148 420.573 44.7148C421.339 44.7148 421.927 44.4232 422.337 43.8398C422.752 43.2565 422.959 42.4043 422.959 41.2832V40.7637ZM434.307 46H432.577L428.141 38.9385V46H426.411V36.0469H428.141L432.591 43.1357V36.0469H434.307V46Z" fill="#454B50"/>
<path d="M639.374 28.4365C639.374 27.999 639.219 27.6618 638.909 27.4248C638.604 27.1878 638.05 26.9486 637.248 26.707C636.446 26.4655 635.808 26.1966 635.334 25.9004C634.427 25.3307 633.974 24.5879 633.974 23.6719C633.974 22.8698 634.299 22.209 634.951 21.6895C635.607 21.1699 636.457 20.9102 637.501 20.9102C638.194 20.9102 638.811 21.0378 639.354 21.293C639.896 21.5482 640.322 21.9128 640.632 22.3867C640.942 22.8561 641.097 23.3779 641.097 23.9521H639.374C639.374 23.4326 639.21 23.027 638.882 22.7354C638.558 22.4391 638.093 22.291 637.487 22.291C636.922 22.291 636.482 22.4118 636.168 22.6533C635.858 22.8949 635.703 23.2321 635.703 23.665C635.703 24.0296 635.872 24.335 636.209 24.5811C636.546 24.8226 637.102 25.0596 637.877 25.292C638.652 25.5199 639.274 25.7819 639.743 26.0781C640.213 26.3698 640.557 26.707 640.775 27.0898C640.994 27.4681 641.104 27.9124 641.104 28.4229C641.104 29.2523 640.785 29.9131 640.146 30.4053C639.513 30.8929 638.652 31.1367 637.562 31.1367C636.842 31.1367 636.179 31.0046 635.573 30.7402C634.972 30.4714 634.502 30.1022 634.165 29.6328C633.832 29.1634 633.666 28.6165 633.666 27.9922H635.396C635.396 28.5573 635.582 28.9948 635.956 29.3047C636.33 29.6146 636.865 29.7695 637.562 29.7695C638.164 29.7695 638.615 29.6488 638.916 29.4072C639.221 29.1611 639.374 28.8376 639.374 28.4365ZM644.228 31H642.566V23.6035H644.228V31ZM642.464 21.6826C642.464 21.4274 642.544 21.2155 642.703 21.0469C642.867 20.8783 643.1 20.7939 643.4 20.7939C643.701 20.7939 643.934 20.8783 644.098 21.0469C644.262 21.2155 644.344 21.4274 644.344 21.6826C644.344 21.9333 644.262 22.1429 644.098 22.3115C643.934 22.4756 643.701 22.5576 643.4 22.5576C643.1 22.5576 642.867 22.4756 642.703 22.3115C642.544 22.1429 642.464 21.9333 642.464 21.6826ZM645.752 27.2471C645.752 26.0986 646.021 25.1826 646.559 24.499C647.101 23.8109 647.819 23.4668 648.712 23.4668C649.555 23.4668 650.218 23.7607 650.701 24.3486L650.776 23.6035H652.273V30.7744C652.273 31.7451 651.97 32.5107 651.364 33.0713C650.763 33.6318 649.949 33.9121 648.924 33.9121C648.382 33.9121 647.851 33.7982 647.331 33.5703C646.816 33.347 646.424 33.0531 646.155 32.6885L646.941 31.6904C647.452 32.2965 648.081 32.5996 648.828 32.5996C649.38 32.5996 649.815 32.4492 650.134 32.1484C650.453 31.8522 650.612 31.4147 650.612 30.8359V30.3369C650.134 30.8701 649.496 31.1367 648.698 31.1367C647.832 31.1367 647.124 30.7926 646.572 30.1045C646.025 29.4163 645.752 28.4639 645.752 27.2471ZM647.406 27.3906C647.406 28.1335 647.557 28.7191 647.857 29.1475C648.163 29.5713 648.584 29.7832 649.122 29.7832C649.792 29.7832 650.289 29.4961 650.612 28.9219V25.668C650.298 25.1074 649.806 24.8271 649.136 24.8271C648.589 24.8271 648.163 25.0436 647.857 25.4766C647.557 25.9095 647.406 26.5475 647.406 27.3906ZM655.527 23.6035L655.575 24.458C656.122 23.7972 656.84 23.4668 657.729 23.4668C659.269 23.4668 660.053 24.3486 660.08 26.1123V31H658.419V26.208C658.419 25.7386 658.316 25.3923 658.111 25.1689C657.911 24.9411 657.58 24.8271 657.12 24.8271C656.45 24.8271 655.951 25.1302 655.623 25.7363V31H653.962V23.6035H655.527ZM665.036 31.1367C663.983 31.1367 663.129 30.8063 662.473 30.1455C661.821 29.4801 661.495 28.596 661.495 27.4932V27.2881C661.495 26.5498 661.636 25.8913 661.919 25.3125C662.206 24.7292 662.607 24.2757 663.122 23.9521C663.637 23.6286 664.211 23.4668 664.845 23.4668C665.852 23.4668 666.629 23.7881 667.176 24.4307C667.727 25.0732 668.003 25.9824 668.003 27.1582V27.8281H663.17C663.22 28.4388 663.423 28.9219 663.778 29.2773C664.138 29.6328 664.59 29.8105 665.132 29.8105C665.893 29.8105 666.513 29.5029 666.991 28.8877L667.887 29.7422C667.59 30.1842 667.194 30.5283 666.697 30.7744C666.205 31.016 665.651 31.1367 665.036 31.1367ZM664.838 24.7998C664.382 24.7998 664.013 24.9593 663.73 25.2783C663.452 25.5973 663.275 26.0417 663.197 26.6113H666.362V26.4883C666.326 25.9323 666.178 25.513 665.918 25.2305C665.658 24.9434 665.298 24.7998 664.838 24.7998ZM668.987 27.2471C668.987 26.1077 669.252 25.194 669.78 24.5059C670.309 23.8132 671.018 23.4668 671.906 23.4668C672.69 23.4668 673.324 23.7402 673.807 24.2871V20.5H675.468V31H673.964L673.882 30.2344C673.385 30.8359 672.722 31.1367 671.893 31.1367C671.027 31.1367 670.325 30.7881 669.787 30.0908C669.254 29.3936 668.987 28.4456 668.987 27.2471ZM670.648 27.3906C670.648 28.1426 670.792 28.7305 671.079 29.1543C671.371 29.5736 671.783 29.7832 672.316 29.7832C672.995 29.7832 673.492 29.4801 673.807 28.874V25.7158C673.501 25.1234 673.009 24.8271 672.33 24.8271C671.792 24.8271 671.378 25.0413 671.086 25.4697C670.794 25.8936 670.648 26.5339 670.648 27.3906ZM687.629 22.4414H684.525V31H682.81V22.4414H679.733V21.0469H687.629V22.4414ZM692.202 25.1211C691.983 25.0846 691.758 25.0664 691.525 25.0664C690.764 25.0664 690.252 25.3581 689.987 25.9414V31H688.326V23.6035H689.912L689.953 24.4307C690.354 23.7881 690.91 23.4668 691.621 23.4668C691.858 23.4668 692.054 23.4987 692.209 23.5625L692.202 25.1211ZM697.466 31C697.393 30.8587 697.329 30.6286 697.274 30.3096C696.746 30.861 696.099 31.1367 695.333 31.1367C694.59 31.1367 693.984 30.9248 693.515 30.501C693.045 30.0771 692.811 29.5531 692.811 28.9287C692.811 28.1403 693.102 27.5365 693.686 27.1172C694.273 26.6934 695.112 26.4814 696.201 26.4814H697.22V25.9961C697.22 25.6133 697.113 25.3079 696.898 25.0801C696.684 24.8477 696.358 24.7314 695.921 24.7314C695.543 24.7314 695.233 24.8271 694.991 25.0186C694.75 25.2054 694.629 25.4447 694.629 25.7363H692.968C692.968 25.3307 693.102 24.9525 693.371 24.6016C693.64 24.2461 694.005 23.9681 694.465 23.7676C694.93 23.5671 695.447 23.4668 696.017 23.4668C696.882 23.4668 697.573 23.6855 698.088 24.123C698.603 24.556 698.867 25.1667 698.881 25.9551V29.291C698.881 29.9564 698.974 30.4873 699.161 30.8838V31H697.466ZM695.641 29.8037C695.969 29.8037 696.276 29.724 696.563 29.5645C696.855 29.4049 697.074 29.1908 697.22 28.9219V27.5273H696.324C695.709 27.5273 695.246 27.6344 694.937 27.8486C694.627 28.0628 694.472 28.3659 694.472 28.7578C694.472 29.0768 694.576 29.332 694.786 29.5234C695 29.7103 695.285 29.8037 695.641 29.8037ZM700.31 27.2471C700.31 26.1077 700.574 25.194 701.103 24.5059C701.631 23.8132 702.34 23.4668 703.229 23.4668C704.012 23.4668 704.646 23.7402 705.129 24.2871V20.5H706.79V31H705.286L705.204 30.2344C704.707 30.8359 704.044 31.1367 703.215 31.1367C702.349 31.1367 701.647 30.7881 701.109 30.0908C700.576 29.3936 700.31 28.4456 700.31 27.2471ZM701.971 27.3906C701.971 28.1426 702.114 28.7305 702.401 29.1543C702.693 29.5736 703.105 29.7832 703.639 29.7832C704.318 29.7832 704.814 29.4801 705.129 28.874V25.7158C704.824 25.1234 704.331 24.8271 703.652 24.8271C703.115 24.8271 702.7 25.0413 702.408 25.4697C702.117 25.8936 701.971 26.5339 701.971 27.3906ZM711.78 31.1367C710.728 31.1367 709.873 30.8063 709.217 30.1455C708.565 29.4801 708.239 28.596 708.239 27.4932V27.2881C708.239 26.5498 708.381 25.8913 708.663 25.3125C708.95 24.7292 709.351 24.2757 709.866 23.9521C710.381 23.6286 710.955 23.4668 711.589 23.4668C712.596 23.4668 713.373 23.7881 713.92 24.4307C714.471 25.0732 714.747 25.9824 714.747 27.1582V27.8281H709.914C709.964 28.4388 710.167 28.9219 710.522 29.2773C710.882 29.6328 711.334 29.8105 711.876 29.8105C712.637 29.8105 713.257 29.5029 713.735 28.8877L714.631 29.7422C714.335 30.1842 713.938 30.5283 713.441 30.7744C712.949 31.016 712.396 31.1367 711.78 31.1367ZM711.582 24.7998C711.126 24.7998 710.757 24.9593 710.475 25.2783C710.197 25.5973 710.019 26.0417 709.941 26.6113H713.106V26.4883C713.07 25.9323 712.922 25.513 712.662 25.2305C712.402 24.9434 712.042 24.7998 711.582 24.7998ZM723.395 22.4414H720.291V31H718.575V22.4414H715.499V21.0469H723.395V22.4414ZM727.968 25.1211C727.749 25.0846 727.523 25.0664 727.291 25.0664C726.53 25.0664 726.017 25.3581 725.753 25.9414V31H724.092V23.6035H725.678L725.719 24.4307C726.12 23.7881 726.676 23.4668 727.387 23.4668C727.624 23.4668 727.82 23.4987 727.975 23.5625L727.968 25.1211ZM733.498 30.2754C733.01 30.8496 732.318 31.1367 731.42 31.1367C730.618 31.1367 730.009 30.902 729.595 30.4326C729.185 29.9632 728.979 29.2842 728.979 28.3955V23.6035H730.641V28.375C730.641 29.3138 731.03 29.7832 731.81 29.7832C732.616 29.7832 733.161 29.4938 733.443 28.915V23.6035H735.104V31H733.539L733.498 30.2754ZM740.942 28.9902C740.942 28.694 740.819 28.4684 740.573 28.3135C740.332 28.1585 739.928 28.0218 739.363 27.9033C738.798 27.7848 738.326 27.6344 737.948 27.4521C737.119 27.0511 736.704 26.4701 736.704 25.709C736.704 25.071 736.973 24.5378 737.511 24.1094C738.049 23.681 738.732 23.4668 739.562 23.4668C740.446 23.4668 741.159 23.6855 741.701 24.123C742.248 24.5605 742.521 25.1279 742.521 25.8252H740.86C740.86 25.5062 740.742 25.2419 740.505 25.0322C740.268 24.818 739.953 24.7109 739.562 24.7109C739.197 24.7109 738.898 24.7952 738.666 24.9639C738.438 25.1325 738.324 25.3581 738.324 25.6406C738.324 25.8958 738.431 26.0941 738.646 26.2354C738.86 26.3766 739.293 26.5202 739.944 26.666C740.596 26.8073 741.106 26.9782 741.476 27.1787C741.849 27.3747 742.125 27.6117 742.303 27.8896C742.485 28.1676 742.576 28.5049 742.576 28.9014C742.576 29.5667 742.3 30.1068 741.749 30.5215C741.198 30.9316 740.475 31.1367 739.582 31.1367C738.976 31.1367 738.436 31.0273 737.962 30.8086C737.488 30.5898 737.119 30.2891 736.854 29.9062C736.59 29.5234 736.458 29.111 736.458 28.6689H738.071C738.094 29.0609 738.242 29.3639 738.516 29.5781C738.789 29.7878 739.151 29.8926 739.603 29.8926C740.04 29.8926 740.373 29.8105 740.601 29.6465C740.828 29.4779 740.942 29.2591 740.942 28.9902ZM746.11 21.8057V23.6035H747.416V24.834H746.11V28.9629C746.11 29.2454 746.165 29.4505 746.274 29.5781C746.388 29.7012 746.589 29.7627 746.876 29.7627C747.067 29.7627 747.261 29.7399 747.457 29.6943V30.9795C747.079 31.0843 746.714 31.1367 746.363 31.1367C745.087 31.1367 744.449 30.4326 744.449 29.0244V24.834H743.232V23.6035H744.449V21.8057H746.11ZM657.776 36.0469H659.499V43.0264C659.499 43.9788 659.201 44.7354 658.604 45.2959C658.011 45.8564 657.227 46.1367 656.252 46.1367C655.213 46.1367 654.411 45.8747 653.846 45.3506C653.281 44.8265 652.998 44.0973 652.998 43.1631H654.721C654.721 43.6917 654.851 44.0905 655.11 44.3594C655.375 44.6237 655.755 44.7559 656.252 44.7559C656.717 44.7559 657.086 44.6032 657.359 44.2979C657.637 43.988 657.776 43.5618 657.776 43.0195V36.0469ZM666.684 43.4365C666.684 42.999 666.529 42.6618 666.219 42.4248C665.913 42.1878 665.36 41.9486 664.558 41.707C663.756 41.4655 663.118 41.1966 662.644 40.9004C661.737 40.3307 661.283 39.5879 661.283 38.6719C661.283 37.8698 661.609 37.209 662.261 36.6895C662.917 36.1699 663.767 35.9102 664.811 35.9102C665.503 35.9102 666.121 36.0378 666.663 36.293C667.205 36.5482 667.632 36.9128 667.941 37.3867C668.251 37.8561 668.406 38.3779 668.406 38.9521H666.684C666.684 38.4326 666.52 38.027 666.191 37.7354C665.868 37.4391 665.403 37.291 664.797 37.291C664.232 37.291 663.792 37.4118 663.478 37.6533C663.168 37.8949 663.013 38.2321 663.013 38.665C663.013 39.0296 663.181 39.335 663.519 39.5811C663.856 39.8226 664.412 40.0596 665.187 40.292C665.961 40.5199 666.583 40.7819 667.053 41.0781C667.522 41.3698 667.866 41.707 668.085 42.0898C668.304 42.4681 668.413 42.9124 668.413 43.4229C668.413 44.2523 668.094 44.9131 667.456 45.4053C666.823 45.8929 665.961 46.1367 664.872 46.1367C664.152 46.1367 663.489 46.0046 662.883 45.7402C662.281 45.4714 661.812 45.1022 661.475 44.6328C661.142 44.1634 660.976 43.6165 660.976 42.9922H662.705C662.705 43.5573 662.892 43.9948 663.266 44.3047C663.639 44.6146 664.175 44.7695 664.872 44.7695C665.474 44.7695 665.925 44.6488 666.226 44.4072C666.531 44.1611 666.684 43.8376 666.684 43.4365ZM677.874 41.2832C677.874 42.2585 677.705 43.1152 677.368 43.8535C677.031 44.5872 676.548 45.1523 675.919 45.5488C675.295 45.9408 674.575 46.1367 673.759 46.1367C672.952 46.1367 672.232 45.9408 671.599 45.5488C670.97 45.1523 670.482 44.5895 670.136 43.8604C669.794 43.1312 669.621 42.2904 669.616 41.3379V40.7773C669.616 39.8066 669.787 38.9499 670.129 38.207C670.475 37.4642 670.961 36.8968 671.585 36.5049C672.214 36.1084 672.934 35.9102 673.745 35.9102C674.556 35.9102 675.274 36.1061 675.898 36.498C676.527 36.8854 677.013 37.446 677.354 38.1797C677.696 38.9089 677.869 39.7588 677.874 40.7295V41.2832ZM676.145 40.7637C676.145 39.6608 675.935 38.8154 675.516 38.2275C675.101 37.6396 674.511 37.3457 673.745 37.3457C672.998 37.3457 672.412 37.6396 671.988 38.2275C671.569 38.8109 671.355 39.638 671.346 40.709V41.2832C671.346 42.377 671.558 43.2223 671.981 43.8193C672.41 44.4163 673.002 44.7148 673.759 44.7148C674.524 44.7148 675.112 44.4232 675.522 43.8398C675.937 43.2565 676.145 42.4043 676.145 41.2832V40.7637ZM687.492 46H685.763L681.326 38.9385V46H679.597V36.0469H681.326L685.776 43.1357V36.0469H687.492V46ZM693.303 46V39.834H692.175V38.6035H693.303V38.0977C693.307 37.5189 693.43 37.0221 693.672 36.6074C693.913 36.1927 694.255 35.8805 694.697 35.6709C695.139 35.4613 695.67 35.3564 696.29 35.3564C696.655 35.3564 697.003 35.3952 697.336 35.4727C697.673 35.5501 698.022 35.6481 698.382 35.7666L698.129 37.1406C697.5 36.9219 696.926 36.8125 696.406 36.8125C695.9 36.8125 695.534 36.9242 695.306 37.1475C695.078 37.3662 694.964 37.6966 694.964 38.1387V38.6035H696.42V39.834H694.964V46H693.303ZM699.168 46H697.507V38.6035H699.168V46ZM702.777 46H701.116V35.5H702.777V46ZM707.85 46.1367C706.797 46.1367 705.942 45.8063 705.286 45.1455C704.634 44.4801 704.309 43.596 704.309 42.4932V42.2881C704.309 41.5498 704.45 40.8913 704.732 40.3125C705.02 39.7292 705.421 39.2757 705.936 38.9521C706.451 38.6286 707.025 38.4668 707.658 38.4668C708.665 38.4668 709.442 38.7881 709.989 39.4307C710.541 40.0732 710.816 40.9824 710.816 42.1582V42.8281H705.983C706.034 43.4388 706.236 43.9219 706.592 44.2773C706.952 44.6328 707.403 44.8105 707.945 44.8105C708.706 44.8105 709.326 44.5029 709.805 43.8877L710.7 44.7422C710.404 45.1842 710.007 45.5283 709.511 45.7744C709.019 46.016 708.465 46.1367 707.85 46.1367ZM707.651 39.7998C707.196 39.7998 706.826 39.9593 706.544 40.2783C706.266 40.5973 706.088 41.0417 706.011 41.6113H709.176V41.4883C709.139 40.9323 708.991 40.513 708.731 40.2305C708.472 39.9434 708.112 39.7998 707.651 39.7998ZM712.136 41.9531C712.136 40.9004 712.277 39.9023 712.56 38.959C712.842 38.0111 713.257 37.1657 713.804 36.4229C714.351 35.6755 714.929 35.1514 715.54 34.8506L715.868 35.8213C715.226 36.3089 714.704 37.054 714.303 38.0566C713.906 39.0547 713.69 40.1986 713.653 41.4883L713.646 42.0762C713.646 43.457 713.84 44.6898 714.228 45.7744C714.619 46.8545 715.166 47.6771 715.868 48.2422L715.54 49.165C714.929 48.8643 714.348 48.3379 713.797 47.5859C713.25 46.8385 712.835 45.9954 712.553 45.0566C712.275 44.1133 712.136 43.0788 712.136 41.9531ZM721.139 43.9902C721.139 43.694 721.016 43.4684 720.77 43.3135C720.528 43.1585 720.125 43.0218 719.56 42.9033C718.994 42.7848 718.523 42.6344 718.145 42.4521C717.315 42.0511 716.9 41.4701 716.9 40.709C716.9 40.071 717.169 39.5378 717.707 39.1094C718.245 38.681 718.928 38.4668 719.758 38.4668C720.642 38.4668 721.355 38.6855 721.897 39.123C722.444 39.5605 722.718 40.1279 722.718 40.8252H721.057C721.057 40.5062 720.938 40.2419 720.701 40.0322C720.464 39.818 720.15 39.7109 719.758 39.7109C719.393 39.7109 719.095 39.7952 718.862 39.9639C718.634 40.1325 718.521 40.3581 718.521 40.6406C718.521 40.8958 718.628 41.0941 718.842 41.2354C719.056 41.3766 719.489 41.5202 720.141 41.666C720.792 41.8073 721.303 41.9782 721.672 42.1787C722.046 42.3747 722.321 42.6117 722.499 42.8896C722.681 43.1676 722.772 43.5049 722.772 43.9014C722.772 44.5667 722.497 45.1068 721.945 45.5215C721.394 45.9316 720.672 46.1367 719.778 46.1367C719.172 46.1367 718.632 46.0273 718.158 45.8086C717.684 45.5898 717.315 45.2891 717.051 44.9062C716.786 44.5234 716.654 44.111 716.654 43.6689H718.268C718.29 44.0609 718.438 44.3639 718.712 44.5781C718.985 44.7878 719.348 44.8926 719.799 44.8926C720.236 44.8926 720.569 44.8105 720.797 44.6465C721.025 44.4779 721.139 44.2591 721.139 43.9902ZM727.428 42.0625C727.428 43.0742 727.289 44.0518 727.011 44.9951C726.733 45.9339 726.311 46.7884 725.746 47.5586C725.181 48.3333 724.591 48.8688 723.976 49.165L723.647 48.2422C724.331 47.7135 724.871 46.9069 725.268 45.8223C725.669 44.7331 725.869 43.4912 725.869 42.0967V41.9395C725.869 40.6725 725.696 39.5195 725.35 38.4805C725.003 37.4368 724.507 36.6006 723.859 35.9717L723.647 35.7803L723.976 34.8506C724.559 35.1331 725.124 35.6344 725.671 36.3545C726.218 37.0745 726.637 37.8812 726.929 38.7744C727.22 39.6631 727.384 40.5814 727.421 41.5293L727.428 42.0625Z" fill="#454B50"/>
<path d="M184.292 47V37.0469H187.231C188.111 37.0469 188.89 37.2428 189.569 37.6348C190.253 38.0267 190.782 38.5827 191.155 39.3027C191.529 40.0228 191.716 40.8477 191.716 41.7773V42.2764C191.716 43.2197 191.527 44.0492 191.148 44.7646C190.775 45.4801 190.239 46.0316 189.542 46.4189C188.849 46.8063 188.054 47 187.156 47H184.292ZM186.021 38.4414V45.6191H187.149C188.056 45.6191 188.751 45.3366 189.234 44.7715C189.722 44.2018 189.97 43.3861 189.979 42.3242V41.7705C189.979 40.6904 189.745 39.8656 189.275 39.2959C188.806 38.7262 188.125 38.4414 187.231 38.4414H186.021ZM197.697 47C197.624 46.8587 197.561 46.6286 197.506 46.3096C196.977 46.861 196.33 47.1367 195.564 47.1367C194.822 47.1367 194.215 46.9248 193.746 46.501C193.277 46.0771 193.042 45.5531 193.042 44.9287C193.042 44.1403 193.334 43.5365 193.917 43.1172C194.505 42.6934 195.343 42.4814 196.433 42.4814H197.451V41.9961C197.451 41.6133 197.344 41.3079 197.13 41.0801C196.916 40.8477 196.59 40.7314 196.152 40.7314C195.774 40.7314 195.464 40.8271 195.223 41.0186C194.981 41.2054 194.86 41.4447 194.86 41.7363H193.199C193.199 41.3307 193.334 40.9525 193.603 40.6016C193.871 40.2461 194.236 39.9681 194.696 39.7676C195.161 39.5671 195.678 39.4668 196.248 39.4668C197.114 39.4668 197.804 39.6855 198.319 40.123C198.834 40.556 199.099 41.1667 199.112 41.9551V45.291C199.112 45.9564 199.206 46.4873 199.393 46.8838V47H197.697ZM195.872 45.8037C196.2 45.8037 196.508 45.724 196.795 45.5645C197.087 45.4049 197.305 45.1908 197.451 44.9219V43.5273H196.556C195.94 43.5273 195.478 43.6344 195.168 43.8486C194.858 44.0628 194.703 44.3659 194.703 44.7578C194.703 45.0768 194.808 45.332 195.018 45.5234C195.232 45.7103 195.517 45.8037 195.872 45.8037ZM202.934 37.8057V39.6035H204.239V40.834H202.934V44.9629C202.934 45.2454 202.988 45.4505 203.098 45.5781C203.212 45.7012 203.412 45.7627 203.699 45.7627C203.891 45.7627 204.084 45.7399 204.28 45.6943V46.9795C203.902 47.0843 203.537 47.1367 203.187 47.1367C201.91 47.1367 201.272 46.4326 201.272 45.0244V40.834H200.056V39.6035H201.272V37.8057H202.934ZM209.934 47C209.861 46.8587 209.797 46.6286 209.742 46.3096C209.214 46.861 208.566 47.1367 207.801 47.1367C207.058 47.1367 206.452 46.9248 205.982 46.501C205.513 46.0771 205.278 45.5531 205.278 44.9287C205.278 44.1403 205.57 43.5365 206.153 43.1172C206.741 42.6934 207.58 42.4814 208.669 42.4814H209.688V41.9961C209.688 41.6133 209.58 41.3079 209.366 41.0801C209.152 40.8477 208.826 40.7314 208.389 40.7314C208.01 40.7314 207.701 40.8271 207.459 41.0186C207.217 41.2054 207.097 41.4447 207.097 41.7363H205.436C205.436 41.3307 205.57 40.9525 205.839 40.6016C206.108 40.2461 206.472 39.9681 206.933 39.7676C207.397 39.5671 207.915 39.4668 208.484 39.4668C209.35 39.4668 210.041 39.6855 210.556 40.123C211.071 40.556 211.335 41.1667 211.349 41.9551V45.291C211.349 45.9564 211.442 46.4873 211.629 46.8838V47H209.934ZM208.108 45.8037C208.437 45.8037 208.744 45.724 209.031 45.5645C209.323 45.4049 209.542 45.1908 209.688 44.9219V43.5273H208.792C208.177 43.5273 207.714 43.6344 207.404 43.8486C207.094 44.0628 206.939 44.3659 206.939 44.7578C206.939 45.0768 207.044 45.332 207.254 45.5234C207.468 45.7103 207.753 45.8037 208.108 45.8037ZM223.517 38.4414H220.413V47H218.697V38.4414H215.621V37.0469H223.517V38.4414ZM228.09 41.1211C227.871 41.0846 227.646 41.0664 227.413 41.0664C226.652 41.0664 226.139 41.3581 225.875 41.9414V47H224.214V39.6035H225.8L225.841 40.4307C226.242 39.7881 226.798 39.4668 227.509 39.4668C227.746 39.4668 227.942 39.4987 228.097 39.5625L228.09 41.1211ZM233.354 47C233.281 46.8587 233.217 46.6286 233.162 46.3096C232.633 46.861 231.986 47.1367 231.221 47.1367C230.478 47.1367 229.872 46.9248 229.402 46.501C228.933 46.0771 228.698 45.5531 228.698 44.9287C228.698 44.1403 228.99 43.5365 229.573 43.1172C230.161 42.6934 231 42.4814 232.089 42.4814H233.107V41.9961C233.107 41.6133 233 41.3079 232.786 41.0801C232.572 40.8477 232.246 40.7314 231.809 40.7314C231.43 40.7314 231.12 40.8271 230.879 41.0186C230.637 41.2054 230.517 41.4447 230.517 41.7363H228.855C228.855 41.3307 228.99 40.9525 229.259 40.6016C229.528 40.2461 229.892 39.9681 230.353 39.7676C230.817 39.5671 231.335 39.4668 231.904 39.4668C232.77 39.4668 233.461 39.6855 233.976 40.123C234.491 40.556 234.755 41.1667 234.769 41.9551V45.291C234.769 45.9564 234.862 46.4873 235.049 46.8838V47H233.354ZM231.528 45.8037C231.856 45.8037 232.164 45.724 232.451 45.5645C232.743 45.4049 232.962 45.1908 233.107 44.9219V43.5273H232.212C231.597 43.5273 231.134 43.6344 230.824 43.8486C230.514 44.0628 230.359 44.3659 230.359 44.7578C230.359 45.0768 230.464 45.332 230.674 45.5234C230.888 45.7103 231.173 45.8037 231.528 45.8037ZM238.05 39.6035L238.098 40.458C238.645 39.7972 239.362 39.4668 240.251 39.4668C241.791 39.4668 242.575 40.3486 242.603 42.1123V47H240.941V42.208C240.941 41.7386 240.839 41.3923 240.634 41.1689C240.433 40.9411 240.103 40.8271 239.643 40.8271C238.973 40.8271 238.474 41.1302 238.146 41.7363V47H236.484V39.6035H238.05ZM248.447 44.9902C248.447 44.694 248.324 44.4684 248.078 44.3135C247.837 44.1585 247.433 44.0218 246.868 43.9033C246.303 43.7848 245.831 43.6344 245.453 43.4521C244.624 43.0511 244.209 42.4701 244.209 41.709C244.209 41.071 244.478 40.5378 245.016 40.1094C245.553 39.681 246.237 39.4668 247.066 39.4668C247.951 39.4668 248.664 39.6855 249.206 40.123C249.753 40.5605 250.026 41.1279 250.026 41.8252H248.365C248.365 41.5062 248.247 41.2419 248.01 41.0322C247.773 40.818 247.458 40.7109 247.066 40.7109C246.702 40.7109 246.403 40.7952 246.171 40.9639C245.943 41.1325 245.829 41.3581 245.829 41.6406C245.829 41.8958 245.936 42.0941 246.15 42.2354C246.365 42.3766 246.798 42.5202 247.449 42.666C248.101 42.8073 248.611 42.9782 248.98 43.1787C249.354 43.3747 249.63 43.6117 249.808 43.8896C249.99 44.1676 250.081 44.5049 250.081 44.9014C250.081 45.5667 249.805 46.1068 249.254 46.5215C248.702 46.9316 247.98 47.1367 247.087 47.1367C246.481 47.1367 245.941 47.0273 245.467 46.8086C244.993 46.5898 244.624 46.2891 244.359 45.9062C244.095 45.5234 243.963 45.111 243.963 44.6689H245.576C245.599 45.0609 245.747 45.3639 246.021 45.5781C246.294 45.7878 246.656 45.8926 247.107 45.8926C247.545 45.8926 247.878 45.8105 248.105 45.6465C248.333 45.4779 248.447 45.2591 248.447 44.9902ZM252.118 47V40.834H250.99V39.6035H252.118V38.9268C252.118 38.1064 252.346 37.473 252.802 37.0264C253.257 36.5798 253.896 36.3564 254.716 36.3564C255.007 36.3564 255.317 36.3975 255.646 36.4795L255.604 37.7783C255.422 37.7419 255.21 37.7236 254.969 37.7236C254.176 37.7236 253.779 38.1315 253.779 38.9473V39.6035H255.283V40.834H253.779V47H252.118ZM256.186 43.2334C256.186 42.5088 256.329 41.8571 256.616 41.2783C256.903 40.695 257.307 40.2484 257.826 39.9385C258.346 39.624 258.943 39.4668 259.617 39.4668C260.615 39.4668 261.424 39.7881 262.044 40.4307C262.668 41.0732 263.006 41.9255 263.056 42.9873L263.062 43.377C263.062 44.1061 262.921 44.7578 262.639 45.332C262.361 45.9062 261.96 46.3506 261.436 46.665C260.916 46.9795 260.314 47.1367 259.631 47.1367C258.587 47.1367 257.751 46.7904 257.122 46.0977C256.498 45.4004 256.186 44.473 256.186 43.3154V43.2334ZM257.847 43.377C257.847 44.138 258.004 44.735 258.318 45.168C258.633 45.5964 259.07 45.8105 259.631 45.8105C260.191 45.8105 260.627 45.5918 260.937 45.1543C261.251 44.7168 261.408 44.0765 261.408 43.2334C261.408 42.486 261.246 41.8936 260.923 41.4561C260.604 41.0186 260.169 40.7998 259.617 40.7998C259.075 40.7998 258.644 41.0163 258.325 41.4492C258.006 41.8776 257.847 42.5202 257.847 43.377ZM268.34 41.1211C268.121 41.0846 267.896 41.0664 267.663 41.0664C266.902 41.0664 266.389 41.3581 266.125 41.9414V47H264.464V39.6035H266.05L266.091 40.4307C266.492 39.7881 267.048 39.4668 267.759 39.4668C267.996 39.4668 268.192 39.4987 268.347 39.5625L268.34 41.1211ZM270.951 39.6035L270.999 40.376C271.519 39.7699 272.229 39.4668 273.132 39.4668C274.121 39.4668 274.798 39.8451 275.162 40.6016C275.7 39.8451 276.456 39.4668 277.432 39.4668C278.247 39.4668 278.854 39.6924 279.25 40.1436C279.651 40.5947 279.856 41.2601 279.865 42.1396V47H278.204V42.1875C278.204 41.7181 278.102 41.374 277.896 41.1553C277.691 40.9365 277.352 40.8271 276.878 40.8271C276.5 40.8271 276.19 40.9297 275.948 41.1348C275.711 41.3353 275.545 41.5996 275.449 41.9277L275.456 47H273.795V42.1328C273.772 41.2624 273.328 40.8271 272.462 40.8271C271.797 40.8271 271.325 41.0983 271.047 41.6406V47H269.386V39.6035H270.951Z" fill="#6E787F"/>
<path d="M482.479 47V37.0469H485.89C487.015 37.0469 487.872 37.2725 488.46 37.7236C489.048 38.1748 489.342 38.847 489.342 39.7402C489.342 40.196 489.219 40.6061 488.973 40.9707C488.727 41.3353 488.367 41.6178 487.893 41.8184C488.43 41.9642 488.845 42.2399 489.137 42.6455C489.433 43.0465 489.581 43.5296 489.581 44.0947C489.581 45.029 489.28 45.7467 488.679 46.248C488.082 46.7493 487.225 47 486.108 47H482.479ZM484.208 42.5088V45.6191H486.129C486.671 45.6191 487.095 45.4847 487.4 45.2158C487.706 44.9469 487.858 44.5732 487.858 44.0947C487.858 43.0602 487.33 42.5316 486.272 42.5088H484.208ZM484.208 41.2373H485.903C486.441 41.2373 486.86 41.1165 487.161 40.875C487.466 40.6289 487.619 40.2826 487.619 39.8359C487.619 39.3438 487.478 38.9883 487.195 38.7695C486.917 38.5508 486.482 38.4414 485.89 38.4414H484.208V41.2373ZM495.569 47C495.496 46.8587 495.433 46.6286 495.378 46.3096C494.849 46.861 494.202 47.1367 493.437 47.1367C492.694 47.1367 492.088 46.9248 491.618 46.501C491.149 46.0771 490.914 45.5531 490.914 44.9287C490.914 44.1403 491.206 43.5365 491.789 43.1172C492.377 42.6934 493.215 42.4814 494.305 42.4814H495.323V41.9961C495.323 41.6133 495.216 41.3079 495.002 41.0801C494.788 40.8477 494.462 40.7314 494.024 40.7314C493.646 40.7314 493.336 40.8271 493.095 41.0186C492.853 41.2054 492.732 41.4447 492.732 41.7363H491.071C491.071 41.3307 491.206 40.9525 491.475 40.6016C491.743 40.2461 492.108 39.9681 492.568 39.7676C493.033 39.5671 493.55 39.4668 494.12 39.4668C494.986 39.4668 495.676 39.6855 496.191 40.123C496.706 40.556 496.971 41.1667 496.984 41.9551V45.291C496.984 45.9564 497.078 46.4873 497.265 46.8838V47H495.569ZM493.744 45.8037C494.072 45.8037 494.38 45.724 494.667 45.5645C494.959 45.4049 495.177 45.1908 495.323 44.9219V43.5273H494.428C493.812 43.5273 493.35 43.6344 493.04 43.8486C492.73 44.0628 492.575 44.3659 492.575 44.7578C492.575 45.0768 492.68 45.332 492.89 45.5234C493.104 45.7103 493.389 45.8037 493.744 45.8037ZM500.806 37.8057V39.6035H502.111V40.834H500.806V44.9629C500.806 45.2454 500.86 45.4505 500.97 45.5781C501.084 45.7012 501.284 45.7627 501.571 45.7627C501.763 45.7627 501.956 45.7399 502.152 45.6943V46.9795C501.774 47.0843 501.41 47.1367 501.059 47.1367C499.783 47.1367 499.145 46.4326 499.145 45.0244V40.834H497.928V39.6035H499.145V37.8057H500.806ZM506.425 45.8105C506.84 45.8105 507.184 45.6898 507.457 45.4482C507.73 45.2067 507.876 44.9082 507.895 44.5527H509.46C509.442 45.013 509.298 45.4437 509.029 45.8447C508.76 46.2412 508.396 46.5557 507.936 46.7881C507.475 47.0205 506.979 47.1367 506.445 47.1367C505.411 47.1367 504.59 46.8018 503.984 46.1318C503.378 45.4619 503.075 44.5368 503.075 43.3564V43.1855C503.075 42.0599 503.376 41.1598 503.978 40.4854C504.579 39.8063 505.399 39.4668 506.438 39.4668C507.318 39.4668 508.034 39.7243 508.585 40.2393C509.141 40.7497 509.433 41.4219 509.46 42.2559H507.895C507.876 41.832 507.73 41.4834 507.457 41.21C507.188 40.9365 506.844 40.7998 506.425 40.7998C505.887 40.7998 505.472 40.9958 505.181 41.3877C504.889 41.7751 504.741 42.3652 504.736 43.1582V43.4248C504.736 44.2269 504.88 44.8262 505.167 45.2227C505.459 45.6146 505.878 45.8105 506.425 45.8105ZM512.352 40.4102C512.894 39.7812 513.58 39.4668 514.409 39.4668C515.986 39.4668 516.786 40.3669 516.809 42.167V47H515.147V42.2285C515.147 41.7181 515.036 41.3581 514.812 41.1484C514.594 40.9342 514.27 40.8271 513.842 40.8271C513.176 40.8271 512.68 41.1234 512.352 41.7158V47H510.69V36.5H512.352V40.4102ZM520.261 47H518.6V39.6035H520.261V47ZM518.497 37.6826C518.497 37.4274 518.577 37.2155 518.736 37.0469C518.9 36.8783 519.133 36.7939 519.434 36.7939C519.734 36.7939 519.967 36.8783 520.131 37.0469C520.295 37.2155 520.377 37.4274 520.377 37.6826C520.377 37.9333 520.295 38.1429 520.131 38.3115C519.967 38.4756 519.734 38.5576 519.434 38.5576C519.133 38.5576 518.9 38.4756 518.736 38.3115C518.577 38.1429 518.497 37.9333 518.497 37.6826ZM523.617 39.6035L523.665 40.458C524.212 39.7972 524.93 39.4668 525.818 39.4668C527.359 39.4668 528.143 40.3486 528.17 42.1123V47H526.509V42.208C526.509 41.7386 526.406 41.3923 526.201 41.1689C526.001 40.9411 525.67 40.8271 525.21 40.8271C524.54 40.8271 524.041 41.1302 523.713 41.7363V47H522.052V39.6035H523.617ZM529.578 43.2471C529.578 42.0986 529.847 41.1826 530.385 40.499C530.927 39.8109 531.645 39.4668 532.538 39.4668C533.381 39.4668 534.044 39.7607 534.527 40.3486L534.603 39.6035H536.1V46.7744C536.1 47.7451 535.797 48.5107 535.19 49.0713C534.589 49.6318 533.775 49.9121 532.75 49.9121C532.208 49.9121 531.677 49.7982 531.157 49.5703C530.642 49.347 530.25 49.0531 529.981 48.6885L530.768 47.6904C531.278 48.2965 531.907 48.5996 532.654 48.5996C533.206 48.5996 533.641 48.4492 533.96 48.1484C534.279 47.8522 534.438 47.4147 534.438 46.8359V46.3369C533.96 46.8701 533.322 47.1367 532.524 47.1367C531.659 47.1367 530.95 46.7926 530.398 46.1045C529.852 45.4163 529.578 44.4639 529.578 43.2471ZM531.232 43.3906C531.232 44.1335 531.383 44.7191 531.684 45.1475C531.989 45.5713 532.41 45.7832 532.948 45.7832C533.618 45.7832 534.115 45.4961 534.438 44.9219V41.668C534.124 41.1074 533.632 40.8271 532.962 40.8271C532.415 40.8271 531.989 41.0436 531.684 41.4766C531.383 41.9095 531.232 42.5475 531.232 43.3906ZM546.661 44.4365C546.661 43.999 546.506 43.6618 546.196 43.4248C545.891 43.1878 545.337 42.9486 544.535 42.707C543.733 42.4655 543.095 42.1966 542.621 41.9004C541.714 41.3307 541.261 40.5879 541.261 39.6719C541.261 38.8698 541.587 38.209 542.238 37.6895C542.895 37.1699 543.744 36.9102 544.788 36.9102C545.481 36.9102 546.098 37.0378 546.641 37.293C547.183 37.5482 547.609 37.9128 547.919 38.3867C548.229 38.8561 548.384 39.3779 548.384 39.9521H546.661C546.661 39.4326 546.497 39.027 546.169 38.7354C545.845 38.4391 545.381 38.291 544.774 38.291C544.209 38.291 543.77 38.4118 543.455 38.6533C543.145 38.8949 542.99 39.2321 542.99 39.665C542.99 40.0296 543.159 40.335 543.496 40.5811C543.833 40.8226 544.389 41.0596 545.164 41.292C545.939 41.5199 546.561 41.7819 547.03 42.0781C547.5 42.3698 547.844 42.707 548.062 43.0898C548.281 43.4681 548.391 43.9124 548.391 44.4229C548.391 45.2523 548.072 45.9131 547.434 46.4053C546.8 46.8929 545.939 47.1367 544.85 47.1367C544.13 47.1367 543.466 47.0046 542.86 46.7402C542.259 46.4714 541.789 46.1022 541.452 45.6328C541.119 45.1634 540.953 44.6165 540.953 43.9922H542.683C542.683 44.5573 542.869 44.9948 543.243 45.3047C543.617 45.6146 544.152 45.7695 544.85 45.7695C545.451 45.7695 545.902 45.6488 546.203 45.4072C546.508 45.1611 546.661 44.8376 546.661 44.4365ZM551.515 47H549.854V39.6035H551.515V47ZM549.751 37.6826C549.751 37.4274 549.831 37.2155 549.99 37.0469C550.154 36.8783 550.387 36.7939 550.688 36.7939C550.988 36.7939 551.221 36.8783 551.385 37.0469C551.549 37.2155 551.631 37.4274 551.631 37.6826C551.631 37.9333 551.549 38.1429 551.385 38.3115C551.221 38.4756 550.988 38.5576 550.688 38.5576C550.387 38.5576 550.154 38.4756 549.99 38.3115C549.831 38.1429 549.751 37.9333 549.751 37.6826ZM553.039 43.2471C553.039 42.0986 553.308 41.1826 553.846 40.499C554.388 39.8109 555.106 39.4668 555.999 39.4668C556.842 39.4668 557.505 39.7607 557.988 40.3486L558.063 39.6035H559.561V46.7744C559.561 47.7451 559.257 48.5107 558.651 49.0713C558.05 49.6318 557.236 49.9121 556.211 49.9121C555.669 49.9121 555.138 49.7982 554.618 49.5703C554.103 49.347 553.711 49.0531 553.442 48.6885L554.229 47.6904C554.739 48.2965 555.368 48.5996 556.115 48.5996C556.667 48.5996 557.102 48.4492 557.421 48.1484C557.74 47.8522 557.899 47.4147 557.899 46.8359V46.3369C557.421 46.8701 556.783 47.1367 555.985 47.1367C555.119 47.1367 554.411 46.7926 553.859 46.1045C553.312 45.4163 553.039 44.4639 553.039 43.2471ZM554.693 43.3906C554.693 44.1335 554.844 44.7191 555.145 45.1475C555.45 45.5713 555.871 45.7832 556.409 45.7832C557.079 45.7832 557.576 45.4961 557.899 44.9219V41.668C557.585 41.1074 557.093 40.8271 556.423 40.8271C555.876 40.8271 555.45 41.0436 555.145 41.4766C554.844 41.9095 554.693 42.5475 554.693 43.3906ZM562.814 39.6035L562.862 40.458C563.409 39.7972 564.127 39.4668 565.016 39.4668C566.556 39.4668 567.34 40.3486 567.367 42.1123V47H565.706V42.208C565.706 41.7386 565.604 41.3923 565.398 41.1689C565.198 40.9411 564.868 40.8271 564.407 40.8271C563.737 40.8271 563.238 41.1302 562.91 41.7363V47H561.249V39.6035H562.814ZM570.833 47H569.172V39.6035H570.833V47ZM569.069 37.6826C569.069 37.4274 569.149 37.2155 569.309 37.0469C569.473 36.8783 569.705 36.7939 570.006 36.7939C570.307 36.7939 570.539 36.8783 570.703 37.0469C570.867 37.2155 570.949 37.4274 570.949 37.6826C570.949 37.9333 570.867 38.1429 570.703 38.3115C570.539 38.4756 570.307 38.5576 570.006 38.5576C569.705 38.5576 569.473 38.4756 569.309 38.3115C569.149 38.1429 569.069 37.9333 569.069 37.6826ZM574.189 39.6035L574.237 40.458C574.784 39.7972 575.502 39.4668 576.391 39.4668C577.931 39.4668 578.715 40.3486 578.742 42.1123V47H577.081V42.208C577.081 41.7386 576.979 41.3923 576.773 41.1689C576.573 40.9411 576.243 40.8271 575.782 40.8271C575.112 40.8271 574.613 41.1302 574.285 41.7363V47H572.624V39.6035H574.189ZM580.15 43.2471C580.15 42.0986 580.419 41.1826 580.957 40.499C581.499 39.8109 582.217 39.4668 583.11 39.4668C583.953 39.4668 584.617 39.7607 585.1 40.3486L585.175 39.6035H586.672V46.7744C586.672 47.7451 586.369 48.5107 585.763 49.0713C585.161 49.6318 584.348 49.9121 583.322 49.9121C582.78 49.9121 582.249 49.7982 581.729 49.5703C581.215 49.347 580.823 49.0531 580.554 48.6885L581.34 47.6904C581.85 48.2965 582.479 48.5996 583.227 48.5996C583.778 48.5996 584.213 48.4492 584.532 48.1484C584.851 47.8522 585.011 47.4147 585.011 46.8359V46.3369C584.532 46.8701 583.894 47.1367 583.097 47.1367C582.231 47.1367 581.522 46.7926 580.971 46.1045C580.424 45.4163 580.15 44.4639 580.15 43.2471ZM581.805 43.3906C581.805 44.1335 581.955 44.7191 582.256 45.1475C582.561 45.5713 582.983 45.7832 583.521 45.7832C584.19 45.7832 584.687 45.4961 585.011 44.9219V41.668C584.696 41.1074 584.204 40.8271 583.534 40.8271C582.987 40.8271 582.561 41.0436 582.256 41.4766C581.955 41.9095 581.805 42.5475 581.805 43.3906Z" fill="#6E787F"/>
<path d="M176 27C175.448 27 175 27.4477 175 28C175 28.5523 175.448 29 176 29V27ZM290.707 28.7071C291.098 28.3166 291.098 27.6834 290.707 27.2929L284.343 20.9289C283.953 20.5384 283.319 20.5384 282.929 20.9289C282.538 21.3195 282.538 21.9526 282.929 22.3431L288.586 28L282.929 33.6569C282.538 34.0474 282.538 34.6805 282.929 35.0711C283.319 35.4616 283.953 35.4616 284.343 35.0711L290.707 28.7071ZM176 29H290V27H176V29Z" fill="#3B8CC5"/>
<path d="M478 27C477.448 27 477 27.4477 477 28C477 28.5523 477.448 29 478 29V27ZM592.707 28.7071C593.098 28.3166 593.098 27.6834 592.707 27.2929L586.343 20.9289C585.953 20.5384 585.319 20.5384 584.929 20.9289C584.538 21.3195 584.538 21.9526 584.929 22.3431L590.586 28L584.929 33.6569C584.538 34.0474 584.538 34.6805 584.929 35.0711C585.319 35.4616 585.953 35.4616 586.343 35.0711L592.707 28.7071ZM478 29H592V27H478V29Z" fill="#3B8CC5"/>
</svg>
