<svg version="1.1" xmlns="http://www.w3.org/2000/svg" viewBox="0 0 741.3620605468752 391.1939697265625" width="741.3620605468752" height="391.1939697265625">

  <rect x="0" y="0" width="741.3620605468752" height="391.1939697265625" fill="#ffffff"></rect><g stroke-linecap="round" transform="translate(110.89648437500023 276.62640380859375) rotate(0 19.8096923828125 19.8096923828125)"><path d="M1.62 12.01 C1.62 12.01, 1.62 12.01, 1.62 12.01 M1.62 12.01 C1.62 12.01, 1.62 12.01, 1.62 12.01 M0.17 20.2 C4.28 17.08, 6.76 14.31, 13.98 6.41 M0.49 18.65 C6.03 13.21, 10.02 8.49, 12.73 5.7 M-0.12 25.92 C5.23 18.88, 12.19 9.86, 20.03 2.45 M0.94 24.57 C7.68 18.29, 13.69 12.62, 18.27 4.7 M3.97 29.69 C9.9 22.36, 11.78 16.8, 25.85 1.51 M3.01 28.51 C9.5 22.53, 13.66 15.45, 25.22 3.07 M5.26 32.96 C13.7 20.51, 23.36 10.75, 29.6 3.57 M6.76 31.1 C12.21 24.62, 18.34 17.66, 28.9 4.96 M8.57 36.46 C12.52 27.61, 17.83 21.34, 31.1 7.76 M8.79 34.14 C16.93 24.63, 23.91 15.36, 32.17 7.29 M9.66 40.31 C14.93 30.28, 20.19 27.71, 36.3 7.5 M10.81 37.82 C17.11 30.91, 22.56 25.41, 35.37 8.06 M15.29 37.38 C19.85 31.8, 25.93 25.71, 39.47 14.62 M15.48 39.39 C22.49 30.03, 31.01 21.19, 38.33 13.81 M19.64 40.23 C25.81 33.54, 33 23.72, 40.01 19.45 M20.43 39.43 C25.79 32.12, 31.48 26.73, 38.72 17.02 M23.61 38.16 C30.47 34.57, 32.39 28.7, 39.37 20.46 M25.33 40.18 C28.87 35.67, 31.05 32.14, 40.75 21.08" stroke="#fa5252" stroke-width="0.5" fill="none"></path><path d="M10.61 3.16 C13.96 1.08, 19.86 0.16, 24.07 1 C28.28 1.84, 33.36 5, 35.88 8.22 C38.4 11.43, 39.54 16.25, 39.17 20.27 C38.8 24.3, 36.37 29.26, 33.66 32.39 C30.94 35.52, 26.93 38.2, 22.89 39.04 C18.85 39.88, 13.15 39.67, 9.43 37.41 C5.71 35.14, 1.85 29.69, 0.56 25.45 C-0.73 21.21, -0.48 15.91, 1.67 11.96 C3.82 8, 10.9 3.48, 13.47 1.73 C16.04 -0.01, 17.2 1.38, 17.11 1.5 M28.35 0.35 C32.11 1.45, 35.66 6.26, 37.34 10.28 C39.01 14.31, 39.52 20.25, 38.39 24.5 C37.27 28.76, 33.78 33.18, 30.59 35.83 C27.4 38.49, 23.3 40.61, 19.26 40.43 C15.23 40.25, 9.47 37.68, 6.38 34.75 C3.29 31.81, 1.09 27.02, 0.75 22.83 C0.4 18.63, 1.96 13.12, 4.31 9.59 C6.66 6.06, 10.94 2.93, 14.85 1.66 C18.75 0.39, 25.82 1.82, 27.73 1.94 C29.64 2.06, 26.47 2.3, 26.3 2.38" stroke="#000000" stroke-width="1" fill="none"></path></g><g stroke-linecap="round" transform="translate(213.32244873046852 275.37945556640625) rotate(0 19.8096923828125 19.8096923828125)"><path d="M1.75 12.12 C1.75 12.12, 1.75 12.12, 1.75 12.12 M1.75 12.12 C1.75 12.12, 1.75 12.12, 1.75 12.12 M1.3 20.6 C4.33 17.17, 7.41 14.22, 13.8 5.24 M1.17 19.05 C4.81 14.85, 8.17 11.32, 12.96 5.24 M-0.91 26.21 C6.8 16.37, 15.56 7.89, 19.55 2.95 M1.57 25.34 C6.43 21.05, 9.97 14.56, 18.13 3.78 M4.96 27.87 C6.4 22.56, 12.62 16.75, 24.81 0.99 M3.94 28.93 C9.16 20.68, 16.03 13.96, 26.51 1.65 M5.04 30.26 C11.62 23.95, 16.95 18.31, 28.57 4.79 M6.48 31.54 C13.73 23.1, 19.71 15.6, 28.69 3.79 M7.3 33.54 C13.71 25.77, 19.48 21.14, 33.4 7.3 M8.83 34.15 C13.73 27.26, 20.57 20.89, 31.74 6.13 M9.25 36.64 C15.99 32.28, 24.67 21.02, 34.61 7.09 M11.4 37.44 C19.21 29.26, 25.83 19.34, 35.93 8.98 M14.03 38.63 C19.69 33.2, 28.28 27.92, 38.5 12.59 M15.27 38.51 C23.21 30.2, 29.53 24.05, 38.64 12.5 M19.48 40.86 C24.49 33.52, 31.37 29.64, 39.09 18.04 M20.81 38.27 C27.66 31.47, 34.47 22.11, 38.86 18.13 M26.16 39.83 C28.85 33.37, 34.1 27.08, 39.72 20.47 M25.5 39.7 C28.95 34.6, 34.59 28.32, 40.39 20.73" stroke="#fa5252" stroke-width="0.5" fill="none"></path><path d="M23.57 0.9 C27.64 1.35, 32.96 4.68, 35.57 7.82 C38.17 10.97, 39.44 15.74, 39.18 19.77 C38.92 23.8, 36.62 28.81, 33.99 32.01 C31.36 35.21, 27.41 38.02, 23.39 38.96 C19.37 39.91, 13.64 39.84, 9.86 37.67 C6.08 35.5, 2.12 30.13, 0.72 25.93 C-0.68 21.72, -0.12 16.22, 1.49 12.43 C3.09 8.63, 6.1 4.94, 10.33 3.16 C14.56 1.37, 24.06 1.96, 26.85 1.72 C29.64 1.48, 27.22 1.51, 27.1 1.7 M25.89 0.34 C29.57 1.61, 33.92 5.78, 36.01 9.53 C38.09 13.28, 38.79 18.5, 38.39 22.83 C37.99 27.16, 36.57 32.59, 33.59 35.49 C30.62 38.38, 24.79 40.07, 20.54 40.17 C16.29 40.27, 11.29 38.7, 8.11 36.08 C4.92 33.47, 2.26 28.62, 1.42 24.47 C0.58 20.33, 1.21 15.01, 3.07 11.21 C4.93 7.41, 8.94 3.33, 12.57 1.69 C16.2 0.06, 22.65 1.62, 24.84 1.4 C27.03 1.17, 25.41 0.09, 25.73 0.32" stroke="#000000" stroke-width="1" fill="none"></path></g><g stroke-linecap="round" transform="translate(76.37884521484352 50.7119140625) rotate(0 294.5635681152344 146.09075927734375)"><path d="M0.37 0.26 C173.12 0.94, 346.56 1.09, 589.05 0.31 M590.29 -0.08 C590.12 72.74, 588.82 146.33, 588.32 293.45 M589.1 291.5 C426.91 292.58, 265.83 291.68, 0.35 292.31 M1.14 293.44 C0.02 219.22, 1 146.66, -0.27 -0.01" stroke="#000000" stroke-width="1.5" fill="none" stroke-dasharray="8 9"></path></g><g stroke-linecap="round" transform="translate(422.1440429687498 277.27972412109375) rotate(0 19.8096923828125 19.8096923828125)"><path d="M7.11 3.53 C7.11 3.53, 7.11 3.53, 7.11 3.53 M7.11 3.53 C7.11 3.53, 7.11 3.53, 7.11 3.53 M-1.02 15.96 C6.49 9.46, 11.74 5.2, 16.25 2.81 M1.81 16.94 C5.02 10.22, 11.35 6.32, 14.12 0.88 M5.81 20.29 C8.12 14.21, 10.65 11.74, 19.84 -1.21 M4.42 19.21 C10.4 12.13, 16.29 4.65, 21.19 1.33 M4.68 24.76 C10.17 18.1, 14.73 13.6, 26.44 1.55 M5.03 25.65 C10.38 16.69, 18.12 9.64, 23.75 1.66 M3.87 30.53 C13.86 21.62, 24.36 10.45, 27.73 4.26 M4.41 30.77 C9.13 25.79, 14.8 18.64, 28.59 2.29 M8.65 32.26 C15.84 24.35, 21.1 14.79, 34.57 6.04 M7.72 34.46 C11.12 29.01, 17.01 23.1, 32.91 4.61 M9.24 37.63 C17.15 30.64, 22.94 19.34, 37.39 5 M9.83 37.08 C15.66 30.54, 20.89 23.57, 36.09 5.72 M12.38 40.04 C19.78 27.78, 30.15 17.32, 39.4 11.73 M12.2 40.01 C24.13 28.62, 33.63 16.4, 38.13 9.6 M17.83 40.31 C23.64 31.3, 31.88 22.49, 40.28 14.56 M18.69 38.91 C24.18 32.59, 27.26 27.72, 40.68 14.08 M24.31 35.86 C30.71 32.27, 35.85 23.7, 43.36 19.26 M24.8 38.61 C30.22 32.71, 34.24 27.92, 41.57 18.18 M29.79 37.84 C32.06 37.36, 36.48 31.28, 40.81 25.87 M29.32 39.9 C31.78 36.11, 33.06 33.49, 41.25 24.74" stroke="#fa5252" stroke-width="0.5" fill="none"></path><path d="M19.73 -0.63 C23.86 -1.08, 30.17 1.2, 33.45 4.03 C36.72 6.87, 38.67 11.92, 39.37 16.37 C40.07 20.82, 39.89 27.21, 37.64 30.76 C35.38 34.31, 29.92 36.31, 25.84 37.66 C21.75 39.01, 17 40.2, 13.13 38.85 C9.26 37.5, 4.63 33.24, 2.6 29.57 C0.58 25.89, 0.23 21.11, 0.99 16.77 C1.74 12.43, 3.76 6.25, 7.14 3.5 C10.52 0.76, 18.87 0.82, 21.25 0.29 C23.64 -0.23, 21.59 -0.02, 21.44 0.34 M22.88 -0.96 C26.76 -0.82, 31.19 2.26, 33.99 5.87 C36.78 9.47, 39.56 16.37, 39.65 20.66 C39.75 24.95, 37.01 28.38, 34.56 31.6 C32.1 34.82, 29 39.08, 24.9 40 C20.79 40.93, 13.94 39.17, 9.92 37.14 C5.91 35.11, 2.43 31.85, 0.81 27.8 C-0.8 23.75, -1.27 16.98, 0.24 12.84 C1.76 8.69, 6.29 4.8, 9.91 2.94 C13.53 1.09, 20.03 2.01, 21.96 1.72 C23.88 1.42, 21.24 1.12, 21.46 1.17" stroke="#000000" stroke-width="1" fill="none"></path></g><g stroke-linecap="round" transform="translate(502.1179199218748 277.27972412109375) rotate(0 19.8096923828125 19.8096923828125)"><path d="M3.82 9.95 C3.82 9.95, 3.82 9.95, 3.82 9.95 M3.82 9.95 C3.82 9.95, 3.82 9.95, 3.82 9.95 M1.45 18.29 C6.63 12.39, 11.19 6.28, 15.41 4.14 M2.05 19.31 C5.26 14.61, 9.95 8.55, 15.02 2.38 M2.58 23.71 C9.14 18.81, 14.26 12.2, 19.27 3.28 M2.85 24.21 C8.75 17.11, 13.74 11.72, 21.28 1.63 M3.04 27.31 C12.72 19.19, 22.57 7.04, 28.2 3.86 M4.37 28.01 C8.23 22.98, 14.13 17.19, 26.1 2.54 M5.64 30.51 C15.66 21.01, 21.64 14.78, 32.34 3.84 M5.82 30.2 C12.89 22.23, 21.79 14.75, 30.86 3.29 M10.06 34.23 C15.37 29.83, 18.96 22.76, 33.2 3.83 M8.57 34.74 C17.09 24.99, 24.59 15.04, 34.75 5.46 M10.96 38.04 C19.57 32.2, 22.61 23.74, 35.84 8.96 M11.93 36.45 C18.99 28.44, 28.67 19.59, 36.72 9.2 M14.31 39.05 C23.38 29.89, 33.42 21.86, 37.79 10 M15.19 39.26 C25.02 28.46, 35.02 18.26, 39.97 11.68 M21.51 40.74 C24.3 36.97, 28.67 31.42, 41.31 17.74 M19.39 40.36 C24.98 34.33, 31.41 27.78, 40 16.81 M30.07 37.95 C29.67 32, 35.97 29.5, 41.34 23.79 M27.96 36.64 C30.3 33.8, 33.83 31.34, 40.29 23.34" stroke="#fa5252" stroke-width="0.5" fill="none"></path><path d="M14.15 2.03 C17.94 0.28, 24.25 -0.65, 28.02 0.62 C31.79 1.89, 34.75 5.94, 36.77 9.66 C38.79 13.37, 40.83 18.74, 40.14 22.92 C39.44 27.1, 35.94 31.96, 32.6 34.76 C29.26 37.56, 24.4 39.88, 20.12 39.72 C15.84 39.56, 10.1 36.74, 6.92 33.8 C3.73 30.85, 1.54 25.97, 0.99 22.03 C0.44 18.1, 1.19 13.79, 3.64 10.16 C6.09 6.53, 13.48 1.96, 15.71 0.24 C17.93 -1.47, 17.24 -0.49, 17.01 -0.13 M17.47 0.29 C21.47 -0.71, 27.47 0.39, 31.13 2.91 C34.79 5.43, 38.14 11.47, 39.44 15.43 C40.73 19.4, 40.54 22.9, 38.9 26.7 C37.27 30.49, 33.41 35.9, 29.6 38.21 C25.78 40.53, 20.43 41.76, 16.01 40.59 C11.6 39.42, 5.71 34.95, 3.1 31.18 C0.49 27.4, -0.02 22.08, 0.36 17.92 C0.73 13.76, 2.77 9.28, 5.36 6.22 C7.95 3.16, 14.12 0.49, 15.9 -0.43 C17.67 -1.35, 15.61 0.14, 16.02 0.68" stroke="#000000" stroke-width="1" fill="none"></path></g><g stroke-linecap="round" transform="translate(592.4899902343748 277.27972412109375) rotate(0 19.8096923828125 19.8096923828125)"><path d="M6.52 6.99 C6.52 6.99, 6.52 6.99, 6.52 6.99 M6.52 6.99 C6.52 6.99, 6.52 6.99, 6.52 6.99 M-1.41 21.72 C5.51 13.95, 15.02 6.56, 17.28 1.32 M0.1 20.46 C5.16 15.97, 8.23 11.9, 17.91 0.28 M3.02 25.38 C10.83 17.01, 16.94 4.88, 22.85 -0.33 M1.67 23.42 C8.4 17.87, 14.98 10.9, 21.95 1.83 M2.12 28.69 C13.11 19.79, 21.27 9.51, 26.72 3.36 M4.25 29.02 C10.88 20.48, 19.01 11.57, 27.44 1.22 M5.43 31.36 C13.15 24.05, 21.89 15.34, 29.47 4.36 M6.26 32.63 C13.56 22.21, 22.57 12.28, 31.98 2.49 M9.82 36.37 C16.7 24.78, 24.19 18.05, 33.88 5.55 M8.4 35.26 C17.19 26.12, 23.55 17.43, 34.13 6.11 M13.32 38.63 C16.45 32.24, 25.17 22.36, 35.91 10.84 M12.79 37.87 C19.19 28.47, 26.88 20.77, 35.69 10.83 M13.61 40.35 C21.3 34.34, 27.32 26.48, 39.96 12.83 M14.73 40.46 C20.67 34.21, 25.27 28.13, 38.28 12.94 M19.7 40.9 C28.44 31.31, 34 22.73, 42.59 14.63 M17.75 41.56 C25.01 34.69, 32.52 24.8, 40.39 15.9 M25.76 40.93 C27.1 36.09, 31.94 32.65, 39.79 21.59 M24.73 42.07 C29.43 36.55, 33.65 31.41, 39.89 23.62" stroke="#fa5252" stroke-width="0.5" fill="none"></path><path d="M17.44 -0.6 C21.34 -1.19, 27.53 0.51, 31.05 2.99 C34.57 5.46, 37.42 10.28, 38.54 14.25 C39.67 18.22, 39.31 22.8, 37.81 26.81 C36.31 30.83, 33.21 36.18, 29.55 38.34 C25.88 40.49, 19.97 40.85, 15.81 39.76 C11.65 38.67, 7.29 35.16, 4.59 31.79 C1.89 28.41, -0.71 23.63, -0.4 19.51 C-0.09 15.39, 2.46 10.45, 6.46 7.07 C10.45 3.69, 20.08 0.23, 23.59 -0.76 C27.1 -1.75, 27.57 0.49, 27.52 1.13 M14.83 -1.04 C18.68 -2.08, 23.73 -0.81, 27.73 1.66 C31.72 4.14, 36.82 9.59, 38.81 13.81 C40.81 18.04, 41.01 23.04, 39.69 27.01 C38.38 30.98, 34.77 35.65, 30.92 37.63 C27.08 39.61, 20.76 39.63, 16.63 38.87 C12.49 38.11, 8.97 35.98, 6.12 33.07 C3.26 30.16, -0.06 25.84, -0.5 21.42 C-0.94 17, 0.77 10.15, 3.47 6.56 C6.17 2.98, 13.64 0.94, 15.71 -0.08 C17.78 -1.1, 15.8 -0.14, 15.89 0.42" stroke="#000000" stroke-width="1" fill="none"></path></g><g stroke-linecap="round" transform="translate(10 10) rotate(0 360.6810302734376 185.59698486328125)"><path d="M-0.2 0.02 C146.55 -1.47, 293.87 -0.8, 720.97 0.59 M0.11 -0.14 C195.6 2.38, 391.37 2.26, 721.04 -0.11 M720.95 1.16 C720.3 129.24, 719.43 258.83, 720.42 369.99 M721.23 -0.5 C722.96 120.83, 722.77 241.27, 720.86 371.12 M721.87 370.41 C537.22 371.75, 353.73 372.68, -0.79 370.62 M721.08 371.24 C525.24 369.9, 329.49 369.67, 0.06 371.23 M-0.17 372.12 C0.68 224.4, 1.76 77.86, -0.88 -0.5 M-0.47 370.93 C-2.31 252.26, -1.5 134.41, 0.05 -0.23" stroke="#000000" stroke-width="1" fill="none"></path></g><g stroke-linecap="round" transform="translate(312.5404663085935 277.27972412109375) rotate(0 19.8096923828125 19.8096923828125)"><path d="M4.02 8.8 C4.02 8.8, 4.02 8.8, 4.02 8.8 M4.02 8.8 C4.02 8.8, 4.02 8.8, 4.02 8.8 M1.06 18.36 C4.5 14.27, 7.45 10.21, 14.94 2.5 M0.85 17.62 C7.29 11.28, 12.54 4.45, 16.68 1.73 M4.68 23.7 C9.41 15.46, 11.64 12.27, 19.22 0.08 M1.89 22.23 C7.65 16.06, 14.14 10.16, 21.24 1.32 M2.74 27.1 C11.18 16.98, 21.18 8.42, 24.38 2.2 M4.05 27.25 C8.92 20.84, 14.65 13.52, 24.2 4.02 M4.84 31.82 C15.97 18.71, 25.12 10.33, 30.73 4.62 M5.97 30.17 C13.79 22.65, 21.23 14.05, 28.58 4.7 M6.27 34.13 C14.59 27.89, 19.98 20.35, 32.42 6.25 M8.44 34.36 C13.72 27.23, 18.23 21.67, 31.46 7.48 M10.41 34.7 C21.31 28.98, 29.29 18.61, 34.47 9.53 M12.1 36.14 C17.13 30.32, 21.09 25.79, 34.39 9.69 M15.98 38.28 C22.49 31.91, 27.84 20.63, 38.66 13.08 M15.96 38.09 C19.83 32.08, 26.95 25.38, 38.53 12.25 M20.07 39.77 C27.36 34.19, 32.63 25.71, 40.69 17.1 M19.81 40.89 C22.86 34.91, 29.49 29.98, 39.17 16.74 M25.21 38.84 C31.78 33.71, 34.19 25.99, 39.11 22.64 M26.57 37.54 C30.82 34.75, 33.41 29.55, 39.95 22.38" stroke="#fa5252" stroke-width="0.5" fill="none"></path><path d="M15.06 0.38 C18.9 -0.82, 23.51 0.88, 27.35 2.65 C31.19 4.41, 36.14 7.38, 38.09 10.98 C40.05 14.59, 40.07 20.23, 39.07 24.27 C38.08 28.32, 35.61 32.67, 32.13 35.25 C28.64 37.82, 22.49 40.03, 18.16 39.71 C13.83 39.4, 9.02 36.5, 6.17 33.37 C3.32 30.24, 1.49 24.95, 1.08 20.91 C0.67 16.87, 1.36 12.56, 3.73 9.14 C6.09 5.71, 13.21 1.86, 15.26 0.36 C17.31 -1.14, 15.9 -0.08, 16.03 0.11 M24.81 1.83 C28.4 2.89, 32.68 5.68, 35.25 9.07 C37.82 12.46, 40.68 18.04, 40.23 22.17 C39.78 26.31, 35.75 30.91, 32.54 33.87 C29.34 36.83, 24.98 39.43, 20.99 39.95 C17.01 40.46, 12.21 39.53, 8.64 36.96 C5.06 34.4, 0.58 28.78, -0.46 24.57 C-1.5 20.37, 0.44 15.77, 2.4 11.74 C4.35 7.71, 7.61 2.1, 11.27 0.37 C14.94 -1.35, 22.36 1.08, 24.37 1.39 C26.39 1.7, 23.48 1.85, 23.38 2.24" stroke="#000000" stroke-width="1" fill="none"></path></g><g stroke-linecap="round" transform="translate(150.56903076171898 200.93252563476562) rotate(0 19.8096923828125 19.8096923828125)"><path d="M3.03 7.94 C3.03 7.94, 3.03 7.94, 3.03 7.94 M3.03 7.94 C3.03 7.94, 3.03 7.94, 3.03 7.94 M1.94 15.79 C2.87 11.21, 9.75 9.89, 13.26 1.32 M-0.15 17.34 C3.8 13.48, 7.53 8.95, 14.9 -0.23 M0.49 24.97 C4.56 15.68, 11.99 9.56, 18 1.5 M0.31 23.37 C3.89 18.29, 8.52 12.76, 20.1 1.95 M0.96 25.15 C9.93 16.33, 18.94 10.62, 25.79 0.94 M3.87 26.89 C8.77 20.06, 13.2 13.71, 23.91 2.79 M3.26 30.31 C13.48 19.21, 21.56 11.4, 26.76 4.24 M5.35 29.78 C11.57 21.3, 21.28 11.74, 28.71 2.98 M6.82 35.11 C15.21 23.14, 26.65 14.16, 30.76 7.31 M7.71 34.17 C15.89 24.46, 24.32 13.23, 31.01 5.33 M10.39 37.69 C20.56 25.01, 28.6 15.3, 33.03 8.96 M11.21 35.11 C15.3 28.93, 21.71 22.26, 34.52 8.1 M15.95 38.18 C20.04 29.82, 27.94 20.61, 36.85 11.29 M14.53 38.62 C20.46 32.34, 25.24 25.67, 37.98 11.05 M17.01 39.71 C26.51 31.17, 35.81 20.88, 39.82 14.59 M18.5 40.44 C26.69 28.42, 35.38 18.1, 40.9 14.04 M21.85 43.6 C25.92 34.11, 33.15 29.83, 41.8 20.2 M20.57 42.91 C25.14 36.3, 30.61 32.5, 40.68 19.56" stroke="#fa5252" stroke-width="0.5" fill="none"></path><path d="M27.17 2.55 C31.01 4.04, 36.46 7.16, 38.42 10.77 C40.39 14.39, 40.29 20.15, 38.97 24.23 C37.65 28.31, 33.84 32.61, 30.52 35.24 C27.2 37.87, 23.17 40.32, 19.07 40.02 C14.97 39.73, 9.19 36.43, 5.92 33.46 C2.66 30.49, -0.07 26.49, -0.51 22.19 C-0.95 17.89, 0.64 11.39, 3.28 7.65 C5.93 3.92, 10.91 0.45, 15.36 -0.24 C19.81 -0.94, 27.19 2.61, 29.96 3.47 C32.72 4.33, 32.12 4.73, 31.97 4.91 M13.07 0.23 C16.38 -1.45, 21.71 -0.09, 25.71 1.63 C29.71 3.36, 34.93 6.98, 37.07 10.6 C39.22 14.22, 39.3 19.01, 38.59 23.35 C37.87 27.69, 36.01 33.92, 32.78 36.65 C29.55 39.38, 23.78 39.87, 19.21 39.76 C14.63 39.65, 8.33 38.67, 5.34 35.99 C2.34 33.31, 1.74 28.32, 1.22 23.68 C0.7 19.03, -0.09 12.07, 2.21 8.12 C4.51 4.18, 13.32 1.11, 15 0 C16.67 -1.1, 12.18 0.82, 12.28 1.48" stroke="#000000" stroke-width="1" fill="none"></path></g><g stroke-linecap="round" transform="translate(262.0488281249998 201.1881103515625) rotate(0 19.8096923828125 19.8096923828125)"><path d="M7.18 3.59 C7.18 3.59, 7.18 3.59, 7.18 3.59 M7.18 3.59 C7.18 3.59, 7.18 3.59, 7.18 3.59 M1.66 17.29 C6.44 10.18, 8.2 7.51, 15.22 0 M2.34 15.25 C6.49 10.22, 11.22 4.82, 13.55 1.75 M0.48 22.88 C8.38 16.69, 11.91 10.49, 20.53 -0.57 M2.98 21 C6.99 16.19, 12.57 11.13, 21.01 0.95 M2.92 26.33 C7.37 23.42, 12.77 16.53, 24.21 4.21 M3.16 26.89 C9.06 18.85, 16.85 11.45, 24.88 1.76 M4.94 31.62 C13.26 21.71, 20.69 12.24, 29.37 4.29 M4.72 31.61 C9.74 24, 16.78 17.02, 28.11 4.47 M8.99 33.61 C14.69 21.63, 24.19 11.5, 34.28 5.52 M7.32 33.72 C15.28 25.34, 22.29 18.1, 32.06 5.31 M11.63 35.41 C17.24 28.36, 24.03 20.81, 33.59 6.94 M9.42 36.68 C19.05 26.67, 29.95 16.04, 35.01 7.45 M12.1 38.6 C18.89 31.25, 23.91 25.19, 38.63 12.86 M12.21 40.63 C19.94 30.72, 28.61 21.39, 37.71 12.8 M16.68 39.73 C21.87 34.91, 27.09 29.49, 39.96 17.24 M19.16 38.71 C26.45 31.58, 33.34 23.4, 39.3 16.09 M23.97 36.84 C28.62 32.85, 34.88 25.95, 42.55 18.87 M24.74 39.14 C29.61 34.53, 31.89 28.4, 41.73 19.7" stroke="#fa5252" stroke-width="0.5" fill="none"></path><path d="M21.64 0.37 C25.59 0.18, 29.52 1.45, 32.62 4.47 C35.72 7.5, 39.65 14.22, 40.26 18.54 C40.88 22.86, 38.91 27.07, 36.3 30.38 C33.69 33.69, 28.79 36.99, 24.61 38.38 C20.43 39.76, 14.89 40.2, 11.23 38.69 C7.57 37.17, 4.27 33.05, 2.65 29.29 C1.04 25.54, 0.77 20.46, 1.55 16.15 C2.33 11.84, 3.83 5.94, 7.31 3.44 C10.79 0.95, 19.64 1.5, 22.46 1.18 C25.28 0.87, 24.28 1.23, 24.24 1.53 M22 -1.1 C26.17 -0.76, 31.31 3.32, 34.44 6.31 C37.58 9.29, 40.29 12.97, 40.81 16.8 C41.33 20.64, 40.34 25.7, 37.56 29.31 C34.77 32.92, 28.42 36.93, 24.11 38.45 C19.8 39.98, 15.15 40.03, 11.69 38.45 C8.23 36.87, 5.22 32.72, 3.37 28.97 C1.53 25.22, -0.07 20, 0.64 15.96 C1.36 11.91, 4.03 7.21, 7.65 4.7 C11.27 2.18, 20.28 1.45, 22.34 0.85 C24.41 0.26, 20.19 0.85, 20.05 1.14" stroke="#000000" stroke-width="1" fill="none"></path></g></svg>