<svg version="1.1" xmlns="http://www.w3.org/2000/svg" viewBox="0 0 102.0347900390625 144.39361572265625" width="102.0347900390625" height="144.39361572265625">

  <rect x="0" y="0" width="102.0347900390625" height="144.39361572265625" fill="#ffffff"></rect><g stroke-linecap="round" transform="translate(10 31.00115966796875) rotate(0 41.01739501953125 51.69622802734375)"><path d="M0 0 C0 0, 0 0, 0 0 M0 0 C0 0, 0 0, 0 0 M-0.87 6.11 C1.61 4.45, 3.23 2.38, 5.76 0.61 M-0.58 6.27 C1.33 4.3, 3.38 2.44, 5.22 0.16 M0.56 10.54 C2.78 7.52, 6.23 4.09, 10.6 1.13 M0.21 11.49 C2.75 8.98, 5.78 5.01, 9.88 0.16 M-1.4 20.19 C2.54 14.25, 6.05 10.16, 16.41 -0.82 M-0.99 18.34 C4.09 13.66, 6.37 8.94, 15.13 0.11 M-0.39 23.12 C7.43 16.4, 11.54 11.66, 19.79 0.43 M0.23 23.3 C4.46 19.03, 8.17 13.99, 20.78 0.3 M1.5 28.91 C9.16 21.04, 19.94 7.08, 25.45 -0.11 M-0.73 29.99 C6.93 21.46, 15.31 13.69, 25.94 0.55 M1.41 37.27 C7.12 26.92, 14.04 21.42, 31.14 1.21 M-0.23 36.62 C9.3 25.39, 19.61 14, 31.79 0.88 M0.44 42.37 C15.97 26.47, 28.4 12.05, 35.03 -0.53 M-0.11 43.48 C10.55 28.87, 21.92 16.94, 37.36 -0.11 M-1.78 47.55 C13.3 35.47, 25.08 23.14, 43.46 1.53 M-0.46 49.43 C8.57 39.12, 17.44 28.8, 43.01 0.04 M0.1 54.45 C9.41 43.04, 21.26 32.8, 46.29 0.58 M1.22 53.89 C13.06 38.57, 27.35 23.69, 48.38 -0.1 M0.41 61.52 C18.25 41.42, 35.58 19.4, 52.71 0.49 M-0.03 61.19 C15.59 43.71, 31.62 26.18, 53.9 -0.53 M1.68 69.14 C13.9 54.12, 24.28 39.24, 58.54 -1.73 M0.15 66.57 C14.34 50.5, 29.78 34.59, 58.69 0.44 M1.15 74.33 C21.53 49.13, 38.74 27.9, 62.03 0.52 M0.78 72.7 C16.22 53.95, 31.67 36.34, 64.09 -0.55 M-0.52 79.49 C23.96 55.19, 42.25 29.87, 67.22 1.88 M-0.32 79.23 C14.42 63.97, 28.29 47.15, 69.62 0.43 M1.77 83.48 C16.97 64.7, 35.02 49.6, 75.69 1.42 M-0.61 85.82 C16.92 66.46, 34.08 48.29, 74.4 -0.19 M-1 90.16 C22.24 64.24, 47.97 36.74, 77.94 1.13 M0.03 91.41 C30.99 54.93, 62.96 19.05, 79.2 0.88 M1.1 99.54 C20.74 71.36, 47.08 44.83, 83.83 -0.17 M-0.78 97.26 C17.58 77.78, 34.07 58.07, 84.5 0.49 M1.57 104.43 C28.79 72.96, 59.51 37.39, 81.91 7.63 M0.24 104.46 C22.28 79.39, 42.12 56.33, 82.55 7.43 M5.33 103.16 C26.55 77.32, 49.67 53.19, 83.15 13.28 M4.58 104.48 C25.1 81.82, 44.47 58.84, 84.66 12.55 M12.14 102.81 C31.18 81.58, 48.89 60.36, 81.69 18.75 M11.01 103.24 C25.48 83.66, 43.4 64.76, 82.67 19.22 M15.61 103.61 C41.78 75.73, 67.22 46.87, 81.95 27.79 M15.26 103.35 C35.43 81.86, 54.06 60.77, 83.73 26.75 M21.84 105.33 C36.24 84.07, 54.49 66.2, 85.27 32.7 M22.25 103.36 C43.33 77.25, 66.96 52.98, 83.53 30.96 M24.65 101.8 C39.82 83.37, 58.78 65.05, 82.44 39 M26.09 104.09 C40.63 86.99, 54.66 72.45, 82.53 37.73 M33.46 105.27 C51.16 81.42, 71.45 58.1, 82.9 44.58 M31.5 103.89 C49.58 83.33, 65.81 63.24, 83.83 43.98 M36.55 104.93 C48.26 89.07, 61.53 74.08, 84.03 48.18 M37.84 102.94 C55.2 83.38, 72.13 61.81, 84.07 50.99 M40.93 103.27 C57.13 89.2, 69.39 75.48, 84.31 56.56 M42.51 102.51 C58.79 85.34, 72.27 68.07, 83.29 57.42 M47.59 102.56 C60.14 88.75, 75.79 72.29, 83.93 61.18 M46.96 103.26 C62.16 87.51, 75.5 71.15, 83.18 62.84 M51.35 105.29 C59.72 93.28, 68.92 84.78, 83.36 68.91 M54.16 102.48 C60.36 95.07, 65.91 87.94, 84.29 68.27 M60.17 104.59 C65.55 93.99, 74.39 88.57, 82.52 75.19 M58.56 104.45 C67.92 92.79, 78.98 79.83, 82.88 74.18 M62.97 104.67 C72.28 93.18, 79.51 86.99, 84.1 82.5 M63.54 103.62 C69.44 96.22, 75.33 89.84, 82.87 80.82 M68.89 103.26 C72.17 98.58, 79.96 93.42, 84.69 85.5 M69.42 103 C73.98 96.76, 80.13 90.62, 82.69 86.21 M75 103.82 C77.37 99.69, 81.86 96.83, 84.9 93.45 M74.79 103.31 C78.23 99.29, 81.01 96.5, 84.24 92.69 M79.23 103.47 C80.07 102.93, 81.56 101.17, 83.76 99.5 M79.38 103.57 C80.58 102.42, 81.5 101.32, 83.72 98.9" stroke="#fa5252" stroke-width="0.5" fill="none"></path><path d="M0.83 -1.54 C17.29 1.44, 34.92 1.05, 82.46 -0.42 M-0.26 0.1 C21.07 0.11, 43.35 -1.33, 82.83 0.31 M81.14 -0.52 C84.45 25.08, 80.82 51.85, 81.79 101.54 M82.02 0.44 C82.31 27.08, 81.91 55.2, 81.64 103.57 M80.77 102.82 C52.45 104.42, 20.68 104.41, -0.16 103.79 M81.73 103.58 C53.42 104.65, 26.19 104.2, 0.55 104.27 M0.33 105.19 C-0.39 63.67, 0.72 27.29, -0.18 0.95 M0.42 103.37 C-0.45 82.06, -0.88 60.26, 0.29 0.82" stroke="#000000" stroke-width="1" fill="none"></path></g><g stroke-linecap="round" transform="translate(29.785888671875 10) rotate(0 21.18487548828125 9.78265380859375)"><path d="M0.19 1.81 C15.34 1.75, 29.7 -0.1, 41.55 0.66 M-0.19 0.64 C16.26 -0.85, 31.65 0.26, 41.9 0.49 M44.24 -1.03 C40.59 5.19, 42.04 9.35, 41.65 18.48 M43.2 -0.12 C42.81 6.4, 41.98 11.42, 43.02 20.32 M42.84 20.83 C29.61 20.69, 19.18 19.84, 0.91 18.24 M42.09 20.52 C28.93 20.15, 14.39 20.52, 0.71 20.19 M0.25 18.28 C1.31 13.31, -0.21 6.59, -1.73 0.89 M0.02 20.09 C-0.48 15.86, 0.2 11.78, -0.7 0.17" stroke="#000000" stroke-width="1" fill="none"></path></g></svg>