<svg version="1.1" xmlns="http://www.w3.org/2000/svg" viewBox="0 0 593.3499145507812 346.8377685546875" width="593.3499145507812" height="346.8377685546875">

<rect x="0" y="0" width="593.3499145507812" height="346.8377685546875" fill="#ffffff"></rect><g stroke-linecap="round" transform="translate(10 10) rotate(0 286.6749572753906 163.41888427734375)"><path d="M-0.74 0.05 C147.18 0.93, 294.26 1.6, 572.96 -0.45 M-0.16 0.19 C154.36 -1.81, 309.4 -1.88, 573.6 -0.24 M572.82 1.24 C572.94 91.41, 574.15 184.25, 572.37 326.98 M573.72 0.59 C571.73 98, 572.03 196.8, 573.36 327.38 M573 326.07 C368.69 326.62, 162.79 326.51, -0.56 327.21 M573.12 326.67 C414.2 325.18, 254.97 325.21, -0.01 326.84 M-0.6 327.58 C0.99 207.31, 2.54 88.53, 0.43 0.14 M0.37 326.23 C2.12 209.87, 2.03 93.18, -0.47 0.53" stroke="#000000" stroke-width="1" fill="none"></path></g><g stroke-linecap="round" transform="translate(490.0458526611328 32.68310546875) rotate(0 31.05559539794922 28.25939178466797)"><path d="M0 0 C0 0, 0 0, 0 0 M0 0 C0 0, 0 0, 0 0 M0.28 6.45 C1.14 3.94, 3.13 2.54, 5.41 -0.38 M-0.32 6.31 C1.32 4.27, 2.92 2.63, 5.22 0.49 M-0.35 12.07 C3.09 7.17, 8.1 3.48, 10.37 1.44 M0.32 11.86 C3.83 7.07, 8.43 2.31, 10.37 0.27 M1.74 18.76 C5.51 12.6, 10.97 8.14, 16.63 -0.23 M0.57 18.89 C4.25 13.32, 8.49 10.26, 15.33 0.96 M-1.01 22.88 C6.09 15.57, 16.65 6.77, 20.34 -0.04 M-0.51 24.47 C7.58 16.14, 15.16 6.86, 20.61 0.76 M-1.05 31.54 C8.05 21.55, 14.82 15.93, 27.25 0.61 M0.24 30.28 C9.32 20.78, 17.89 10.62, 25.9 -0.3 M-0.64 38.22 C8.4 28.42, 11.76 22.01, 32.08 1.48 M-1.21 35.99 C12.39 24.14, 23.19 9.57, 32.4 -0.05 M-0.74 41.97 C8.79 31.89, 18.26 24.03, 38.34 -1.25 M0.46 42.01 C11.95 27.58, 23.9 14.29, 35.95 0.55 M-1.88 50.51 C15.1 32.55, 28.12 16.5, 40.64 -0.11 M0.37 48.35 C13.93 32.78, 28.44 14.67, 42.75 -0.13 M1.53 55.85 C15.6 35.37, 30.5 17.56, 48.66 -1.43 M0.47 53.9 C14.96 37.38, 30.23 20.33, 48.5 0.28 M3.08 58.9 C15.57 42.26, 29.12 24.58, 53.42 1.45 M2.7 58.72 C16.83 42.13, 32.7 23.38, 54.12 0.62 M8.12 59.37 C21.01 42.08, 35.87 24.42, 59.27 -0.85 M8.05 57.64 C23.13 39.73, 39.65 20.62, 58.92 0.83 M13.63 59.17 C25.13 44.14, 39.51 25.63, 61.49 1.81 M11.83 59.36 C31.39 37.31, 51.8 14.86, 63.64 1.22 M18.56 60.22 C29.27 44.6, 40.99 33.39, 63.64 5.04 M19.18 57.9 C26.9 48.14, 37.47 37.02, 63.02 6.09 M24.36 59.14 C35.7 44.73, 46.13 30.79, 63.69 11.16 M23.06 59.04 C32.86 48.79, 41.96 37.36, 63.26 12.66 M29.37 58.04 C43.6 42.28, 55.63 27.46, 64.78 19.2 M29.84 58.76 C38.64 48.67, 46.9 36.77, 62.15 18.8 M32.71 59.5 C44.83 47.71, 54.22 35.74, 61.55 27.23 M34.57 57.9 C40.38 52.37, 46.14 45.96, 62.64 24.96 M40.63 57.37 C48.25 49.5, 54.36 40.24, 63.28 31.48 M38.62 58.65 C44.61 52.9, 48.43 47.15, 63.32 31.08 M46.42 59.67 C47.76 52.75, 52.36 50.57, 61.04 37.48 M44.89 59.2 C50.77 51.18, 58.51 43.05, 62.91 37.34 M48.75 59.45 C55.1 53.97, 60.15 46.47, 61.44 43.69 M49.48 58.21 C54.39 53.67, 58.11 49.55, 63.26 43.5 M55.39 58.03 C57.92 56.11, 61.8 50.76, 62.69 48.8 M54.98 59.05 C58.38 55.59, 60.65 52.05, 62.75 49.46" stroke="#fa5252" stroke-width="0.5" fill="none"></path><path d="M-0.51 -0.88 C16.31 0.17, 35.8 -0.94, 63.65 -1.75 M-0.69 0.93 C22.88 -0.55, 44.97 -0.27, 62.72 0.44 M63.62 0.42 C62.59 10.91, 62.07 22.6, 61.21 57.51 M61.47 0.5 C61.94 16.03, 62.86 32.78, 61.8 56.96 M62.29 55.94 C43.44 57.08, 29.36 56.97, -0.78 57.29 M61.33 57.18 C50.09 57.35, 36.28 55.79, -0.96 57.27 M-0.79 56.6 C-2.25 34.16, 0.84 12.68, -0.96 1.45 M-0.87 56.76 C-0.02 42.64, 0.5 30.56, -0.11 0.04" stroke="#000000" stroke-width="1" fill="none"></path></g></svg>
