<svg width="35" height="40" viewBox="0 0 35 40" fill="none" xmlns="http://www.w3.org/2000/svg">
<path d="M16.2368 5.30286C17.7101 5.30286 18.9045 4.11577 18.9045 2.65143C18.9045 1.18709 17.7101 0 16.2368 0C14.7634 0 13.569 1.18709 13.569 2.65143C13.569 4.11577 14.7634 5.30286 16.2368 5.30286Z" fill="#EF7D00"/>
<path d="M3.54172 18.331C5.49776 18.331 7.08344 16.7551 7.08344 14.811C7.08344 12.867 5.49776 11.291 3.54172 11.291C1.58568 11.291 0 12.867 0 14.811C0 16.7551 1.58568 18.331 3.54172 18.331Z" fill="#2660A8"/>
<path d="M13.5229 28.9824C15.479 28.9824 17.0646 27.4064 17.0646 25.4624C17.0646 23.5183 15.479 21.9424 13.5229 21.9424C11.5669 21.9424 9.9812 23.5183 9.9812 25.4624C9.9812 27.4064 11.5669 28.9824 13.5229 28.9824Z" fill="#2660A8"/>
<path d="M23.8721 4.93714C25.2439 4.93714 26.3559 3.83193 26.3559 2.46857C26.3559 1.10522 25.2439 0 23.8721 0C22.5003 0 21.3883 1.10522 21.3883 2.46857C21.3883 3.83193 22.5003 4.93714 23.8721 4.93714Z" fill="#EF7D00"/>
<path d="M31.7835 4.93714C33.1553 4.93714 34.2673 3.83193 34.2673 2.46857C34.2673 1.10522 33.1553 0 31.7835 0C30.4117 0 29.2997 1.10522 29.2997 2.46857C29.2997 3.83193 30.4117 4.93714 31.7835 4.93714Z" fill="#EF7D00"/>
<path d="M23.8721 23.0856C25.2439 23.0856 26.3559 21.9804 26.3559 20.617C26.3559 19.2537 25.2439 18.1484 23.8721 18.1484C22.5003 18.1484 21.3883 19.2537 21.3883 20.617C21.3883 21.9804 22.5003 23.0856 23.8721 23.0856Z" fill="#EF7D00"/>
<path d="M13.5689 39.9547C15.5504 39.9547 17.1566 38.3582 17.1566 36.389C17.1566 34.4197 15.5504 32.8232 13.5689 32.8232C11.5875 32.8232 9.9812 34.4197 9.9812 36.389C9.9812 38.3582 11.5875 39.9547 13.5689 39.9547Z" fill="#2660A8"/>
<path d="M26.218 10.423C25.712 9.23438 24.4241 8.59438 23.1822 8.9601C22.3083 9.23438 21.6643 9.9201 21.4803 10.7887C21.3883 11.1087 21.2044 11.383 20.9744 11.6115C19.5485 12.6172 17.7546 12.8001 16.1448 12.1601C15.8688 12.0687 15.5468 11.9315 15.2708 11.7487C15.1328 11.6572 14.9489 11.6115 14.8109 11.5201H14.7189C13.9369 11.2001 13.063 11.2001 12.2351 11.5201C10.3952 12.2515 9.52128 14.263 10.2112 16.0915C10.9012 17.8287 12.833 18.743 14.6269 18.1487C15.3628 17.9201 16.0068 17.4172 16.4207 16.7772C16.5127 16.6401 16.6047 16.4572 16.6967 16.3201C16.6967 16.3201 18.9505 12.5715 21.8023 13.0287C22.0323 13.1201 22.2623 13.2115 22.4923 13.3487C23.1362 13.8058 23.9181 13.8972 24.6541 13.6687C25.942 13.2572 26.6779 11.8401 26.264 10.5601C26.218 10.5144 26.218 10.4687 26.218 10.423Z" fill="url(#paint0_linear_7356_638)"/>
<defs>
<linearGradient id="paint0_linear_7356_638" x1="13.8901" y1="17.1009" x2="25.0143" y2="5.90341" gradientUnits="userSpaceOnUse">
<stop stop-color="#2660A8"/>
<stop offset="0.1" stop-color="#3061A0"/>
<stop offset="0.27" stop-color="#4A658A"/>
<stop offset="0.49" stop-color="#756B66"/>
<stop offset="0.75" stop-color="#AF7436"/>
<stop offset="1" stop-color="#EF7D00"/>
</linearGradient>
</defs>
</svg>
