<svg width="168" height="40" viewBox="0 0 168 40" fill="none" xmlns="http://www.w3.org/2000/svg">
<g clip-path="url(#clip0_7264_104407)">
<path d="M16.2366 5.30286C17.71 5.30286 18.9044 4.11577 18.9044 2.65143C18.9044 1.18709 17.71 0 16.2366 0C14.7633 0 13.5688 1.18709 13.5688 2.65143C13.5688 4.11577 14.7633 5.30286 16.2366 5.30286Z" fill="#FF8200"/>
<path d="M3.54172 18.3314C5.49776 18.3314 7.08344 16.7555 7.08344 14.8114C7.08344 12.8674 5.49776 11.2914 3.54172 11.2914C1.58568 11.2914 0 12.8674 0 14.8114C0 16.7555 1.58568 18.3314 3.54172 18.3314Z" fill="#2D5FAA"/>
<path d="M13.5229 28.9829C15.479 28.9829 17.0646 27.4069 17.0646 25.4629C17.0646 23.5188 15.479 21.9429 13.5229 21.9429C11.5669 21.9429 9.9812 23.5188 9.9812 25.4629C9.9812 27.4069 11.5669 28.9829 13.5229 28.9829Z" fill="#2D5FAA"/>
<path d="M23.8722 4.93714C25.244 4.93714 26.356 3.83193 26.356 2.46857C26.356 1.10522 25.244 0 23.8722 0C22.5005 0 21.3884 1.10522 21.3884 2.46857C21.3884 3.83193 22.5005 4.93714 23.8722 4.93714Z" fill="#FF8200"/>
<path d="M31.7836 4.93714C33.1554 4.93714 34.2674 3.83193 34.2674 2.46857C34.2674 1.10522 33.1554 0 31.7836 0C30.4118 0 29.2998 1.10522 29.2998 2.46857C29.2998 3.83193 30.4118 4.93714 31.7836 4.93714Z" fill="#FF8200"/>
<path d="M23.8722 23.0857C25.244 23.0857 26.356 21.9805 26.356 20.6171C26.356 19.2538 25.244 18.1486 23.8722 18.1486C22.5005 18.1486 21.3884 19.2538 21.3884 20.6171C21.3884 21.9805 22.5005 23.0857 23.8722 23.0857Z" fill="#FF8200"/>
<path d="M13.5689 39.9543C15.5504 39.9543 17.1566 38.3579 17.1566 36.3886C17.1566 34.4193 15.5504 32.8229 13.5689 32.8229C11.5875 32.8229 9.9812 34.4193 9.9812 36.3886C9.9812 38.3579 11.5875 39.9543 13.5689 39.9543Z" fill="#2D5FAA"/>
<path d="M26.218 10.4228C25.712 9.23426 24.4241 8.59426 23.1822 8.95997C22.3083 9.23426 21.6643 9.91997 21.4803 10.7885C21.3883 11.1085 21.2044 11.3828 20.9744 11.6114C19.5485 12.6171 17.7546 12.8 16.1448 12.16C15.8688 12.0685 15.5468 11.9314 15.2708 11.7485C15.1328 11.6571 14.9489 11.6114 14.8109 11.52H14.7189C13.9369 11.2 13.063 11.2 12.2351 11.52C10.3952 12.2514 9.52128 14.2628 10.2112 16.0914C10.9012 17.8285 12.833 18.7428 14.6269 18.1485C15.3628 17.92 16.0068 17.4171 16.4207 16.7771C16.5127 16.64 16.6047 16.4571 16.6967 16.32C16.6967 16.32 18.9505 12.5714 21.8023 13.0285C22.0323 13.12 22.2623 13.2114 22.4923 13.3485C23.1362 13.8057 23.9181 13.8971 24.6541 13.6685C25.942 13.2571 26.6779 11.84 26.264 10.56C26.218 10.5143 26.218 10.4685 26.218 10.4228Z" fill="url(#paint0_linear_7264_104407)"/>
<path d="M32.6113 20.9828H46.6402V24.5486H41.4886V39.9543H37.7169V24.5486H32.6113V20.9828Z" fill="#2D5FAA"/>
<path d="M51.4698 26.3771V28.7086C51.7458 27.8857 52.2978 27.2 53.0337 26.7886C53.8157 26.3314 54.6896 26.1028 55.6095 26.1028V29.9886C54.5976 29.8514 53.5397 30.08 52.7117 30.6286C51.8838 31.1771 51.4698 32.1371 51.4698 33.4171V39.9086H47.9741V26.3771H51.4698Z" fill="#2D5FAA"/>
<path d="M105.884 20.9828H119.912V24.5486H114.761V39.9543H110.989V24.5486H105.884V20.9828Z" fill="#FF8200"/>
<path d="M124.742 26.3771V28.7086C125.018 27.8857 125.57 27.2 126.306 26.7886C127.088 26.3314 127.962 26.1028 128.882 26.1028V29.9886C127.87 29.8514 126.858 30.08 125.984 30.6286C125.156 31.1771 124.742 32.1371 124.742 33.4171V39.9086H121.246V26.3771H124.742Z" fill="#FF8200"/>
<path d="M149.764 29.8514C149.764 30.4457 150.592 30.9028 152.248 31.36C152.8 31.4971 153.306 31.6343 153.812 31.8171C154.318 32 154.778 32.2285 155.238 32.5485C155.698 32.8685 156.112 33.28 156.388 33.8285C156.664 34.3771 156.802 35.0171 156.802 35.6571C156.848 36.9371 156.25 38.1257 155.238 38.9028C154.088 39.68 152.708 40.0457 151.328 40C148.522 40 146.637 38.9028 145.579 36.7543L148.614 35.0628C149.028 36.2514 149.948 36.8457 151.282 36.8457C152.524 36.8457 153.168 36.48 153.168 35.6571C153.168 35.0628 152.34 34.6057 150.684 34.1485C150.04 33.9657 149.534 33.8285 149.12 33.6457C148.614 33.4628 148.154 33.2343 147.694 32.9143C147.188 32.64 146.821 32.1828 146.545 31.68C146.269 31.1314 146.131 30.5371 146.131 29.9428C146.085 28.7085 146.637 27.5657 147.602 26.7885C148.66 26.0114 149.994 25.6 151.328 25.6C152.386 25.6 153.444 25.8285 154.364 26.3314C155.284 26.8343 156.02 27.5657 156.526 28.48L153.536 30.1257C153.168 29.2571 152.294 28.7085 151.328 28.7543C150.914 28.7543 150.546 28.8457 150.178 29.0743C149.948 29.2571 149.81 29.5314 149.764 29.8514Z" fill="#FF8200"/>
<path d="M167.059 26.24V29.6229H163.977V35.2915C163.931 35.6572 164.069 36.0686 164.345 36.3429C164.621 36.5715 164.989 36.7086 165.403 36.7086C165.955 36.7543 166.553 36.7543 167.105 36.7086V39.9086C164.713 40.1829 163.011 39.9543 161.999 39.2229C160.987 38.4915 160.481 37.2115 160.481 35.3372V29.6229H158.09V26.2857H160.481V23.5429L164.023 22.4915V26.2857H167.059V26.24Z" fill="#FF8200"/>
<path d="M134.907 26.4229V33.6914C134.907 35.4286 135.735 36.48 137.621 36.48C139.507 36.48 140.335 35.4286 140.335 33.6914V26.4229H143.831V33.7371C143.831 34.6971 143.693 35.6571 143.371 36.5714C143.049 37.3486 142.543 37.9886 141.945 38.4914C139.369 40.3657 135.873 40.3657 133.298 38.4914C132.654 37.9886 132.148 37.3029 131.826 36.5714C131.504 35.6571 131.366 34.6971 131.412 33.7371V26.4229H134.907Z" fill="#FF8200"/>
<path d="M68.0287 27.6114V26.0114H71.5245V39.5428H68.0287V37.9428C66.9708 39.2685 65.3149 40 63.5671 39.9086C61.7732 39.9086 60.0714 39.1771 58.8755 37.8514C56.2997 34.9257 56.2997 30.5828 58.8755 27.7028C60.0714 26.3771 61.7732 25.6 63.5671 25.6C65.4989 25.6457 66.9708 26.2857 68.0287 27.6114ZM60.4853 32.8228C60.4853 34.7886 62.0952 36.3885 64.073 36.3885C66.0509 36.3885 67.6608 34.7886 67.6608 32.8228C67.6608 30.8571 66.0509 29.2571 64.073 29.2571C62.0952 29.2571 60.4853 30.8114 60.4853 32.8228Z" fill="#2D5FAA"/>
<path d="M85.0932 27.6114V20.5714H88.5889V39.5428H85.0932V37.9428C84.0353 39.2686 82.5634 39.9086 80.6775 39.9086C78.8837 39.9086 77.1818 39.1771 75.9399 37.8514C73.3641 34.9257 73.3641 30.5828 75.9399 27.7028C77.1358 26.3771 78.8377 25.6 80.6315 25.6C82.5634 25.6457 84.0353 26.2857 85.0932 27.6114ZM77.5038 32.8228C77.5038 34.7886 79.1136 36.3886 81.0915 36.3886C83.0693 36.3886 84.6792 34.7886 84.6792 32.8228C84.6792 30.8571 83.0693 29.2571 81.0915 29.2571C79.1596 29.2571 77.5498 30.8114 77.5038 32.8228Z" fill="#2D5FAA"/>
<path d="M104.458 34.1943H94.1547C94.6146 35.8858 95.9025 36.7543 98.0184 36.7543C99.2143 36.8457 100.364 36.2972 101.1 35.3829L103.952 37.0286C102.618 38.9943 100.594 39.9543 97.9724 39.9543C95.7185 39.9543 93.8787 39.2686 92.5448 37.8972C89.831 35.0172 89.831 30.5372 92.4988 27.6572C93.8787 26.2857 95.7645 25.5086 97.7424 25.6C99.6282 25.5543 101.422 26.2857 102.71 27.6572C103.998 29.0286 104.734 30.8572 104.642 32.7772C104.55 33.2343 104.504 33.7372 104.458 34.1943ZM94.0627 31.4515H101.054C100.778 29.8057 99.3063 28.6629 97.6504 28.7086C96.8225 28.6629 95.9945 28.9372 95.3046 29.44C94.6606 29.9429 94.2467 30.6743 94.0627 31.4515Z" fill="#2D5FAA"/>
</g>
<defs>
<linearGradient id="paint0_linear_7264_104407" x1="13.8901" y1="17.1008" x2="25.0143" y2="5.90329" gradientUnits="userSpaceOnUse">
<stop stop-color="#2D5FAA"/>
<stop offset="0.1" stop-color="#3061A0"/>
<stop offset="0.27" stop-color="#4A658A"/>
<stop offset="0.49" stop-color="#756B66"/>
<stop offset="0.75" stop-color="#AF7436"/>
<stop offset="1" stop-color="#FF8200"/>
</linearGradient>
<clipPath id="clip0_7264_104407">
<rect width="167.059" height="40" fill="white"/>
</clipPath>
</defs>
</svg>
